<svg xmlns="http://www.w3.org/2000/svg" version="1.1" xmlns:xlink="http://www.w3.org/1999/xlink" xmlns:svgjs="http://svgjs.com/svgjs" width="1194.471" height="387.2307692307692"><svg width="1194.471" height="387.2307692307692" xmlns="http://www.w3.org/2000/svg" xmlns:svg="http://www.w3.org/2000/svg" version="1.1">
 <g class="layer">
  <title>Layer 1</title>
  <path d="m802.73,68.03c-3.17,2.09 -6.55,4.67 -7.5,5.75c-0.95,1.08 -5.33,5.01 -9.73,8.74c-4.4,3.73 -11.17,9.75 -15.06,13.38c-3.88,3.63 -9.98,9.15 -13.57,12.26c-3.58,3.11 -10.06,10.31 -14.4,16c-4.34,5.69 -12.13,15.47 -17.33,21.74c-5.19,6.27 -10.13,12.8 -10.96,14.5c-0.83,1.71 -5.2,8.73 -9.71,15.6c-4.5,6.88 -9.34,14.78 -10.75,17.56c-1.41,2.78 -4.33,7.73 -6.48,11c-2.16,3.27 -5.4,10.21 -7.19,15.44c-1.79,5.23 -3.64,10.4 -4.11,11.5c-2.59,6.08 -6.16,20.65 -7.95,32.5c-1.12,7.42 -2.26,14.13 -2.54,14.89c-0.72,2.01 1.44,21.38 3.3,29.61c2.1,9.29 6.96,18.59 14.16,27.15c6.81,8.1 31.79,28.93 40.59,33.86c10.8,6.05 26.38,10.15 46.73,12.29c9.84,1.04 26.08,-0.84 35.95,-4.17c20.61,-6.92 27.08,-10.27 37.75,-19.52c6.89,-5.97 10.1,-8.11 12.15,-8.11c4.04,0 7.92,-1.71 7.92,-3.49c0,-2.05 4.28,-5.96 17.5,-15.98c16.89,-12.81 25.89,-20.54 39.37,-33.83c10.78,-10.63 17.13,-18.15 17.13,-20.29c0,-0.35 -1.37,-0.44 -3.04,-0.19c-3.09,0.45 -4.84,-0.56 -2.98,-1.71c0.56,-0.35 1.02,-2.83 1.02,-5.51c0,-3.92 -0.44,-5.2 -2.22,-6.44c-3.07,-2.15 -5.04,-1.97 -10.91,1.01c-2.79,1.41 -5.28,2.35 -5.54,2.09c-0.26,-0.26 0.01,-2.2 0.59,-4.32c1.87,-6.72 1.59,-7.35 -3.17,-7.27c-5.36,0.09 -6.74,0.67 -11.12,4.67c-14.16,12.92 -31.18,26.09 -47.23,36.52c-14.8,9.62 -41.28,26.13 -46.4,28.92c-14.66,8.01 -38.24,15.82 -47.8,15.82c-4.43,0 -5.69,-0.43 -7.72,-2.62c-1.34,-1.44 -2.77,-4.26 -3.18,-6.25c-1.25,-6.14 -0.9,-33.16 0.52,-39.63c2.37,-10.84 8.34,-32.9 10.28,-38c1.04,-2.75 1.9,-6.69 1.9,-8.75c0,-2.9 0.78,-4.57 3.46,-7.41c4.16,-4.41 5.37,-8.65 3.12,-10.91c-0.87,-0.86 -1.58,-1.79 -1.58,-2.05c0,-1.95 7.52,-14.41 8.97,-14.87c2.08,-0.66 7.03,-5.34 7.03,-6.65c0,-0.47 -0.67,-0.86 -1.5,-0.86c-0.83,0 -1.5,-0.62 -1.5,-1.38c0,-2.27 2.78,-4.05 4.33,-2.76c1.02,0.85 1.88,0.36 3.74,-2.13c4.84,-6.48 7.23,-10.29 8.2,-13.08c0.55,-1.57 2.96,-4.67 5.36,-6.88c4.95,-4.56 5.56,-6.77 1.87,-6.77c-1.37,0 -2.5,-0.35 -2.5,-0.78c0,-2.95 8.96,-9.98 11.06,-8.69c1.47,0.92 5.23,-2.76 10.5,-10.28c3.78,-5.4 4.1,-6.25 2.41,-6.25c-4.31,0 -1.94,-3.17 15.93,-21.34c8.03,-8.16 19.96,-19.19 26.51,-24.5c6.56,-5.31 13.1,-10.63 14.54,-11.81c3.8,-3.13 11.02,-6.71 11.84,-5.89c0.39,0.39 -0.58,1.82 -2.16,3.18c-5.42,4.67 -1.82,3.46 9.2,-3.08c9.83,-5.84 13.55,-8.56 11.68,-8.56c-0.33,0 -3.98,1.85 -8.11,4.12c-12.99,7.13 -10.08,2.21 3.6,-6.09c10.26,-6.22 27.25,-12.05 28.63,-9.81c0.35,0.55 0.08,1.34 -0.58,1.75c-0.67,0.41 2.52,0.7 7.09,0.64c7.15,-0.1 8.35,0.13 8.65,1.63c0.29,1.44 -2.39,7.42 -8.79,19.65c-0.47,0.89 -2.45,4.89 -4.41,8.91c-1.96,4.01 -5.57,9.86 -8.04,13c-12.49,15.9 -18.56,25.11 -18.52,28.13c0.02,1.41 0.7,3.46 1.52,4.54c1.37,1.81 2.16,4.21 3.9,11.91l0.66,2.89l8.44,-0.69c6.65,-0.54 8.45,-0.41 8.45,0.63c0,0.72 -0.95,1.9 -2.12,2.63c-1.25,0.78 -1.75,1.69 -1.22,2.22c1.08,1.08 7.29,-0.49 12.55,-3.17c2.04,-1.04 5.64,-1.9 8,-1.9c2.78,-0.01 3.81,-0.32 2.94,-0.88c-2.5,-1.58 0.47,-4.65 7.31,-7.55c6.23,-2.65 6.86,-3.25 12.23,-11.43c3.11,-4.75 7.37,-10.6 9.47,-13.01c7.79,-8.94 12.47,-23.61 11.5,-36.12c-0.88,-11.38 -4.46,-20.19 -14.27,-35.21c-9.03,-13.82 -19.05,-22.87 -33.43,-30.17c-13.6,-6.91 -23.86,-8.03 -42.46,-4.62m-355,5.09c-12.12,4.25 -27.91,11.61 -32.83,15.31c-1.75,1.31 -7.67,4.74 -13.17,7.63c-12.65,6.64 -19.04,10.95 -34,22.97c-6.6,5.3 -13.58,10.73 -15.5,12.06c-6.16,4.25 -18.06,15.05 -32.76,29.75c-4.62,4.61 -19.52,22.98 -21.22,26.15c-0.56,1.06 -5.02,6.49 -9.91,12.08c-4.88,5.58 -10.13,12.7 -11.65,15.81c-1.52,3.11 -4.59,8.11 -6.81,11.12c-7.59,10.28 -13.31,19.52 -17.33,28.03c-4.6,9.74 -5.67,13.19 -7.78,25c-0.83,4.67 -2.19,12.26 -3.03,16.86c-1.91,10.55 -1.9,14.86 0.06,25.28c2.38,12.67 8.33,24.28 18.87,36.86c10.03,11.95 27.68,29.82 34.99,35.39c12.33,9.42 35.39,17.77 56.09,20.31c12.34,1.52 14.41,1.52 26.23,0.06c14.46,-1.8 22.52,-4.04 36.18,-10.06c13.97,-6.16 26.72,-16.13 47.44,-37.11c17.35,-17.56 21.4,-22.15 20.43,-23.12c-0.4,-0.4 -5.87,5.01 -32.3,31.97c-7.55,7.7 -25.86,20.54 -27.27,19.12c-0.71,-0.7 -0.79,-0.63 8.77,-8.51c4.13,-3.41 13.8,-12.35 21.5,-19.88c7.7,-7.53 17.02,-16.31 20.7,-19.51c5.82,-5.05 7.71,-6.19 10.93,-6.58c2.67,-0.33 17.53,-19.48 22.03,-28.4c1.64,-3.25 4.79,-7.77 6.99,-10.04c2.21,-2.28 4.87,-5.8 5.92,-7.82c1.05,-2.03 2.32,-3.94 2.84,-4.26c0.51,-0.32 1.23,-1.93 1.59,-3.58c0.37,-1.65 1.47,-3.43 2.45,-3.95c0.98,-0.53 2.06,-2.32 2.39,-3.99c0.33,-1.66 2.42,-4.99 4.63,-7.4c2.77,-2.99 4.03,-5.27 4.03,-7.25c0,-2.17 1.07,-3.8 4.32,-6.57c2.64,-2.25 4.82,-5.21 5.61,-7.62c0.72,-2.17 3.24,-6.52 5.6,-9.68c2.36,-3.15 4.8,-7.75 5.42,-10.22c0.62,-2.47 2.85,-6.81 4.96,-9.64c5.03,-6.75 5.63,-7.98 10.21,-20.99c4.38,-12.45 4.42,-12.67 2.44,-12.67c-2.87,0 -2.68,-2.17 0.46,-5.17c7.29,-6.96 12.18,-25.91 9.9,-38.34c-3.08,-16.79 -28.36,-43.42 -42.55,-44.81c-5.99,-0.59 -9.17,-2.08 -16.11,-7.57c-10.03,-7.93 -21.75,-11.03 -28.03,-7.43c-2.76,1.58 -3.28,1.58 -8.83,-0.12c-10.95,-3.33 -13.78,-3.04 -15.75,1.67c-0.39,0.93 -0.83,0.8 -1.63,-0.46c-0.81,-1.27 -1.56,-1.48 -2.81,-0.8c-1.89,1.03 -13.48,3.05 -14.1,2.45c-1.61,-1.53 8.21,-6.66 16.88,-8.81c9.65,-2.39 4.21,-7.7 -7.69,-7.49c-5.11,0.08 -9.53,1.07 -17.8,3.97m-305,9.86c-3.3,0.57 -9.82,1.52 -14.5,2.11c-7.15,0.9 -36.46,7.74 -57,13.31c-6.54,1.77 -30.17,10.06 -34.65,12.16c-1.73,0.81 -3.42,1.47 -3.75,1.47c-0.32,0 -4.08,1.63 -8.35,3.63c-4.26,1.99 -11.57,5.14 -16.25,6.99c-15.16,6.02 -28.46,16.44 -32.81,25.71c-3.65,7.76 -4.24,12.34 -2.58,20.17c2.93,13.86 3.27,16.09 3.33,21.71c0.12,11.78 6.8,23.77 20.22,36.33c7.5,7.01 14.17,11.57 25.84,17.67c4.68,2.45 10.31,5.59 12.53,6.99c6.95,4.39 54.91,27.8 56.95,27.8c1.41,0 14.22,6.24 21.02,10.24c12.64,7.44 14.48,9.92 11.58,15.59c-2.25,4.42 -14.57,16.28 -23.59,22.71c-6.88,4.92 -22.28,13.42 -24.34,13.44c-0.75,0.01 -5.25,1.86 -10,4.1c-16.01,7.56 -24.23,9.88 -47.83,13.49c-15.89,2.44 -33.24,1.07 -45.14,-3.54c-4.58,-1.78 -8.56,-3.86 -8.86,-4.64c-1.19,-3.09 0.92,-8.69 4.87,-12.98c2.24,-2.42 3.59,-4.41 3.02,-4.41c-0.57,0 -1.22,0.53 -1.44,1.18c-0.46,1.38 -2.77,0.21 -2.77,-1.41c0,-0.61 2.79,-3.82 6.2,-7.12c6.47,-6.28 6.55,-7.83 0.27,-5.2c-4.39,1.83 -8.07,2 -9.06,0.41c-0.41,-0.67 1.62,-3.28 4.94,-6.35c6.34,-5.85 6.98,-8.27 3.19,-12.05c-2.97,-2.98 -5.44,-3.06 -13.7,-0.47c-10.11,3.17 -16.03,2.45 -10.59,-1.29c2.18,-1.5 2.11,-1.55 -2.14,-1.38c-6.53,0.27 -6.29,-1.83 0.56,-4.83c8.11,-3.56 8.83,-4.02 8.83,-5.6c0,-2.27 -7.54,-5.28 -14.31,-5.72c-5.69,-0.37 -7.03,-0.05 -13.5,3.19c-11.64,5.84 -18.33,11.34 -21.28,17.48c-5.21,10.89 -1.9,27.68 10.26,51.99c4.22,8.43 9.23,17.43 11.14,20c20.21,27.16 61.88,50.56 98.16,55.11c16.29,2.04 25.55,1.18 40.53,-3.79c3.3,-1.09 9.6,-2.96 14,-4.16c23.01,-6.25 36.57,-11.95 62.5,-26.25c33.25,-18.35 39.16,-22.41 44.01,-30.25c2.39,-3.87 6.21,-16.33 5.4,-17.63c-0.29,-0.48 -1.18,-0.86 -1.97,-0.86c-1.89,0 -1.87,-4.05 0.03,-6.56c1.99,-2.64 1.88,-7.13 -0.5,-18.94c-2.36,-11.7 -3.99,-16.35 -9.25,-26.36c-11.76,-22.34 -27,-41.62 -43.28,-54.71c-13.4,-10.78 -23.81,-17 -51.94,-31.02c-13.75,-6.86 -25.76,-13.37 -26.7,-14.49c-3.3,-3.93 -3.15,-4.03 26.13,-17.63c7.72,-3.58 28.39,-11.65 36.07,-14.07c12.02,-3.8 26.48,-8.05 29,-8.54c1.38,-0.26 9.02,-1.85 17,-3.53c19.3,-4.06 30.09,-5.45 33.17,-4.27c2.81,1.06 4.39,5.31 5.43,14.62c1.08,9.65 1.33,9.87 10.04,9.08c4.09,-0.37 8.09,-0.92 8.9,-1.23c0.96,-0.37 1.46,0.08 1.46,1.32c0,1.32 -1.27,2.34 -4.18,3.36c-4.41,1.55 -6.3,3.97 -3.1,3.97c2.03,0 13.76,-3.68 29.99,-9.4c11.15,-3.94 14.29,-4.4 14.29,-2.1c0,4.76 10.26,-3.71 14.4,-11.88c2.13,-4.21 2.68,-6.41 2.21,-8.86c-0.34,-1.79 -1.03,-6.19 -1.54,-9.76c-1.23,-8.7 -1.88,-10.58 -8.38,-24.23c-10.5,-22.08 -20.19,-28.67 -47.49,-32.31c-13.04,-1.73 -38.23,-1.68 -59.2,0.12m646.5,0.9c-11.89,2.15 -20.92,5.43 -19.32,7.03c0.46,0.46 4.77,-0.48 24.24,-5.32c2.55,-0.63 5.14,-3.37 2.91,-3.08c-0.45,0.06 -3.98,0.67 -7.83,1.37m221.56,2.63c-2.44,1.08 -6.94,4.04 -10,6.58c-7.55,6.25 -22.3,21.39 -28.32,29.04c-2.7,3.45 -5.28,6.27 -5.72,6.27c-1.81,0 -11.43,9.72 -15.25,15.4c-2.25,3.36 -7.11,9.93 -10.79,14.6c-3.69,4.67 -9.07,12.33 -11.96,17c-2.89,4.67 -6.72,10.75 -8.52,13.5c-1.8,2.75 -5.47,9.5 -8.17,15c-2.69,5.5 -7.18,12.92 -9.98,16.5c-2.8,3.58 -6.54,9.42 -8.31,13c-5.97,12.02 -7.41,14.48 -11.36,19.5c-3.5,4.44 -11.68,19.55 -11.68,21.58c0,1.4 -8.99,20.46 -14.11,29.92c-0.45,0.83 -2.66,6.23 -4.91,12c-2.25,5.77 -6.32,14.38 -9.04,19.13c-6.54,11.41 -6.59,14.4 -0.44,22.76c4.73,6.43 5.9,7.03 9.06,4.64c2.55,-1.92 6.12,-1.92 7.2,0.01c0.47,0.84 2.18,1.88 3.8,2.32c3.31,0.88 5.4,4.19 5.44,8.64c0.04,3.8 0.62,4.65 5.39,7.87c6.32,4.27 11.84,3.48 18.29,-2.62c2.54,-2.41 3.71,-2.87 5.88,-2.32c2.59,0.65 2.68,0.89 2.13,5.55c-0.69,5.82 0.69,7.53 5.24,6.53c3.73,-0.81 10.88,-9.6 17.1,-21.01c6.92,-12.69 24.3,-41.55 31,-51.5c2.04,-3.02 4.84,-7.52 6.22,-10c6.95,-12.46 13.81,-23.46 30.25,-48.54c6.6,-10.07 13.94,-21.38 16.32,-25.13c2.37,-3.76 5.85,-8.85 7.72,-11.33c1.87,-2.48 4.98,-7.2 6.9,-10.5c4.78,-8.18 12.27,-17.5 14.08,-17.5c2.64,0 1.59,2.91 -3.91,10.78c-2.96,4.25 -8.78,13.4 -12.93,20.35c-4.14,6.94 -9.74,15.94 -12.44,20c-7.97,11.97 -20.39,32.1 -24.31,39.37c-1.19,2.2 -4.66,7.83 -7.71,12.5c-7.31,11.2 -9.22,14.25 -13.76,22c-2.09,3.58 -5.24,8.75 -7,11.5c-15.02,23.47 -28.46,46.71 -28.46,49.21c0,3.08 2.55,0.36 6.33,-6.78c5.02,-9.46 9.14,-16.34 22.44,-37.53c5.9,-9.4 13.88,-22.38 17.73,-28.83c3.85,-6.45 8.44,-13.83 10.2,-16.4c13.37,-19.54 19.35,-28.67 23.22,-35.49c0.99,-1.75 3.44,-5.96 5.44,-9.35c2,-3.39 3.65,-6.54 3.66,-7c0,-0.46 1.79,-2.85 3.95,-5.33c2.17,-2.48 6.04,-8.1 8.61,-12.5c2.56,-4.4 7.38,-12.5 10.72,-18c8.03,-13.27 10.35,-17.5 11.21,-20.5c0.68,-2.36 0.53,-2.32 -2.86,0.91c-2.91,2.78 -3.7,3.12 -4.19,1.84c-1.5,-3.91 4.15,-9.53 8.6,-8.56c2.33,0.5 12.11,-20.33 14.89,-31.71c2.67,-10.9 2.4,-12.12 -2.98,-13.86l-3.47,-1.12l-0.54,-9.5c-0.72,-12.56 -1.61,-14.44 -7.91,-16.68c-2.78,-0.98 -5.05,-2.36 -5.05,-3.06c0,-0.83 -1.54,-1.26 -4.53,-1.26c-5.39,0 -7.23,-2.42 -3.64,-4.8c1.19,-0.79 2.17,-2.29 2.17,-3.32c0,-1.03 -0.12,-1.88 -0.26,-1.88c-0.15,0 -2.73,-0.9 -5.74,-2c-6.92,-2.53 -15.09,-2.49 -20.94,0.11m-221.73,3.7c-4.26,1.73 -6.42,3.19 -4.71,3.19c2.13,0 12.95,-3.17 13.83,-4.05c1.58,-1.57 -4.56,-1 -9.12,0.86m-619.83,8.82c-1.65,0.18 -8.85,0.82 -16,1.43c-22.97,1.96 -74.33,12.52 -77.95,16.02c-1.39,1.35 -0.48,1.23 16.03,-2.02c21.73,-4.28 42.91,-7.83 50.92,-8.53c47.23,-4.14 53.54,-4.79 54,-5.53c0.92,-1.48 -17.44,-2.41 -27,-1.37m297.25,7.88c-3.16,2.49 -5.75,4.96 -5.75,5.5c0,0.54 -3.33,3.44 -7.4,6.45c-7.98,5.9 -11.6,9.81 -11.6,12.52c0,1.93 -3.02,5.02 -4.9,5.02c-3.04,0 -10.46,5.78 -21.05,16.43c-11.42,11.48 -13.41,14.75 -6.47,10.65c2.02,-1.19 3.85,-1.98 4.07,-1.76c0.63,0.63 -16.4,19.36 -18.37,20.2c-0.98,0.42 -2.59,0.85 -3.58,0.96c-0.99,0.1 -2.57,1 -3.5,1.98c-1.62,1.7 -1.56,1.76 1.17,1.11l2.88,-0.67l-4.83,6.8c-2.66,3.74 -9.58,13.36 -15.38,21.38c-5.79,8.01 -11.66,16.53 -13.04,18.92c-3.16,5.5 -6.96,9.28 -11.47,11.42c-3.77,1.79 -4.6,4.45 -2.04,6.57c1.3,1.08 1.08,1.76 -1.62,5.18c-1.72,2.17 -4.57,8.08 -6.33,13.13c-1.76,5.06 -4.81,13.03 -6.79,17.7c-1.97,4.67 -3.9,9.63 -4.29,11c-0.39,1.38 -1.04,2.95 -1.45,3.5c-0.41,0.55 -1.33,2.8 -2.03,5c-0.71,2.2 -3.41,8.5 -6,14c-6.5,13.79 -7.25,16.53 -6.82,25.03c0.52,10.32 2.59,12.99 9.97,12.91c3.11,-0.03 7.26,-0.9 9.87,-2.07c2.48,-1.11 6.52,-2.87 9,-3.91c13.39,-5.63 35.37,-22.12 43.41,-32.57c2.7,-3.52 9.07,-10.44 14.14,-15.39c5.08,-4.95 10.52,-11.02 12.09,-13.5c1.57,-2.48 4.73,-6.83 7.02,-9.68c2.29,-2.85 5.88,-8.25 7.97,-12c6.02,-10.82 12.67,-21.4 16.83,-26.82c3.88,-5.06 7.48,-11.9 7.52,-14.31c0.02,-1.18 1.93,-5.72 6.83,-16.19c0.9,-1.92 3.38,-6.65 5.52,-10.5c3.66,-6.61 9.66,-20.1 9.67,-21.76c0,-0.42 0.87,-2.67 1.92,-5c8,-17.62 14.87,-42.13 15.77,-56.24c0.47,-7.26 -1.87,-11.84 -7.18,-14.06c-5.4,-2.26 -7.6,-1.76 -13.76,3.07m-308.25,0.94c-17.47,1.96 -50.98,8.13 -56.5,10.4l-2.5,1.02l3,0.01c1.65,0 5.25,-0.42 8,-0.93c8.4,-1.55 40.15,-5.97 55.78,-7.76c8.13,-0.93 14.88,-2.14 15,-2.69c0.32,-1.45 -10.06,-1.48 -22.78,-0.05m638,1c-9.65,3.64 -13.5,5.51 -13.5,6.56c0,1.31 0.33,1.27 8.5,-0.93c12.68,-3.41 18.84,-5.6 19.26,-6.85c0.67,-2.01 -7.54,-1.3 -14.26,1.22m-618.5,21.58c-2.48,0.44 -9.58,1.3 -15.8,1.91c-10.83,1.07 -26.01,3.8 -44.2,7.96c-17.32,3.96 -45.22,13.28 -49.56,16.57c-1.89,1.43 -1.88,1.47 0.32,1.5c1.25,0.02 3.05,-0.4 4,-0.93c2.83,-1.57 25.58,-7.69 47.74,-12.84c10.18,-2.36 38.45,-6.8 49,-7.69c12.36,-1.03 27.93,-2.63 30.25,-3.1c2.59,-0.52 3.01,-2.91 0.67,-3.8c-2.17,-0.83 -16.91,-0.55 -22.42,0.42m-9.5,14.15c-48.14,8.68 -72.72,15.3 -98.15,26.44c-1.73,0.76 -3.41,1.38 -3.72,1.38c-0.32,0 -3.17,1.19 -6.35,2.63c-3.18,1.45 -8.71,3.96 -12.28,5.58c-6.96,3.15 -12.98,6.85 -12.99,7.99c-0.01,1.02 8.94,-2.3 21.99,-8.16c30.05,-13.5 60.53,-22.98 98,-30.49c6.34,-1.27 26.88,-4.55 28.49,-4.55c0.28,0 0.51,-0.45 0.51,-1c0,-1.19 -8.45,-1.09 -15.5,0.18m-159,1.25c-3.54,1.6 -7.43,4.51 -6,4.49c1.67,-0.03 12.11,-5.82 10.5,-5.83c-0.82,-0.01 -2.85,0.6 -4.5,1.34m938.75,66.27c-0.67,1.22 -0.85,2.43 -0.41,2.7c0.9,0.56 8.53,-10.68 9.6,-14.15c0.75,-2.42 0.62,-2.62 -0.97,-1.49m-64.47,110.11c0,2.17 2.49,-0.32 5.54,-5.53c2.78,-4.75 2.86,-6.13 0.22,-4.08m-195.76,115.86c0,4.05 28.75,-12.42 51.5,-29.51c6.6,-4.96 12.55,-9.49 13.22,-10.06c0.66,-0.58 1.8,-1.5 2.53,-2.05c2.58,-1.95 18.35,-16.05 24.6,-21.98c11.1,-10.54 14.25,-17.07 3.51,-7.28m-44.49,7.45c-7.36,5.32 -20.36,14.21 -28.9,19.75c-20.03,12.97 -19.22,12.46 -20.97,13.24c-1.34,0.6 -10.13,5.76 -15.5,9.09c-1.1,0.69 -3.01,1.76 -4.25,2.4c-3.78,1.94 -2.5,2.83 1.85,1.3c6.7,-2.37 26.03,-12.25 31.26,-15.99c2.68,-1.92 5.34,-3.48 5.91,-3.48c2.03,0 -2.22,3.55 -7.67,6.4c-5.5,2.88 -10.42,7.12 -9.42,8.12c1.47,1.46 31.84,-17.72 46.32,-29.25c13.52,-10.77 15.02,-12.08 14.45,-12.66c-0.59,-0.58 -11.28,6.54 -22.07,14.72c-6.81,5.15 -13.89,9.21 -13.86,7.94c0.01,-0.42 3.91,-3.69 8.67,-7.27c4.76,-3.58 9.14,-6.99 9.74,-7.58c0.6,-0.6 4.31,-3.38 8.24,-6.19c8.58,-6.11 11.33,-8.41 11.33,-9.45c0,-1.74 -2.35,-0.36 -15.13,8.91m-372.72,-2.44c-1.34,1.34 -10.16,6.93 -22.18,14.06c-4.15,2.46 -8.14,5.19 -8.88,6.08c-2.5,3.02 3.2,1.85 11.54,-2.36c7.67,-3.87 24.37,-16.29 24.37,-18.12c0,-1.34 -3.4,-1.11 -4.85,0.34m-1.08,11.2c-4.49,2.99 -10.39,6.81 -13.11,8.48c-2.73,1.68 -4.96,3.75 -4.96,4.61c0,1.2 1.8,0.62 7.75,-2.5c4.26,-2.23 9.17,-5.31 10.9,-6.84c1.74,-1.54 4.63,-3.93 6.44,-5.32c1.95,-1.51 2.84,-2.8 2.21,-3.2c-0.59,-0.36 -4.74,1.79 -9.23,4.77m38.3,3.26c-2.68,2.02 -5.1,3.97 -5.37,4.33c-0.89,1.16 -19.3,14.44 -26.6,19.19c-7.55,4.91 -10.4,7.33 -10.4,8.84c0,1.91 4.16,0.81 11.72,-3.1c9.48,-4.92 12.73,-7.49 26.65,-21.09c10.94,-10.68 13.05,-15 4,-8.17m-347.87,-0.52c-1.65,0.56 -6.82,2.53 -11.5,4.36c-4.68,1.84 -16.08,5.62 -25.35,8.41c-9.27,2.79 -17.82,5.63 -19,6.3c-2.09,1.19 -2.08,1.24 0.73,1.56c8.14,0.95 31.83,-6.12 49.32,-14.72c12.07,-5.94 15.22,-9.15 5.8,-5.91m-17,16.72c-19.75,6.71 -20.5,7.01 -20.5,8.2c0,1.09 -0.56,1.1 6.57,-0.17c10.65,-1.91 26.25,-7.93 31.93,-12.33c3.4,-2.63 -0.01,-1.82 -18,4.3m88.38,15.94c-5.29,3.09 -16.78,10.33 -18.8,11.84c-0.23,0.17 -0.19,0.54 0.1,0.82c1.28,1.29 25.82,-13.48 25.82,-15.55c0,-1.32 0.25,-1.42 -7.12,2.89m-57.38,4.59c-6.6,2.37 -16.72,5.76 -22.5,7.54c-21.02,6.47 -23.52,7.3 -24.75,8.28c-7.17,5.67 16.09,2.28 36.75,-5.37c4.68,-1.73 10.13,-3.74 12.13,-4.47c6.92,-2.53 15.87,-7.91 15.87,-9.54c0,-1.81 -5.86,-0.62 -17.5,3.56m22,15.49c-3.3,1.6 -5.19,2.95 -4.21,2.99c2.04,0.09 9.26,-3.38 10.2,-4.91c0.87,-1.4 0.75,-1.37 -5.99,1.92m-26,8.52c-4.56,1.17 -12.79,4.42 -11.43,4.51c2.05,0.14 12.29,-2.3 16.44,-3.92c5.86,-2.29 2.94,-2.63 -5.01,-0.59" fill="black" fill-rule="evenodd" id="SvgjsPath1000"></path>
 </g>
</svg><style>@media (prefers-color-scheme: light) { :root { filter: none; } }
@media (prefers-color-scheme: dark) { :root { filter: invert(100%); } }
</style></svg>