<?xml version="1.0" encoding="UTF-8"?>
<svg version="1.1" xmlns="http://www.w3.org/2000/svg" width="1600" height="1044">
<path d="M0 0 C173.91 0 347.82 0 527 0 C518.83902236 39.63903425 518.83902236 39.63903425 516.21875 51.34155273 C515.73028774 53.5256405 515.24784445 55.71101055 514.765625 57.89648438 C514.44304938 59.34643008 514.12014705 60.79630316 513.796875 62.24609375 C513.52198242 63.48029053 513.24708984 64.7144873 512.96386719 65.98608398 C511.75527569 71.01912676 510.36192713 76.00626718 509 81 C464.78 80.67 420.56 80.34 375 80 C374.67 82.97 374.34 85.94 374 89 C373.50275711 91.75090775 372.98176857 94.47738437 372.40625 97.2109375 C372.17887146 98.31316147 372.17887146 98.31316147 371.94689941 99.43765259 C371.62946514 100.97234721 371.3100725 102.50663801 370.98876953 104.04052734 C370.49699299 106.38936214 370.01169051 108.73946677 369.52734375 111.08984375 C369.21651979 112.58861927 368.90533493 114.08732 368.59375 115.5859375 C368.37652283 116.63592422 368.37652283 116.63592422 368.15490723 117.7071228 C367.56024721 120.53797233 366.91582022 123.25253935 366 126 C387.87070122 126.76006124 409.74457642 127.20346166 431.625 127.5625 C432.63960989 127.5791527 432.63960989 127.5791527 433.67471695 127.59614182 C442.11642128 127.7343615 450.55818228 127.86888723 459 128 C456.04743477 144.71452577 453.02869134 161.41320216 449.83251953 178.08300781 C449.23254596 181.21614725 448.63772222 184.3502409 448.04296875 187.484375 C447.65915891 189.49224578 447.27505675 191.5000607 446.890625 193.5078125 C446.71460754 194.43772003 446.53859009 195.36762756 446.35723877 196.32571411 C446.19326599 197.17616302 446.02929321 198.02661194 445.86035156 198.90283203 C445.64647797 200.02191452 445.64647797 200.02191452 445.42828369 201.16360474 C445 203 445 203 444 205 C412.32 204.67 380.64 204.34 348 204 C346.02 215.88 344.04 227.76 342 240 C341.34 243.3 340.68 246.6 340 250 C388.84 250 437.68 250 488 250 C486.68 245.71 485.36 241.42 484 237 C483.38550025 234.44947014 482.81147305 231.88812389 482.3125 229.3125 C482.08175781 228.15363281 481.85101562 226.99476563 481.61328125 225.80078125 C478.28911328 205.19940903 478.69213515 183.41147776 483 163 C483.16628906 162.19336914 483.33257813 161.38673828 483.50390625 160.55566406 C494.39943964 109.20541875 526.44658112 64.84347058 570 36 C604.70713934 13.69622708 645.06974773 1.22666528 686.32421875 0.37890625 C687.10131384 0.36034639 687.87840893 0.34178654 688.67905235 0.32266426 C709.99969368 -0.1860723 731.32670712 -0.11487154 752.65185547 -0.06866455 C758.0172484 -0.05819984 763.38264656 -0.05381884 768.74804688 -0.04882812 C779.16537761 -0.03829065 789.58268621 -0.02136095 800 0 C798.58902773 3.59228612 797.02906765 6.96689013 795.19921875 10.3671875 C794.64113525 11.40536621 794.08305176 12.44354492 793.50805664 13.51318359 C792.6068811 15.17728271 792.6068811 15.17728271 791.6875 16.875 C790.74861938 18.61450928 790.74861938 18.61450928 789.79077148 20.38916016 C785.29468191 28.69930628 780.73215292 36.97339314 775.94995117 45.12304688 C772.82309731 50.51033895 770.09124098 55.93026501 767.58984375 61.625 C759.43389069 79.84136781 759.43389069 79.84136781 753.94628906 83.29101562 C748.89699746 84.7893355 743.82274624 83.8839697 738.67773438 83.27587891 C731.48166759 82.73607836 724.28129499 83.28871114 717.08538818 83.67596436 C714.45191998 83.80862516 711.81935659 83.9059511 709.18408203 83.99462891 C677.9996353 85.19730717 648.76116261 95.75870043 627 119 C616.03948459 132.63780185 609.47819841 147.9643078 606 165 C605.80792969 165.9384375 605.61585938 166.876875 605.41796875 167.84375 C603.0218959 185.93745898 604.91327202 203.97727752 616 219 C628.02237376 233.27893919 642.47198298 239.93602124 660.765625 242.06640625 C661.49426254 242.15139374 662.22290009 242.23638123 662.97361755 242.32394409 C671.6524201 243.26798229 680.34059852 243.45459142 689.0625 243.625 C690.71941808 243.66333278 692.37631952 243.70239228 694.03320312 243.7421875 C698.02199445 243.83645362 702.0108772 243.92105831 706 244 C706.26321045 243.2992334 706.5264209 242.5984668 706.79760742 241.87646484 C708.0929551 238.77762499 709.61142887 235.91502628 711.23828125 232.9765625 C711.71349213 232.11584137 711.71349213 232.11584137 712.19830322 231.23773193 C713.23337619 229.36514684 714.27280369 227.4950215 715.3125 225.625 C716.03976947 224.31208777 716.76690002 222.99909858 717.49389648 221.68603516 C722.32805123 212.96477296 727.21517772 204.27409728 732.13623047 195.6015625 C736.27730684 188.29841768 740.3656143 180.96692313 744.4375 173.625 C751.01602 161.7634224 757.63218438 149.92343593 764.26611328 138.09277344 C767.1793914 132.89629255 770.08952827 127.69805304 773 122.5 C774.1666518 120.41665834 775.33331846 118.33332501 776.5 116.25 C777.0775 115.21875 777.655 114.1875 778.25 113.125 C783.49999999 103.75000002 783.49999999 103.75000002 785.24975586 100.62548828 C786.41729579 98.54056064 787.58477619 96.45559966 788.75219727 94.37060547 C791.65501752 89.18639101 794.55884467 84.00274583 797.46484375 78.8203125 C803.52060153 68.01796569 809.5558358 57.20473025 815.5625 46.375 C820.36899353 37.71396048 825.19508199 29.06446674 830.0625 20.4375 C830.57433838 19.5285498 831.08617676 18.61959961 831.61352539 17.68310547 C832.10328857 16.8170166 832.59305176 15.95092773 833.09765625 15.05859375 C833.51539307 14.31923584 833.93312988 13.57987793 834.36352539 12.81811523 C834.90356201 11.88813721 835.44359863 10.95815918 836 10 C836.44057661 8.80071633 836.44057661 8.80071633 836.89005375 7.5772047 C838.26753684 4.43818728 839.51828312 2.38504869 842 0 C847.48307525 -1.50935022 852.92862508 -1.26528352 858.56201172 -1.13525391 C860.26730686 -1.13243182 861.97261414 -1.13401915 863.67790222 -1.13967896 C868.30036809 -1.1425462 872.92023458 -1.08379713 877.54209661 -1.01393938 C882.37461983 -0.95138736 887.20720399 -0.94554921 892.04006958 -0.9336853 C901.18838841 -0.90261467 910.33551096 -0.82056993 919.48330319 -0.72019041 C929.89903612 -0.60838096 940.31482646 -0.55342545 950.7310102 -0.50323606 C972.15467429 -0.3987348 993.57726176 -0.22286549 1015 0 C1017.8846296 17.57447741 1020.5120329 35.17766762 1023.01170754 52.81070256 C1023.50988433 56.32109809 1024.01072921 59.83111307 1024.51127625 63.34117126 C1025.4606783 70.00133162 1026.40806355 76.66177696 1027.35455245 83.32235187 C1029.33347536 97.24790194 1031.31673293 111.17283561 1033.30078125 125.09765625 C1033.40223528 125.8097791 1033.50368932 126.52190194 1033.60821772 127.25560427 C1038.91842206 164.52665664 1044.29074779 201.78769504 1050 239 C1052.68784528 226.31257313 1055.37530173 213.62506392 1058.0625 200.9375 C1058.26551224 199.97899014 1058.46852448 199.02048027 1058.6776886 198.03292465 C1063.91900476 173.28603415 1069.15647182 148.53833967 1074.38253021 123.78822231 C1076.3455683 114.4915552 1078.30991709 105.195165 1080.2744751 95.89881897 C1080.57377265 94.48251374 1080.87306871 93.0662082 1081.17236328 91.64990234 C1081.32110397 90.94604495 1081.46984467 90.24218756 1081.62309265 89.51700115 C1082.72960688 84.28049788 1083.83533865 79.04382964 1084.94091797 73.80712891 C1086.39238763 66.93233249 1087.84541725 60.05786751 1089.30010414 53.18375111 C1090.0593345 49.59582266 1090.81795348 46.00776803 1091.5748291 42.41934204 C1092.40581931 38.47962763 1093.23990481 34.54057439 1094.07421875 30.6015625 C1094.31212631 29.47132156 1094.55003387 28.34108063 1094.79515076 27.17658997 C1096.15107416 20.78887432 1097.59067514 14.425489 1099.09382629 8.07113647 C1099.27783446 7.29127475 1099.46184262 6.51141302 1099.65142679 5.70791912 C1100.10045599 3.80516248 1100.55015803 1.90256465 1101 0 C1129.75646364 -0.06859053 1158.51291754 -0.12160757 1187.26944702 -0.15319599 C1190.67238865 -0.15694764 1194.0753301 -0.16083066 1197.47827148 -0.16479492 C1198.15567238 -0.16558185 1198.83307327 -0.16636878 1199.53100146 -0.16717956 C1210.46737149 -0.18019675 1221.40369372 -0.20383002 1232.34003549 -0.23145839 C1243.58034648 -0.25961566 1254.82063379 -0.27597373 1266.06098181 -0.28226548 C1272.36667503 -0.28616268 1278.67226018 -0.29526651 1284.97791862 -0.31719017 C1290.92453239 -0.33769613 1296.87099454 -0.34380549 1302.8176403 -0.33932304 C1304.98907294 -0.34014197 1307.16051115 -0.34602286 1309.33191299 -0.35761642 C1337.05492004 -0.49825635 1362.58223183 4.15009357 1383.18359375 24.1875 C1384.11300781 25.115625 1385.04242187 26.04375 1386 27 C1386.81597656 27.804375 1387.63195313 28.60875 1388.47265625 29.4375 C1403.40380994 45.00892615 1409.67906072 64.96199253 1410.25 86.1875 C1410.20073645 88.12616547 1410.11110742 90.06389416 1410 92 C1409.9383667 93.07580322 1409.9383667 93.07580322 1409.87548828 94.17333984 C1407.29201968 135.28598239 1391.15009602 170.61297747 1361.0625 198.75 C1355.40163316 203.68858718 1349.31187132 207.94811505 1343 212 C1341.94296875 212.680625 1340.8859375 213.36125 1339.796875 214.0625 C1325.30912201 222.85127906 1308.6668295 228.93879019 1292 232 C1291.12849808 232.165 1290.25699615 232.33 1289.35908508 232.5 C1277.78198584 234.42326526 1266.24572184 234.35185982 1254.5390625 234.4140625 C1252.29461989 234.43280627 1250.05018409 234.45238198 1247.80575562 234.4727478 C1241.94352257 234.52373626 1236.08126677 234.56353865 1230.21893311 234.60089111 C1224.21881636 234.6411412 1218.21879158 234.69213696 1212.21875 234.7421875 C1200.47923158 234.83855188 1188.73966083 234.92308112 1177 235 C1176.94205387 235.64672543 1176.88410774 236.29345085 1176.82440567 236.95977402 C1176.3634707 241.86415367 1175.79039891 246.65157066 1174.77246094 251.47753906 C1174.52840515 252.64706116 1174.28434937 253.81658325 1174.03289795 255.02154541 C1173.63762909 256.87486481 1173.63762909 256.87486481 1173.234375 258.765625 C1172.95590936 260.08859789 1172.67786277 261.41165904 1172.40020752 262.73480225 C1171.81835343 265.50227591 1171.23308899 268.26899675 1170.64501953 271.03515625 C1169.90652603 274.50906022 1169.17398347 277.98418076 1168.44381332 281.45984268 C1167.7304303 284.85391496 1167.0136669 288.24727135 1166.296875 291.640625 C1165.91375153 293.45750824 1165.91375153 293.45750824 1165.52288818 295.31109619 C1163.12944054 306.56986039 1160.5518547 317.77183932 1158 329 C1087.05 329 1016.1 329 943 329 C939.37 297.65 935.74 266.3 932 234 C919.79 233.979375 907.58 233.95875 895 233.9375 C891.21917969 233.928396 887.43835937 233.91929199 883.54296875 233.90991211 C863.00806754 233.88203292 842.51961367 234.18522325 822 235 C809.24318951 261.2117018 809.24318951 261.2117018 796.62890625 287.4921875 C794.70783126 291.52240448 792.77638358 295.54750339 790.83984375 299.5703125 C790.036073 301.2406958 790.036073 301.2406958 789.21606445 302.94482422 C788.19337801 305.06928779 787.16984811 307.19334566 786.14526367 309.31689453 C785.67709229 310.28997559 785.2089209 311.26305664 784.7265625 312.265625 C784.32002441 313.10899414 783.91348633 313.95236328 783.49462891 314.82128906 C782.10801807 317.77027193 780.75358901 320.73143254 779.40658569 323.69866943 C778.73072198 325.18705133 778.73072198 325.18705133 778.04120445 326.70550156 C777.69760698 327.46268604 777.35400951 328.21987053 777 329 C756.63168345 329.07040009 736.26339194 329.12313886 715.89497852 329.15543652 C706.43539653 329.17083829 696.97589057 329.19179815 687.51635742 329.22631836 C679.26160379 329.2564274 671.00690529 329.27562346 662.75209826 329.28226548 C658.39015695 329.28614173 654.02837321 329.29510779 649.66648293 329.31719017 C614.32921991 329.48905858 614.32921991 329.48905858 597 326 C595.89261443 325.78245088 595.89261443 325.78245088 594.76285744 325.56050682 C567.17435331 320.06942555 538.52556308 309.61580955 517 291 C515.21838907 295.05252042 514.20677676 299.13757182 513.30859375 303.453125 C513.158423 304.15395203 513.00825226 304.85477905 512.85353088 305.57684326 C512.37732658 307.80035975 511.90681661 310.02502029 511.4375 312.25 C510.9643581 314.48920225 510.48990001 316.72807708 510.01075745 318.96600342 C509.71334561 320.35525681 509.41941187 321.74526015 509.1292572 323.13604736 C508.11260565 327.88739435 508.11260565 327.88739435 507 329 C505.34753584 329.09717832 503.69088628 329.12371557 502.03556728 329.12304783 C500.41280177 329.1260344 500.41280177 329.1260344 498.75725311 329.12908131 C496.95233142 329.12471205 496.95233142 329.12471205 495.11094666 329.12025452 C493.21081317 329.12153615 493.21081317 329.12153615 491.27229315 329.12284368 C487.74005333 329.12509102 484.20784355 329.12106411 480.67560756 329.11606562 C476.87259028 329.11176472 473.06957482 329.11320729 469.26655579 329.1139679 C462.67221103 329.11449336 456.07787613 329.11134422 449.48353386 329.10573006 C439.94911143 329.09761809 430.41469379 329.09500015 420.88026828 329.09374207 C405.41293331 329.09155107 389.9456036 329.08488969 374.47827148 329.07543945 C359.4493004 329.06626657 344.42033074 329.05918513 329.39135742 329.05493164 C328.46565152 329.05466892 327.53994561 329.05440619 326.58618801 329.05413551 C321.94239657 329.05283051 317.29860511 329.05156679 312.65481365 329.05032361 C274.10320541 329.0399495 235.55160305 329.02232989 197 329 C197.79450336 325.02079951 198.58952236 321.0417022 199.3846283 317.06262207 C199.60763784 315.94566578 199.83064738 314.82870949 200.06041479 313.67790604 C201.85808935 304.6835251 203.6969517 295.69844103 205.56640625 286.71875 C205.88504301 285.18487347 206.20361386 283.65098326 206.52212524 282.11708069 C207.36111859 278.07808962 208.20138515 274.03936456 209.04204941 270.00072098 C209.5706725 267.46073185 210.098938 264.92066858 210.62710571 262.38058472 C216.29615573 235.11848748 222.01261181 207.86665099 227.76144409 180.6212616 C230.69047014 166.73468411 233.60276384 152.84459734 236.51465225 138.95441818 C236.92802179 136.98270959 237.34149684 135.01102311 237.75497437 133.03933716 C239.02547134 126.98079835 240.29494255 120.92204963 241.56201172 114.86279297 C242.53113688 110.23022146 243.50754424 105.59926133 244.48876953 100.96923828 C244.72326309 99.85754776 244.95775665 98.74585724 245.19935608 97.60047913 C245.64083232 95.50755363 246.08458199 93.41510593 246.5309906 91.32322693 C246.72516068 90.40002151 246.91933075 89.4768161 247.11938477 88.52563477 C247.29027115 87.7200563 247.46115753 86.91447784 247.63722229 86.08448792 C248.08572978 83.86004122 248.08572978 83.86004122 248 81 C202.46 81 156.92 81 110 81 C108.74399725 84.76800824 107.72865691 87.87108976 107.05444336 91.67260742 C106.8976561 92.54338425 106.74086884 93.41416107 106.57933044 94.31132507 C106.33703453 95.69442619 106.33703453 95.69442619 106.08984375 97.10546875 C105.83129356 98.54700066 105.83129356 98.54700066 105.56752014 100.01765442 C105.01997038 103.07353566 104.478343 106.13042525 103.9375 109.1875 C103.39230766 112.25513798 102.84582501 115.32253187 102.29676819 118.38948059 C101.95598593 120.29439143 101.61755711 122.19972511 101.28172302 124.10551453 C101.12808792 124.96683487 100.97445282 125.82815521 100.81616211 126.71557617 C100.68229599 127.47247238 100.54842987 128.22936859 100.4105072 129.00920105 C100 131 100 131 99 134 C100.1660376 133.99476318 101.3320752 133.98952637 102.53344727 133.98413086 C135.70072753 133.8495353 168.84069962 134.28677347 202 135 C201.43505693 143.63598162 199.66573387 151.97675379 197.83984375 160.4140625 C197.56563599 161.70143311 197.29142822 162.98880371 197.00891113 164.31518555 C195.99100811 169.08638638 194.96370796 173.85557852 193.9375 178.625 C190.5034375 194.650625 190.5034375 194.650625 187 211 C152.35 211 117.7 211 82 211 C79.525 223.87 79.525 223.87 77 237 C75.4800482 244.4738506 73.94896471 251.94435996 72.390625 259.41015625 C71.97411715 261.41082937 71.55767576 263.41151633 71.14129639 265.41221619 C70.28229637 269.53706968 69.42170703 273.66158765 68.56005859 277.78588867 C67.45431202 283.07982488 66.35400963 288.37487767 65.25494766 293.67020512 C64.40312418 297.77033697 63.54788603 301.86975081 62.69164276 305.96896172 C62.28374208 307.92443121 61.87706304 309.88015594 61.47162628 311.83613777 C60.9107657 314.54003874 60.34517811 317.2429076 59.77832031 319.94555664 C59.61210678 320.7520314 59.44589325 321.55850616 59.27464294 322.38941956 C58.11418164 327.88581836 58.11418164 327.88581836 57 329 C55.3804366 329.09603022 53.75666917 329.12187855 52.13426208 329.12025452 C51.08111816 329.12162918 50.02797424 329.12300385 48.94291687 329.12442017 C47.77766983 329.12082489 46.61242279 329.11722961 45.41186523 329.11352539 C43.58285172 329.11374443 43.58285172 329.11374443 41.71688843 329.1139679 C38.36372489 329.11338893 35.01062226 329.10835968 31.65746951 329.10139394 C28.15674438 329.09515983 24.65601852 329.09455656 21.1552887 329.09336853 C14.52190344 329.09025538 7.88853459 329.08204222 1.25515658 329.07201904 C-6.29490207 329.06085739 -13.84496149 329.05534732 -21.39502633 329.05032361 C-36.93002706 329.03985959 -52.46501142 329.02226047 -68 329 C-67.50405064 323.47655938 -66.93881419 318.05231998 -65.79174805 312.61889648 C-65.54977692 311.45991852 -65.30780579 310.30094055 -65.0585022 309.10684204 C-64.79556366 307.8740451 -64.53262512 306.64124817 -64.26171875 305.37109375 C-63.98199506 304.04097948 -63.70274116 302.71076633 -63.42391968 301.38046265 C-62.67412437 297.80943042 -61.91792106 294.23978316 -61.16054153 290.67035294 C-60.35952283 286.88938058 -59.56472502 283.10710078 -58.76928711 279.32495117 C-57.31008505 272.39087096 -55.8460221 265.45782854 -54.37965679 258.52525997 C-52.8925923 251.49419003 -51.41038033 244.46210201 -49.9296875 237.4296875 C-49.57119469 235.72707512 -49.57119469 235.72707512 -49.20545959 233.99006653 C-48.72879714 231.72614023 -48.25215815 229.462209 -47.77554321 227.19827271 C-47.05492213 223.77651768 -46.33354446 220.3549228 -45.61206055 216.93334961 C-41.70646549 198.40313228 -37.84148555 179.86458383 -33.98366547 161.32437515 C-22.78811297 107.52135247 -11.40360547 53.75985434 0 0 Z M910 59 C897.0274135 84.26809185 884.15369173 109.58357937 871.44551086 134.9855957 C870.49741196 136.88017166 869.54853779 138.7743576 868.5994873 140.66845703 C866.82401382 144.21250602 865.05228723 147.75841931 863.28125 151.3046875 C862.74489929 152.37540497 862.20854858 153.44612244 861.65594482 154.54928589 C861.17200256 155.52028229 860.6880603 156.49127869 860.18945312 157.49169922 C859.55191101 158.76797684 859.55191101 158.76797684 858.90148926 160.07003784 C857.92946511 161.79598432 857.92946511 161.79598432 858 163 C880.00679778 163.66366346 901.98125679 164.16676686 924 164 C923.37030207 152.15343176 921.85408728 140.47651098 920.27734375 128.7265625 C920.0093641 126.70637785 919.7417568 124.68614378 919.47450256 122.66586304 C918.77623143 117.39492937 918.07296434 112.12467446 917.36859131 106.85455322 C916.64825915 101.45813021 915.93274145 96.06106904 915.21679688 90.6640625 C913.8158619 80.10875129 912.40963877 69.55415211 911 59 C910.67 59 910.34 59 910 59 Z M1211 77 C1209.47478311 81.31174102 1208.38668505 85.56070762 1207.48779297 90.04345703 C1207.35095093 90.72065796 1207.21410889 91.39785889 1207.07312012 92.09558105 C1206.62562492 94.3155711 1206.18371238 96.53662797 1205.7421875 98.7578125 C1205.43138725 100.3091169 1205.12035871 101.86037558 1204.80911255 103.41159058 C1204.15946525 106.65394528 1203.51258902 109.89683719 1202.86767578 113.14013672 C1202.04125315 117.2950815 1201.20790862 121.44860224 1200.37249565 125.60174751 C1199.72974087 128.80106596 1199.09065276 132.00110834 1198.45267105 135.20138168 C1198.14679989 136.7334031 1197.83978859 138.26519734 1197.5316124 139.79675674 C1197.10181891 141.93555914 1196.6769739 144.07528691 1196.25341797 146.21533203 C1196.01074188 147.43189484 1195.7680658 148.64845764 1195.51803589 149.90188599 C1194.89005303 153.13401694 1194.89005303 153.13401694 1195 157 C1202.77377981 157.07647933 1210.54746147 157.12877939 1218.3215332 157.16479492 C1220.96252061 157.17981981 1223.60348332 157.2002455 1226.24438477 157.22631836 C1230.05491251 157.26297878 1233.86510844 157.27979006 1237.67578125 157.29296875 C1239.4280175 157.31619453 1239.4280175 157.31619453 1241.21565247 157.33988953 C1255.36825897 157.34275197 1268.73392359 153.30748933 1279.25 143.5 C1288.57782327 133.51126816 1294.87729932 121.17662282 1295.375 107.375 C1295.08001169 99.07992878 1292.82406878 92.86615513 1287.0859375 86.7890625 C1272.13615003 73.96696014 1248.89751003 76.85242992 1230.5625 76.9375 C1228.65560015 76.94252969 1226.74869899 76.94708997 1224.84179688 76.95117188 C1220.22783178 76.96205043 1215.61393075 76.97923236 1211 77 Z " fill="#000000" transform="translate(173,175)"/>
<path d="M0 0 C1.71484375 1.23046875 1.71484375 1.23046875 2.4609375 3.3671875 C2.58662109 4.28951172 2.58662109 4.28951172 2.71484375 5.23046875 C1.48701513 5.8580933 0.25750539 6.4824294 -0.97265625 7.10546875 C-1.65714844 7.45351563 -2.34164063 7.8015625 -3.046875 8.16015625 C-5.41130028 9.29078893 -7.85176123 10.25711074 -10.28515625 11.23046875 C-5.99515625 10.90046875 -1.70515625 10.57046875 2.71484375 10.23046875 C2.71484375 10.89046875 2.71484375 11.55046875 2.71484375 12.23046875 C1.39484375 12.89046875 0.07484375 13.55046875 -1.28515625 14.23046875 C0.19984375 13.98296875 0.19984375 13.98296875 1.71484375 13.73046875 C12.30946108 12.29354697 12.30946108 12.29354697 16.71484375 15.23046875 C17.37484375 15.89046875 18.03484375 16.55046875 18.71484375 17.23046875 C18.25466273 21.37209789 17.8597829 23.47864699 14.71484375 26.23046875 C14.38484375 27.22046875 14.05484375 28.21046875 13.71484375 29.23046875 C16.02484375 29.23046875 18.33484375 29.23046875 20.71484375 29.23046875 C20.39497289 32.50343313 19.96511919 33.96334785 17.68359375 36.3984375 C16.86890625 37.06488281 16.05421875 37.73132813 15.21484375 38.41796875 C11.98561965 40.94104191 11.98561965 40.94104191 9.71484375 44.23046875 C10.70484375 44.23046875 11.69484375 44.23046875 12.71484375 44.23046875 C12.72902344 44.83375 12.74320313 45.43703125 12.7578125 46.05859375 C13.01401359 51.23156647 13.01401359 51.23156647 15.71484375 55.48046875 C17.40197265 56.46462727 19.10125481 57.43043469 20.8359375 58.328125 C21.60035156 58.72902344 22.36476563 59.12992188 23.15234375 59.54296875 C23.87292969 59.88972656 24.59351563 60.23648438 25.3359375 60.59375 C35.527189 67.60546491 45.88164318 84.33802191 48.71484375 96.23046875 C50.56830704 106.39019347 50.96595248 116.6784921 51.40234375 126.98046875 C51.47521606 128.67719727 51.47521606 128.67719727 51.54956055 130.40820312 C51.60623901 132.01405273 51.60623901 132.01405273 51.6640625 133.65234375 C51.69846436 134.6072168 51.73286621 135.56208984 51.76831055 136.54589844 C51.71476187 139.23457984 51.28331976 141.60875256 50.71484375 144.23046875 C50.66459024 146.39695326 50.62400498 148.56367075 50.58984375 150.73046875 C49.62357133 170.0246695 39.29987098 188.84567983 31.71484375 206.23046875 C31.04214844 207.790011 30.37017789 209.34986626 29.69921875 210.91015625 C26.69710405 217.86489071 23.56780712 224.75379539 20.33007812 231.60180664 C18.57062137 235.33870163 16.90404685 239.10219588 15.29370117 242.90551758 C11.10419761 252.76164864 6.14853369 262.16187883 1.10253906 271.60205078 C-0.22629747 274.118985 -1.51629279 276.65159395 -2.79296875 279.1953125 C-6.90613431 287.33758374 -11.28236282 295.07370696 -16.53515625 302.54296875 C-17.01847412 303.23036133 -17.50179199 303.91775391 -17.99975586 304.62597656 C-21.10004236 308.90406408 -24.4626186 312.58322499 -28.28515625 316.23046875 C-28.94515625 315.90046875 -29.60515625 315.57046875 -30.28515625 315.23046875 C-29.93324219 314.69268799 -29.58132813 314.15490723 -29.21875 313.60083008 C-25.76435891 308.31721264 -22.32641897 303.02324352 -18.90039062 297.72119141 C-17.59642285 295.71044786 -16.28051674 293.70882202 -14.95703125 291.7109375 C-10.52307376 284.83469855 -7.17966562 277.74139672 -3.9362793 270.25732422 C-0.49964624 262.43561513 3.52804223 254.99918248 7.72949219 247.56469727 C10.18303851 243.19416626 12.37340451 239.09820636 13.71484375 234.23046875 C13.05484375 234.23046875 12.39484375 234.23046875 11.71484375 234.23046875 C11.48539063 235.01421875 11.2559375 235.79796875 11.01953125 236.60546875 C9.31472223 241.34218363 7.10752706 245.74104193 4.83984375 250.23046875 C4.35660645 251.19017578 3.87336914 252.14988281 3.37548828 253.13867188 C-28.03820396 315.09821905 -28.03820396 315.09821905 -45.28515625 321.23046875 C-47.66015625 320.91796875 -47.66015625 320.91796875 -49.28515625 320.23046875 C-49.28515625 315.24034952 -47.97135113 314.19769611 -44.78515625 310.48046875 C-43.94984375 309.495625 -43.11453125 308.51078125 -42.25390625 307.49609375 C-41.60421875 306.7484375 -40.95453125 306.00078125 -40.28515625 305.23046875 C-43.65172768 305.23046875 -44.20664964 305.6454203 -46.7890625 307.6015625 C-47.44712891 308.09333984 -48.10519531 308.58511719 -48.78320312 309.09179688 C-49.80510742 309.87200195 -49.80510742 309.87200195 -50.84765625 310.66796875 C-52.20223536 311.6886817 -53.55766555 312.70826646 -54.9140625 313.7265625 C-55.5129126 314.18216553 -56.1117627 314.63776855 -56.72875977 315.10717773 C-60.2637196 317.65844836 -62.96274558 317.66270982 -67.28515625 317.23046875 C-70.32278904 315.54289498 -72.61535594 313.41246929 -74.34765625 310.35546875 C-74.24675451 306.92480951 -72.76457483 304.3076594 -71.28515625 301.23046875 C-72.42984375 301.69453125 -72.42984375 301.69453125 -73.59765625 302.16796875 C-75.47305302 302.90940468 -77.37200277 303.59275092 -79.28515625 304.23046875 C-78.73791942 300.8558416 -78.23025625 299.14811875 -76.28515625 296.23046875 C-77.31640625 296.72546875 -78.34765625 297.22046875 -79.41015625 297.73046875 C-82.87698467 299.18023336 -85.50157926 299.98718415 -89.28515625 299.23046875 C-92.29930855 296.13699665 -93.53404945 293.49047322 -93.671875 289.23828125 C-93.55026943 283.13628733 -91.16255011 278.04978295 -88.72265625 272.54296875 C-88.26665039 271.47933105 -87.81064453 270.41569336 -87.34082031 269.31982422 C-84.91774975 263.72766383 -82.35346393 258.25775291 -79.53515625 252.85546875 C-76.86022369 247.6644476 -74.74757874 242.42909945 -72.84765625 236.91796875 C-72.45852051 235.82379639 -72.45852051 235.82379639 -72.06152344 234.70751953 C-70.30827 229.39108596 -70.05881047 224.82286563 -70.28515625 219.23046875 C-79.83866408 219.96310825 -89.17639614 221.74673035 -98.5859375 223.50195312 C-104.06704082 224.48625597 -109.25667934 225.36909523 -114.8359375 225.1953125 C-122.07061515 225.00422184 -126.87042897 229.27390194 -132.1484375 233.84375 C-137.5352083 239.43622088 -141.24438134 246.5028343 -145.203125 253.12890625 C-148.41244652 258.48435123 -151.78263149 263.73011841 -155.16015625 268.98046875 C-160.03338929 276.59594608 -164.78850489 284.27205054 -169.41015625 292.04296875 C-169.94237793 292.93145508 -170.47459961 293.81994141 -171.02294922 294.73535156 C-173.84622312 299.52212948 -176.25417986 304.21792932 -178.18334961 309.43676758 C-180.03083606 312.44440839 -182.82339963 312.88911732 -186.109375 313.6796875 C-188.48763188 314.16678834 -188.48763188 314.16678834 -191.03515625 315.91796875 C-193.8046852 317.5335273 -195.13349473 317.86080105 -198.28515625 317.23046875 C-201.09765625 314.73046875 -201.09765625 314.73046875 -203.28515625 312.23046875 C-206.5349876 313.31831843 -206.5349876 313.31831843 -209.28515625 315.23046875 C-212.48447781 315.77669438 -214.56678967 315.65162615 -217.390625 313.99609375 C-224.81918827 308.52953717 -224.81918827 308.52953717 -225.69921875 304.1875 C-225.89453125 302.20182292 -226.08984375 300.21614583 -226.28515625 298.23046875 C-226.94902344 298.26527344 -227.61289063 298.30007813 -228.296875 298.3359375 C-237.44768447 298.61647326 -237.44768447 298.61647326 -241.28515625 295.23046875 C-245.2810458 290.56859761 -246.54698214 286.26216141 -246.28515625 280.23046875 C-245.33240963 275.47400855 -243.72997887 271.17143967 -241.66015625 266.79296875 C-240.08036583 262.69987539 -239.79695039 259.13466434 -239.59375 254.78125 C-239.27781713 252.16980488 -238.60076151 250.48654685 -237.28515625 248.23046875 C-237.87683594 248.26527344 -238.46851563 248.30007813 -239.078125 248.3359375 C-244.04179061 248.50598151 -247.21133001 248.4131455 -251.28515625 245.23046875 C-252.28515625 244.23046875 -252.28515625 244.23046875 -252.66015625 241.91796875 C-252.28515625 239.23046875 -252.28515625 239.23046875 -250.2265625 237.2890625 C-246.89602395 234.95812782 -243.54253598 233.27055912 -239.84765625 231.60546875 C-239.20505859 231.30640625 -238.56246094 231.00734375 -237.90039062 230.69921875 C-234.90847428 229.32627846 -232.02004931 228.14604753 -228.875 227.14453125 C-226.13843027 226.51584554 -226.13843027 226.51584554 -225.28515625 224.23046875 C-232.24059267 226.68130166 -239.02393389 229.35536766 -245.75390625 232.375 C-248.28515625 233.23046875 -248.28515625 233.23046875 -251.28515625 232.23046875 C-247.7521023 229.1759341 -244.46735568 227.25136089 -240.14453125 225.50390625 C-238.99210937 225.02953125 -237.8396875 224.55515625 -236.65234375 224.06640625 C-234.86183594 223.34324219 -234.86183594 223.34324219 -233.03515625 222.60546875 C-230.65247256 221.64020244 -228.27211952 220.66915603 -225.89453125 219.69140625 C-224.84233398 219.26649902 -223.79013672 218.8415918 -222.70605469 218.40380859 C-220.15031182 217.46896698 -220.15031182 217.46896698 -219.28515625 215.23046875 C-223.26549577 216.81086448 -227.24420645 218.39532255 -231.22265625 219.98046875 C-232.33962891 220.42390625 -233.45660156 220.86734375 -234.60742188 221.32421875 C-240.29656008 223.59320056 -245.93388739 225.90669097 -251.4765625 228.515625 C-253.80733451 229.43685886 -255.80934359 229.54992845 -258.28515625 229.23046875 C-259.1815218 225.80798209 -259.40855665 223.65355585 -258.41015625 220.23046875 C-255.39277632 215.97063825 -251.70136115 213.90967579 -247.28515625 211.23046875 C-246.34542969 210.58851563 -245.40570312 209.9465625 -244.4375 209.28515625 C-236.13152617 203.76184116 -227.82123899 200.75434456 -218.34130859 197.86230469 C-215.5315505 196.99889291 -212.74854566 196.07197275 -209.97265625 195.10546875 C-209.17214844 194.83476563 -208.37164063 194.5640625 -207.546875 194.28515625 C-202.52875358 191.94509963 -199.61406105 188.65083045 -196.78515625 183.98046875 C-196.23859375 183.0884375 -195.69203125 182.19640625 -195.12890625 181.27734375 C-194.52046875 180.271875 -193.91203125 179.26640625 -193.28515625 178.23046875 C-190.6697449 173.97460146 -187.99316164 169.76604536 -185.234375 165.6015625 C-177.78407117 154.35195749 -177.78407117 154.35195749 -171.28515625 142.54296875 C-167.98946637 135.98267202 -163.76650133 130.44522736 -159.20532227 124.71289062 C-155.39897616 119.86875012 -152.2163891 114.92169455 -149.22265625 109.54296875 C-143.69009154 99.71389743 -136.58499365 91.74302779 -128.84375 83.6015625 C-127.69856152 82.39515478 -126.55402337 81.1881294 -125.41015625 79.98046875 C-124.85513428 79.39531494 -124.3001123 78.81016113 -123.72827148 78.20727539 C-120.07598006 74.28312877 -117.31405902 70.31236032 -114.73046875 65.6015625 C-110.62183439 58.86118127 -104.69083841 53.42045736 -98.68359375 48.38671875 C-96.06296995 46.0307182 -93.63971776 43.53619285 -91.19116211 41.00390625 C-71.02566728 20.25723602 -30.43101752 -13.10298646 0 0 Z M-26.28515625 91.23046875 C-26.65253906 92.21080078 -26.65253906 92.21080078 -27.02734375 93.2109375 C-27.44242188 93.87738281 -27.8575 94.54382813 -28.28515625 95.23046875 C-30.16796875 95.59375 -30.16796875 95.59375 -32.41015625 95.54296875 C-38.48753426 96.03572913 -41.3018088 98.79986825 -45.28515625 103.23046875 C-48.92177104 107.52969805 -52.39451215 111.95640112 -55.85400391 116.3984375 C-60.70584689 122.60932624 -65.68598593 128.62546488 -71.09765625 134.35546875 C-76.46197918 140.17792485 -80.8844029 146.54106703 -85.37109375 153.05078125 C-88.62855114 157.7698906 -92.10692123 162.29827302 -95.640625 166.8125 C-97.16545205 169.05446661 -97.87142487 170.58135293 -98.28515625 173.23046875 C-95.00424045 172.94147617 -93.62013714 172.58684563 -91.328125 170.1484375 C-90.71582031 169.24738281 -90.10351562 168.34632813 -89.47265625 167.41796875 C-88.78042969 166.41894531 -88.08820313 165.41992188 -87.375 164.390625 C-86.0374573 162.36806044 -84.71554126 160.33501971 -83.4140625 158.2890625 C-79.83994175 152.70867854 -76.11467193 147.80169884 -71.53515625 143.04296875 C-66.31835768 137.61165687 -62.00109785 131.82305077 -57.73120117 125.62963867 C-54.38444398 120.77758349 -50.9558386 116.01709004 -47.34765625 111.35546875 C-46.91122803 110.77869385 -46.4747998 110.20191895 -46.02514648 109.60766602 C-43.44846001 106.31520572 -41.01022014 104.13631539 -37.28515625 102.23046875 C-38.72273659 106.66503862 -41.16561595 109.68880781 -44.22265625 113.10546875 C-48.4199516 117.91644051 -52.30883803 122.85909032 -56.03515625 128.04296875 C-59.33398838 132.62295651 -62.70281982 136.97516101 -66.484375 141.171875 C-74.62250386 150.47511558 -81.15636666 160.52729273 -87.28515625 171.23046875 C-85.65167231 174.36806248 -85.65167231 174.36806248 -83.12890625 174.88671875 C-79.68250235 175.30331702 -76.25132279 175.53636342 -72.78515625 175.73046875 C-68.5108803 175.9698282 -64.46672566 176.32458283 -60.28515625 177.23046875 C-55.35321486 177.7935317 -55.35321486 177.7935317 -51.22045898 175.51733398 C-47.9067474 171.60166142 -46.28576673 167.00149128 -44.34765625 162.29296875 C-43.67754517 160.67660522 -43.67754517 160.67660522 -42.99389648 159.02758789 C-40.03628652 151.66415148 -37.93402399 144.45214077 -36.33935547 136.69555664 C-34.17204666 126.69223079 -30.51478216 117.19478635 -26.94165039 107.62475586 C-26.58156387 106.64840431 -26.58156387 106.64840431 -26.21420288 105.65232849 C-25.55527535 103.86902724 -24.88575984 102.08964853 -24.21557617 100.31054688 C-23.33942128 97.41010865 -23.08509244 95.23247696 -23.28515625 92.23046875 C-24.27515625 91.90046875 -25.26515625 91.57046875 -26.28515625 91.23046875 Z M-119.28515625 118.23046875 C-119.94515625 119.55046875 -120.60515625 120.87046875 -121.28515625 122.23046875 C-120.29515625 121.57046875 -119.30515625 120.91046875 -118.28515625 120.23046875 C-118.61515625 119.57046875 -118.94515625 118.91046875 -119.28515625 118.23046875 Z M23.71484375 208.23046875 C20.74484375 213.51046875 17.77484375 218.79046875 14.71484375 224.23046875 C15.70484375 224.23046875 16.69484375 224.23046875 17.71484375 224.23046875 C19.1182837 222.60104152 19.1182837 222.60104152 20.27734375 220.48046875 C20.69113281 219.784375 21.10492187 219.08828125 21.53125 218.37109375 C21.92183594 217.6646875 22.31242187 216.95828125 22.71484375 216.23046875 C23.31619141 215.23273438 23.31619141 215.23273438 23.9296875 214.21484375 C25.05393452 211.93654155 25.05393452 211.93654155 23.71484375 208.23046875 Z M-97.09765625 210.10546875 C-98.36931641 210.27949219 -99.64097656 210.45351563 -100.95117188 210.6328125 C-102.18158203 210.80683594 -103.41199219 210.98085938 -104.6796875 211.16015625 C-105.80221924 211.31726074 -106.92475098 211.47436523 -108.08129883 211.63623047 C-111.28682686 212.23077861 -114.22179238 213.12561108 -117.28515625 214.23046875 C-117.28515625 214.89046875 -117.28515625 215.55046875 -117.28515625 216.23046875 C-109.04619254 216.03556853 -101.19604283 214.51738923 -93.16015625 212.79296875 C-92.12818115 212.57552002 -91.09620605 212.35807129 -90.03295898 212.1340332 C-89.06173096 211.919646 -88.09050293 211.70525879 -87.08984375 211.484375 C-86.21312012 211.29174072 -85.33639648 211.09910645 -84.43310547 210.90063477 C-82.10031953 210.35523757 -82.10031953 210.35523757 -80.28515625 208.23046875 C-85.92791901 208.23046875 -91.51889527 209.31530773 -97.09765625 210.10546875 Z M-144.14453125 237.8125 C-146.65369245 240.64675325 -148.58938724 243.68899508 -150.53515625 246.91796875 C-153.69464754 252.08470944 -156.90535504 257.2088741 -160.21484375 262.28125 C-173.53813328 280.9695494 -173.53813328 280.9695494 -181.28515625 302.23046875 C-178.02007503 299.2499262 -176.05674055 296.30346844 -173.97265625 292.41796875 C-170.29703714 285.756135 -166.21456162 279.39844557 -162.03515625 273.04296875 C-161.07029297 271.5729541 -161.07029297 271.5729541 -160.0859375 270.07324219 C-158.78677792 268.09397257 -157.48746222 266.11480543 -156.18798828 264.13574219 C-153.25800565 259.6621993 -150.35284701 255.17371498 -147.47265625 250.66796875 C-146.97540039 249.90137939 -146.47814453 249.13479004 -145.96582031 248.3449707 C-143.45453914 244.3982299 -141.53152038 240.79086466 -140.28515625 236.23046875 C-142.43817033 236.01446211 -142.43817033 236.01446211 -144.14453125 237.8125 Z " fill="#2B9CFC" transform="translate(1297.28515625,534.76953125)"/>
<path d="M0 0 C-0.4921875 1.796875 -0.4921875 1.796875 -2 4 C-4.59804996 5.39273763 -7.33765811 6.30644385 -10.125 7.25 C-10.87910156 7.518125 -11.63320313 7.78625 -12.41015625 8.0625 C-14.26889479 8.72129341 -16.13389286 9.36237797 -18 10 C-17.07058594 9.79503906 -16.14117188 9.59007812 -15.18359375 9.37890625 C-13.94738281 9.10949219 -12.71117187 8.84007812 -11.4375 8.5625 C-10.21933594 8.29566406 -9.00117187 8.02882813 -7.74609375 7.75390625 C-0.29713389 6.25479337 4.19069097 6.03145634 11.3515625 8.50390625 C14.60570458 9.11345794 16.04062243 8.37211852 19 7 C26.99046164 5.40497503 33.30149847 8.96327144 40 13 C41.65795662 14.21276457 43.30439971 15.44146569 44.9375 16.6875 C48.75403775 19.49936329 51.84944432 20.61340283 56.5 21.5 C63.36328912 22.83564595 67.68122457 25.56479964 73 30 C73.83273437 30.66 74.66546875 31.32 75.5234375 32 C84.77083145 39.7393574 94.83077526 51.81986517 96.875 64.0625 C97.5994178 74.27502404 96.24056534 87.39566181 89.6640625 95.68359375 C88.3125 97.0625 88.3125 97.0625 86 99 C85.67 99.33 85.34 99.66 85 100 C85.99 100.33 86.98 100.66 88 101 C86.51937059 113.88820598 81.68511218 124.81558872 73.97265625 135.12890625 C71.7313787 138.39096367 70.68941219 141.32535195 69.66015625 145.1015625 C68.78596859 147.6154986 67.18769624 149.27925777 65.38671875 151.19921875 C62.84263862 154.5029397 61.32194343 158.40611495 59.625 162.1953125 C57.8186936 165.31292787 55.81858321 166.81188935 53 169 C52.31060191 171.32671854 51.64533078 173.66067594 51 176 C49.78481125 177.47101796 48.56547279 178.94041072 47.28125 180.3515625 C45.81825197 182.23383436 45.02283291 184.04411743 44.125 186.25 C41.84193453 191.72751595 38.51723863 196.25210768 35 201 C34.43410156 201.79535156 33.86820313 202.59070313 33.28515625 203.41015625 C30.26175311 207.60152442 30.26175311 207.60152442 29 209 C28.34 209 27.68 209 27 209 C26.73316406 209.88300781 26.46632813 210.76601563 26.19140625 211.67578125 C21.99208398 223.39257879 12.55688687 232.94017572 4.51953125 242.1953125 C2.66386666 244.39921235 0.90070095 246.66874034 -0.875 248.9375 C-4.04828211 252.93281329 -7.41728632 256.5308007 -11.078125 260.078125 C-12.93633215 261.93633215 -14.62295596 263.86363805 -16.3125 265.875 C-33.98636107 286.29547461 -58.82190792 303.34779565 -86 307 C-87.15435547 307.16435547 -87.15435547 307.16435547 -88.33203125 307.33203125 C-115.46119462 310.61908659 -145.89793053 304.69982585 -167.9140625 287.73046875 C-190.3201273 268.52637791 -212.86133034 244.98647117 -216.28125 214.4921875 C-216.61636024 206.25406072 -214.63827652 198.0301349 -213 190 C-212.83371094 189.15373047 -212.66742188 188.30746094 -212.49609375 187.43554688 C-208.41018198 166.990855 -199.79095049 151.4743842 -187.734375 134.58984375 C-185.89647057 131.84540538 -184.33287966 129.02317727 -182.75 126.125 C-179.82548672 120.99565232 -176.32118624 116.86444774 -172.25878906 112.63891602 C-168.80074749 108.99902713 -165.85168987 105.19102348 -163 101.0625 C-154.43447623 88.72685568 -144.44752072 76.68251662 -132.6875 67.25 C-130.51963942 65.43504695 -129.08667633 63.92484753 -127.3671875 61.75 C-123.8864558 57.6407214 -119.85895612 54.77614706 -115.4375 51.75 C-109.83785432 47.82395501 -104.44813741 43.8295615 -99.3125 39.3125 C-89.10751741 30.4535098 -77.91479719 23.7438396 -65.90332031 17.61352539 C-61.29520777 15.2541234 -56.94583588 12.74063209 -52.625 9.875 C-39.30355515 1.48300145 -14.61918865 -10.50754184 0 0 Z M8 20 C7.34 20.66 6.68 21.32 6 22 C7.65 21.67 9.3 21.34 11 21 C10.01 20.67 9.02 20.34 8 20 Z M5.13671875 30.88671875 C2.85058032 33.00581544 2.85058032 33.00581544 1 36 C1.99 36.495 1.99 36.495 3 37 C2.28199219 37.08378906 1.56398438 37.16757812 0.82421875 37.25390625 C-2.61560543 38.16262882 -4.46842034 39.66268752 -7.1875 41.9375 C-8.47720703 43.00291016 -8.47720703 43.00291016 -9.79296875 44.08984375 C-13.17634045 46.82900964 -13.17634045 46.82900964 -14.5 50.8125 C-16.23672054 54.50303115 -16.92557896 54.70401053 -20.5 56.3125 C-31.08207341 61.09492916 -38.94795791 70.81018533 -47 79 C-46.34 79.33 -45.68 79.66 -45 80 C-42.5249829 78.88568235 -40.32116581 77.41849022 -38 76 C-43.91410192 82.9756074 -49.84777894 89.95950482 -56.4296875 96.31640625 C-60.0214142 99.88836905 -62.85487251 103.75232587 -65.6875 107.9375 C-69.7272394 113.79291024 -73.8690588 119.53460783 -78.1875 125.1875 C-82.83695043 131.28255889 -87.00450154 137.54695824 -90.96484375 144.109375 C-94.1696819 148.66135242 -98.22059176 151.26890958 -103 154 C-102.67 154.99 -102.34 155.98 -102 157 C-101.34 157 -100.68 157 -100 157 C-100.93613223 159.80839669 -101.56751531 161.63884368 -103.87109375 163.5625 C-107.02156507 167.16964514 -107.94488884 171.21709253 -109.3125 175.75 C-112.06436341 184.42375462 -115.29517229 192.63715388 -119.06445312 200.90771484 C-121.18719152 205.6550708 -123.15755553 210.4690466 -125.15991211 215.26806641 C-127.08530263 219.86852184 -129.07730108 224.42815744 -131.16137695 228.95922852 C-133.61184749 234.92239684 -134.13324884 242.01624796 -132.36328125 248.23828125 C-131.05377108 251.35278316 -131.05377108 251.35278316 -129 254 C-121.35509829 254.86546057 -115.81627319 252.27335153 -109 249 C-108.03779541 248.54923096 -108.03779541 248.54923096 -107.05615234 248.08935547 C-89.53056204 239.78908187 -75.42085012 227.72234911 -62.84375 213.05859375 C-60.83499678 210.8157697 -58.71885599 208.72597014 -56.5625 206.625 C-50.22365498 200.36187497 -44.83125861 193.48065849 -40 186 C-38.91687105 184.49985241 -37.83351112 182.99987158 -36.75 181.5 C-33.64277689 177.08826761 -30.99959248 172.52023796 -28.40332031 167.79345703 C-25.93609514 163.40198226 -23.15081875 159.34278125 -20.20849609 155.25708008 C-14.46459466 147.2486139 -10.21465305 139.56468135 -6.80761719 130.31713867 C-4.83637548 124.98188526 -2.56177487 120.12549333 0.25 115.1875 C4.69789071 107.23473428 7.98744714 98.86160875 11.25 90.375 C11.50044067 89.72590668 11.75088135 89.07681335 12.00891113 88.40805054 C23.22097015 60.99645343 23.22097015 60.99645343 25 32 C22.62590322 28.25899902 20.61121826 27.34755548 16.8125 25.1875 C11.38448108 24.92054825 9.13128281 27.44270716 5.13671875 30.88671875 Z M-61 97 C-61.99 97.99 -62.98 98.98 -64 100 C-62.68 99.67 -61.36 99.34 -60 99 C-60.33 98.34 -60.66 97.68 -61 97 Z M1 240 C-8.27691803 247.58195095 -16.86331931 255.67718578 -25.24926758 264.2355957 C-29.98796039 269.0585944 -34.83291457 273.63879646 -40 278 C-40.57733887 278.48815186 -41.15467773 278.97630371 -41.74951172 279.47924805 C-43.32775405 280.80514836 -44.91217992 282.12309282 -46.5 283.4375 C-47.03625 283.88287109 -47.5725 284.32824219 -48.125 284.78710938 C-49.41588992 285.85900904 -50.70782572 286.92964897 -52 288 C-51.67 288.66 -51.34 289.32 -51 290 C-41.50614118 283.50707357 -32.25209927 277.06155346 -24 269 C-23.22269531 268.24976563 -22.44539063 267.49953125 -21.64453125 266.7265625 C-17.5265231 262.68443055 -13.65840767 258.50937334 -9.90625 254.12890625 C-6.12526991 249.90629529 -2.04300347 245.96979013 2 242 C1.505 241.01 1.505 241.01 1 240 Z M-73.7578125 248.1953125 C-74.46156006 248.66130859 -75.16530762 249.12730469 -75.89038086 249.60742188 C-76.62780518 250.10822266 -77.36522949 250.60902344 -78.125 251.125 C-79.64878806 252.13945155 -81.17352434 253.15248028 -82.69921875 254.1640625 C-83.43575684 254.65422852 -84.17229492 255.14439453 -84.93115234 255.64941406 C-88.2779346 257.83426177 -91.732568 259.82209658 -95.21484375 261.78125 C-97.29646211 263.03907873 -97.29646211 263.03907873 -99 266 C-86.00764776 265.42256212 -74.51704365 255.08484656 -66 246 C-70.01854089 246 -70.66374942 246.11168542 -73.7578125 248.1953125 Z M-72.125 256.6875 C-73.48234772 257.60914186 -74.84041495 258.529725 -76.19921875 259.44921875 C-76.85325684 259.89185059 -77.50729492 260.33448242 -78.18115234 260.79052734 C-80.39376807 262.26184255 -82.65562533 263.63909817 -84.9375 265 C-85.948125 265.66 -86.95875 266.32 -88 267 C-88 267.66 -88 268.32 -88 269 C-78.8225285 266.58487592 -69.87968814 260.44763043 -63 254 C-63 253.34 -63 252.68 -63 252 C-66.5360236 252 -69.28234683 254.73856627 -72.125 256.6875 Z M-34 257 C-34.81339844 257.65484375 -35.62679687 258.3096875 -36.46484375 258.984375 C-48.01759258 268.21187026 -59.9407795 277.04421196 -72.53125 284.81640625 C-74.31096345 286.03245531 -74.31096345 286.03245531 -75 289 C-57.22864888 287.39051914 -43.7985006 269.96493713 -32 258 C-32.66 257.67 -33.32 257.34 -34 257 Z M-63 295 C-63.33 295.66 -63.66 296.32 -64 297 C-63.01 296.67 -62.02 296.34 -61 296 C-61.66 295.67 -62.32 295.34 -63 295 Z " fill="#2B9CFC" transform="translate(543,541)"/>
<path d="M0 0 C12.42178055 11.70297951 20.27072254 30.13591581 21.16015625 47.03515625 C21.27359375 47.84984375 21.38703125 48.66453125 21.50390625 49.50390625 C22.10698594 55.62085737 19.58545028 59.71118402 16.14453125 64.65234375 C13.4410605 67.89863736 11.04858013 69.5061752 7.16015625 71.03515625 C6.33902344 71.40253906 5.51789063 71.76992188 4.671875 72.1484375 C0.29561562 74.03509154 -3.0170355 75.27543851 -7.83984375 75.03515625 C-5.28452989 72.90572803 -2.65310578 71.38639489 0.31640625 69.92578125 C1.03634766 69.57032227 1.75628906 69.21486328 2.49804688 68.84863281 C3.04654297 68.58018555 3.59503906 68.31173828 4.16015625 68.03515625 C2.72349609 68.53499023 2.72349609 68.53499023 1.2578125 69.04492188 C-2.32375643 70.28733541 -5.91074031 71.51342709 -9.49951172 72.73486328 C-11.04691587 73.26400899 -12.59285217 73.79746886 -14.13720703 74.33544922 C-16.36762005 75.11155807 -18.60299186 75.87158532 -20.83984375 76.62890625 C-21.52038818 76.86951782 -22.20093262 77.11012939 -22.90209961 77.35803223 C-27.71293194 78.96311097 -31.76945849 79.25302437 -36.83984375 79.03515625 C-36.83984375 78.04515625 -36.83984375 77.05515625 -36.83984375 76.03515625 C-32.87984375 74.55015625 -32.87984375 74.55015625 -28.83984375 73.03515625 C-30.30357422 73.19564453 -30.30357422 73.19564453 -31.796875 73.359375 C-33.06917969 73.47925781 -34.34148437 73.59914063 -35.65234375 73.72265625 C-36.91691406 73.85027344 -38.18148438 73.97789062 -39.484375 74.109375 C-42.83984375 74.03515625 -42.83984375 74.03515625 -44.49023438 72.80859375 C-46.11151448 70.67817069 -46.41691301 69.22642677 -46.7890625 66.5859375 C-46.91474609 65.73837891 -47.04042969 64.89082031 -47.16992188 64.01757812 C-47.28787109 63.13650391 -47.40582031 62.25542969 -47.52734375 61.34765625 C-47.65689453 60.45498047 -47.78644531 59.56230469 -47.91992188 58.64257812 C-48.23773286 56.44144281 -48.543904 54.23932061 -48.83984375 52.03515625 C-56.88306602 51.67748585 -64.35021369 53.0206796 -72.21484375 54.59765625 C-72.88947662 54.73076202 -73.5641095 54.8638678 -74.25918579 55.00100708 C-109.84874884 62.04616313 -143.58434261 73.35967076 -175.83984375 90.03515625 C-175.83984375 91.35515625 -175.83984375 92.67515625 -175.83984375 94.03515625 C-166.07137324 99.28222041 -156.26991717 104.35736122 -146.21484375 109.03515625 C-127.82723546 117.66079446 -111.66817391 128.06380489 -96.83984375 142.03515625 C-95.93685547 142.85886719 -95.93685547 142.85886719 -95.015625 143.69921875 C-76.3293788 161.38363823 -58.46059939 190.40227756 -56.671875 216.484375 C-56.66542969 217.22300781 -56.65898437 217.96164062 -56.65234375 218.72265625 C-56.63816406 219.46902344 -56.62398438 220.21539063 -56.609375 220.984375 C-56.83984375 223.03515625 -56.83984375 223.03515625 -58.83984375 226.03515625 C-58.83984375 227.02515625 -58.83984375 228.01515625 -58.83984375 229.03515625 C-57.84984375 229.36515625 -56.85984375 229.69515625 -55.83984375 230.03515625 C-57.38667403 240.88605526 -60.83208691 249.40197572 -69.36328125 256.57421875 C-76.5761479 261.91235618 -84.69959272 266.01024023 -92.57373047 270.26757812 C-95.9331042 272.0856276 -99.27946322 273.92616011 -102.625 275.76953125 C-124.14601093 287.57177482 -145.54598836 296.07547043 -169.35546875 302.11328125 C-171.28795485 302.62456681 -173.21597365 303.16138194 -175.11108398 303.79736328 C-181.33223032 305.85501917 -186.86508314 306.51204476 -193.40234375 306.41015625 C-194.35979492 306.40000488 -195.31724609 306.38985352 -196.30371094 306.37939453 C-226.0274725 305.74054661 -255.20905982 293.08408948 -277.83984375 274.03515625 C-278.6390625 273.37 -279.43828125 272.70484375 -280.26171875 272.01953125 C-299.57980064 255.34118725 -314.66385144 229.63630356 -317.04296875 203.83203125 C-317.19981102 196.98325217 -316.51873773 190.35530673 -312.09375 184.87109375 C-303.65982856 176.85499961 -293.00049116 170.69198152 -281.22265625 170.80859375 C-276.21007348 171.28519998 -272.01577438 173.25120249 -267.83984375 176.03515625 C-268.89215672 179.00191812 -269.65765114 179.93120251 -272.44140625 181.51953125 C-273.93800781 182.14601563 -273.93800781 182.14601563 -275.46484375 182.78515625 C-276.46773437 183.213125 -277.470625 183.64109375 -278.50390625 184.08203125 C-279.27476562 184.3965625 -280.045625 184.71109375 -280.83984375 185.03515625 C-280.50984375 185.36515625 -280.17984375 185.69515625 -279.83984375 186.03515625 C-278.41200351 185.77849902 -276.99615044 185.45388957 -275.58984375 185.09765625 C-272.25392061 184.30490896 -269.28928461 183.81261168 -265.83984375 184.03515625 C-268.48637725 186.68168975 -271.40205639 187.63457622 -274.83984375 189.03515625 C-270.32683537 188.47591934 -270.32683537 188.47591934 -265.90234375 187.47265625 C-261.58717079 186.55731653 -257.43322531 186.35796909 -253.33984375 188.09765625 C-251.83984375 190.03515625 -251.83984375 190.03515625 -251.08984375 193.28515625 C-252.06468773 198.15937614 -254.16137635 199.60219284 -257.9921875 202.5546875 C-259.9542044 203.91524738 -259.9542044 203.91524738 -260.83984375 206.03515625 C-259.99679687 205.79539062 -259.15375 205.555625 -258.28515625 205.30859375 C-257.18945312 205.01210938 -256.09375 204.715625 -254.96484375 204.41015625 C-253.87429687 204.10851562 -252.78375 203.806875 -251.66015625 203.49609375 C-250.72945313 203.34398437 -249.79875 203.191875 -248.83984375 203.03515625 C-248.17984375 203.69515625 -247.51984375 204.35515625 -246.83984375 205.03515625 C-247.56171875 205.66164063 -248.28359375 206.288125 -249.02734375 206.93359375 C-249.95546875 207.75085938 -250.88359375 208.568125 -251.83984375 209.41015625 C-252.76796875 210.22226562 -253.69609375 211.034375 -254.65234375 211.87109375 C-255.37421875 212.58523438 -256.09609375 213.299375 -256.83984375 214.03515625 C-256.83984375 214.69515625 -256.83984375 215.35515625 -256.83984375 216.03515625 C-254.36484375 215.04515625 -254.36484375 215.04515625 -251.83984375 214.03515625 C-252.94032078 216.8363705 -253.82022159 218.02056542 -256.27734375 219.84765625 C-259.501621 222.60008805 -260.55156116 225.02716597 -261.83984375 229.03515625 C-262.01111577 231.14858253 -262.01111577 231.14858253 -260.83984375 233.03515625 C-258.43704034 234.15929252 -256.29489887 234.97053364 -253.77734375 235.72265625 C-253.13345703 235.93470703 -252.48957031 236.14675781 -251.82617188 236.36523438 C-224.18765688 245.10043802 -193.20611179 236.52789972 -168.0546875 224.52734375 C-164.66937262 222.95603113 -161.23598882 221.56179773 -157.77734375 220.16015625 C-144.64725986 214.54751795 -125.80601571 203.01301006 -119.65234375 189.41015625 C-119.9463358 185.68625693 -122.09530024 184.47354989 -124.83984375 182.03515625 C-127.35542404 180.30240016 -129.97418827 178.81388236 -132.65234375 177.34765625 C-133.82434326 176.70038574 -133.82434326 176.70038574 -135.02001953 176.04003906 C-141.25628098 172.69019236 -147.65411807 169.93088964 -154.21484375 167.28515625 C-235.24124671 134.57449728 -235.24124671 134.57449728 -252.00317383 100.21679688 C-253.45506917 96.43093846 -253.69890108 92.6159852 -253.96484375 88.59765625 C-254.39533954 82.95083378 -255.09064086 77.61127746 -256.39013672 72.09594727 C-258.31463584 63.27689347 -257.21237594 55.64125966 -252.78515625 47.81640625 C-243.05394187 33.90350537 -225.89185244 27.23570153 -210.65234375 21.09765625 C-209.91252258 20.79734497 -209.17270142 20.49703369 -208.41046143 20.18762207 C-173.6389861 6.10054983 -137.18152009 -4.56738758 -99.83984375 -8.96484375 C-98.96650391 -9.07231934 -98.09316406 -9.17979492 -97.19335938 -9.29052734 C-23.25505616 -18.28569525 -23.25505616 -18.28569525 0 0 Z M-143.83984375 20.03515625 C-139.36751572 21.40165444 -135.54189052 20.41162901 -131.0625 19.48828125 C-129.26612704 19.13517645 -127.46965479 18.78257649 -125.6730957 18.43041992 C-124.73164703 18.24305267 -123.79019836 18.05568542 -122.82022095 17.86264038 C-105.74747489 14.48373193 -88.8664239 11.76307948 -71.50878906 10.34277344 C-67.32174337 9.99171691 -63.13961942 9.59936655 -58.95703125 9.19921875 C-57.45467332 9.05572346 -55.95231331 8.91224998 -54.44995117 8.76879883 C-53.71569916 8.69867584 -52.98144714 8.62855286 -52.22494507 8.55630493 C-46.7643111 8.03785144 -41.30198898 7.53739154 -35.83984375 7.03515625 C-35.83984375 6.70515625 -35.83984375 6.37515625 -35.83984375 6.03515625 C-68.59167739 -2.03975342 -112.5427578 10.29477901 -143.83984375 20.03515625 Z M-121.83984375 22.03515625 C-121.50984375 22.69515625 -121.17984375 23.35515625 -120.83984375 24.03515625 C-120.11547119 23.90987549 -119.39109863 23.78459473 -118.64477539 23.65551758 C-95.46274253 19.68716245 -72.19913388 16.74567757 -48.83984375 14.03515625 C-49.33484375 13.04515625 -49.33484375 13.04515625 -49.83984375 12.03515625 C-74.13413543 12.03515625 -98.24714711 16.58045383 -121.83984375 22.03515625 Z M-149.83984375 56.03515625 C-150.16984375 56.69515625 -150.49984375 57.35515625 -150.83984375 58.03515625 C-144.35794298 56.67164962 -137.99057495 55.01858766 -131.6027832 53.26855469 C-102.52176595 45.31762751 -73.22217512 39.45330637 -43.06298828 37.71801758 C-42.04188965 37.65509521 -41.02079102 37.59217285 -39.96875 37.52734375 C-39.0722876 37.4794873 -38.1758252 37.43163086 -37.25219727 37.38232422 C-34.74123827 37.02096568 -33.024729 36.29609453 -30.83984375 35.03515625 C-30.83984375 34.37515625 -30.83984375 33.71515625 -30.83984375 33.03515625 C-69.50886405 31.98900039 -115.01129331 38.19475684 -149.83984375 56.03515625 Z M-205.83984375 49.03515625 C-201.90908731 48.46062879 -201.90908731 48.46062879 -198.83984375 46.03515625 C-202.35700678 46.03515625 -203.21106123 46.8596121 -205.83984375 49.03515625 Z M-166.08984375 76.34765625 C-167.01265137 76.7559668 -167.93545898 77.16427734 -168.88623047 77.58496094 C-173.21405991 79.56763304 -176.76527456 81.26103621 -179.83984375 85.03515625 C-172.82407156 83.57842074 -166.7116736 80.88644475 -160.21484375 77.91015625 C-133.64940325 66.03491513 -106.31368493 58.00582849 -77.83984375 52.16015625 C-77.13154419 52.01472382 -76.42324463 51.86929138 -75.69348145 51.7194519 C-67.59903381 50.07058731 -59.51207547 48.61688221 -51.31640625 47.55810547 C-48.67691152 47.23606405 -48.67691152 47.23606405 -46.83984375 45.03515625 C-86.20366903 43.6510555 -130.60629822 60.48136637 -166.08984375 76.34765625 Z M-154.85546875 243.7578125 C-156.34518188 244.313479 -156.34518188 244.313479 -157.86499023 244.88037109 C-159.46129272 245.48292725 -159.46129272 245.48292725 -161.08984375 246.09765625 C-171.0752545 249.8052016 -181.10204869 253.00516594 -191.39746094 255.73852539 C-192.3465332 255.99883545 -193.29560547 256.25914551 -194.2734375 256.52734375 C-195.10931396 256.7476123 -195.94519043 256.96788086 -196.80639648 257.19482422 C-199.19180184 257.95954716 -199.19180184 257.95954716 -200.83984375 261.03515625 C-187.04337058 260.46149832 -174.86037739 256.24002033 -162.21484375 251.03515625 C-160.64923706 250.39429077 -160.64923706 250.39429077 -159.05200195 249.74047852 C-154.12660536 247.65981598 -149.78430341 245.75569462 -145.83984375 242.03515625 C-149.61583206 242.03515625 -151.42271125 242.45137666 -154.85546875 243.7578125 Z M-157.66015625 254.0546875 C-158.31942108 254.27331955 -158.97868591 254.4919516 -159.65792847 254.71720886 C-161.04962174 255.18120623 -162.43982618 255.64968973 -163.82861328 256.12231445 C-165.95990882 256.84598063 -168.09651792 257.55184686 -170.234375 258.25585938 C-171.58498861 258.7085831 -172.93526154 259.16232471 -174.28515625 259.6171875 C-175.51766113 260.03202393 -176.75016602 260.44686035 -178.02001953 260.87426758 C-180.95716852 261.72244746 -180.95716852 261.72244746 -181.83984375 264.03515625 C-174.94810047 264.00595395 -168.98578988 262.63827337 -162.58984375 260.22265625 C-161.92919922 259.97435059 -161.26855469 259.72604492 -160.58789062 259.47021484 C-156.08156559 257.69858406 -151.99629076 255.51717966 -147.83984375 253.03515625 C-151.84448997 251.70027418 -153.67518287 252.7267964 -157.66015625 254.0546875 Z M-132.375 273.44921875 C-133.12712265 273.70134125 -133.8792453 273.95346375 -134.65415955 274.21322632 C-137.07166224 275.02465456 -139.48702198 275.84226185 -141.90234375 276.66015625 C-144.25427922 277.45166599 -146.60663261 278.24192245 -148.95907593 279.03192139 C-150.52869203 279.56034408 -152.09756252 280.09098668 -153.66567993 280.62384033 C-157.76556665 282.01512923 -161.87287857 283.36924799 -166.00341797 284.66699219 C-166.83489853 284.93216644 -167.66637909 285.1973407 -168.52305603 285.47055054 C-170.11724305 285.97769616 -171.71448473 286.47536264 -173.31495667 286.96231079 C-175.18791655 287.56316732 -177.01987349 288.28902251 -178.83984375 289.03515625 C-179.16984375 290.02515625 -179.49984375 291.01515625 -179.83984375 292.03515625 C-173.48475799 292.28553043 -167.94024485 291.42580028 -161.77734375 289.91015625 C-160.8555835 289.68569824 -159.93382324 289.46124023 -158.98413086 289.22998047 C-145.81616116 285.89878062 -133.84463924 280.28726854 -121.83984375 274.03515625 C-121.83984375 273.04515625 -121.83984375 272.05515625 -121.83984375 271.03515625 C-125.64874684 271.03515625 -128.81276133 272.23610971 -132.375 273.44921875 Z " fill="#2B9BFB" transform="translate(343.83984375,557.96484375)"/>
<path d="M0 0 C1.73830078 0.78890625 1.73830078 0.78890625 3.51171875 1.59375 C23.58281463 11.25057379 37.98280441 29.38131522 46 50 C50.15533233 63.12026777 48.18382895 75.54516888 43 88 C41.2818769 90.98783495 39.2977135 93.44386395 37 96 C35.84369992 97.45004837 34.69831888 98.90885348 33.5625 100.375 C32.97210937 101.12007812 32.38171875 101.86515625 31.7734375 102.6328125 C29.95363833 104.99544645 29.95363833 104.99544645 28.3515625 107.6171875 C24.27002973 114.07482386 20.27618775 117.47262217 13 120 C12.34 120 11.68 120 11 120 C11 120.66 11 121.32 11 122 C11.66 122 12.32 122 13 122 C13 122.66 13 123.32 13 124 C12.2265625 124.18175781 11.453125 124.36351562 10.65625 124.55078125 C3.49168256 126.27733925 3.49168256 126.27733925 -3.4375 128.75 C-6.98246634 129.99384784 -8.50734562 130.20059994 -12 129 C-12 127 -12 127 -10.5 125.375 C-9.7575 124.694375 -9.7575 124.694375 -9 124 C-9.639375 124.165 -10.27875 124.33 -10.9375 124.5 C-13.5702802 124.92984167 -16.0274896 125.16419321 -18.6875 125.25 C-19.83798828 125.28867187 -19.83798828 125.28867187 -21.01171875 125.328125 C-21.99591797 125.16570312 -21.99591797 125.16570312 -23 125 C-24.89777953 122.15333071 -25.35804934 120.85888655 -25.9375 117.625 C-26.54364044 114.57458591 -27.01953704 112.96999668 -28.75 110.3125 C-30 108 -30 108 -29.359375 105.265625 C-27.8376152 101.60990319 -25.84417603 98.59429384 -23.5 95.4375 C-22.83895264 94.5235144 -22.83895264 94.5235144 -22.16455078 93.59106445 C-19.98247422 90.59603463 -17.7496093 87.66119228 -15.3984375 84.796875 C-9.09009363 77.06563293 -4.90776057 69.14281047 -0.90820312 60.01855469 C0.89560778 56.00943949 2.94960979 52.12668532 4.96875 48.22265625 C6.14029236 46.10600082 6.14029236 46.10600082 6 44 C-0.1105424 43.88730557 -5.95170514 44.10395632 -12 45 C-10.6875 43.5 -10.6875 43.5 -9 42 C-8.01 42 -7.02 42 -6 42 C-6.33 41.67 -6.66 41.34 -7 41 C-24.55644161 45.62850022 -24.55644161 45.62850022 -39 56 C-38.01257813 55.48308594 -37.02515625 54.96617187 -36.0078125 54.43359375 C-34.71375655 53.76781134 -33.41947388 53.10246946 -32.125 52.4375 C-31.14853516 51.92413086 -31.14853516 51.92413086 -30.15234375 51.40039062 C-28.46470143 50.53917109 -26.73420407 49.76313297 -25 49 C-24.34 49.33 -23.68 49.66 -23 50 C-29.1795105 55.23133164 -35.71325087 59.29731734 -42.765625 63.203125 C-44.81137333 64.33965185 -46.82794807 65.53192194 -48.796875 66.796875 C-49.52390625 67.19390625 -50.2509375 67.5909375 -51 68 C-51.66 67.67 -52.32 67.34 -53 67 C-51.02 65.02 -49.04 63.04 -47 61 C-51.97414406 63.67501198 -56.14844399 66.58287818 -60.375 70.3125 C-61.42271926 71.22728 -62.47223963 72.14000074 -63.5234375 73.05078125 C-64.07926514 73.53264893 -64.63509277 74.0145166 -65.20776367 74.51098633 C-67.09130221 76.07585509 -69.04241686 77.51357714 -71.01171875 78.96875 C-77.35129732 83.86270646 -82.89772644 89.59904805 -88.53198242 95.27124023 C-90.45072466 97.20079921 -92.38005341 99.11931491 -94.31054688 101.03710938 C-95.53970508 102.26758761 -96.76824359 103.49868526 -97.99609375 104.73046875 C-98.57000351 105.30033005 -99.14391327 105.87019135 -99.73521423 106.45732117 C-102.36226169 109.11553601 -104.63292072 111.48106635 -106 115 C-104.68 114.67 -103.36 114.34 -102 114 C-105.7005353 121.4010706 -111.07345042 128.38230028 -118 133 C-118 132.34 -118 131.68 -118 131 C-119.17219543 131.78345715 -120.33763668 132.57702836 -121.5 133.375 C-122.1496875 133.81585937 -122.799375 134.25671875 -123.46875 134.7109375 C-123.9740625 135.13632812 -124.479375 135.56171875 -125 136 C-125 136.66 -125 137.32 -125 138 C-124.01 138 -123.02 138 -122 138 C-122.41317222 142.82034262 -124.38019915 144.90992611 -128 148 C-128.66 148 -129.32 148 -130 148 C-130.13535156 148.54527344 -130.27070312 149.09054687 -130.41015625 149.65234375 C-132.04015225 155.36220998 -134.45011761 159.25425529 -138.23828125 163.796875 C-139.91416031 165.8926528 -141.23210724 167.98754178 -142.5625 170.3125 C-144.26185224 173.16141405 -144.96832375 173.98112904 -147.9375 175.75 C-152.78854965 179.31403648 -154.60224123 184.59228873 -157 190 C-156.01 190 -155.02 190 -154 190 C-154.125 193.125 -154.125 193.125 -155 197 C-156.52527955 198.39546853 -158.05167951 199.7898132 -159.59130859 201.16943359 C-161.45058346 203.58552423 -161.60658577 205.46317965 -161.9765625 208.4765625 C-162.89298638 214.77478173 -164.54510309 220.62293273 -166.4375 226.6875 C-169.36415532 236.40758425 -171.66487738 245.93927284 -173 256 C-173.15339844 257.09957031 -173.30679688 258.19914062 -173.46484375 259.33203125 C-174.56129743 269.32331138 -173.7726389 280.29576385 -171 290 C-162.09805477 291.92700932 -154.44005691 289.76513128 -146 287 C-145.02836914 286.68434082 -145.02836914 286.68434082 -144.03710938 286.36230469 C-125.89130502 280.32877951 -109.92065366 270.41090205 -94 260 C-93.05141113 259.3817334 -92.10282227 258.7634668 -91.12548828 258.12646484 C-73.82135482 246.81688699 -56.57074666 235.51283598 -41.5078125 221.2890625 C-36.95334899 217.13187307 -33.30374536 214.29725747 -27.125 213.5 C-26.09375 213.665 -25.0625 213.83 -24 214 C-23.34 214.99 -22.68 215.98 -22 217 C-22.875 220.6875 -22.875 220.6875 -24 224 C-23.154375 223.505 -22.30875 223.01 -21.4375 222.5 C-17.60510396 220.82768173 -15.13759819 220.60966055 -11 221 C-8 223 -8 223 -7.25 225.8125 C-7.01301308 228.83408317 -7.22929769 231.08845796 -8 234 C-6.35 234 -4.7 234 -3 234 C-3.84588486 240.72008529 -8.4594867 244.34071801 -13 249 C-13.63131836 249.65178223 -14.26263672 250.30356445 -14.91308594 250.97509766 C-23.21332809 259.5112086 -31.53645688 267.74584438 -41 275 C-42.45269409 276.13299848 -43.90443316 277.267222 -45.35546875 278.40234375 C-48.4221477 280.79809817 -51.49318805 283.18798958 -54.5703125 285.5703125 C-55.28993164 286.13137695 -56.00955078 286.69244141 -56.75097656 287.27050781 C-58.32659805 288.48215595 -59.91867894 289.67255977 -61.52246094 290.84667969 C-62.3374707 291.45157227 -63.15248047 292.05646484 -63.9921875 292.6796875 C-65.10762939 293.49155518 -65.10762939 293.49155518 -66.24560547 294.31982422 C-68.23506685 296.22512247 -68.50620545 297.35045542 -69 300 C-71.49101494 301.79353076 -73.42980054 302.05372507 -76.5 302.4375 C-80.91367834 303.44727143 -83.49468034 306.10222091 -86.625 309.1875 C-96.02359523 318.26749878 -107.12908438 322.22088894 -119.3125 326.375 C-120.32666992 326.72135498 -121.34083984 327.06770996 -122.38574219 327.42456055 C-146.09860492 335.1804321 -173.51748438 331.10248681 -195.859375 320.6640625 C-215.38208277 309.62671464 -239.05061617 289.82017932 -245.8125 267.9375 C-248.61968339 255.90671406 -249.79913941 243.234148 -248 231 C-247.82258073 229.58337537 -247.64552689 228.16670494 -247.46875 226.75 C-245.86927457 214.75393431 -242.83202032 203.46269758 -239 192 C-238.76410156 191.27651367 -238.52820313 190.55302734 -238.28515625 189.80761719 C-235.04671243 179.98708204 -230.64429666 171.53013545 -225.12158203 162.81152344 C-223.33620843 159.92787692 -221.71104799 156.96405599 -220.0625 154 C-216.07727481 146.97614004 -211.64756111 140.30382052 -207.1015625 133.63330078 C-205.65471111 131.48803575 -204.26978876 129.30435743 -202.875 127.125 C-200.36305859 123.35360875 -197.46134576 120.1183546 -194.40625 116.78125 C-191.2553937 113.13935116 -188.35009663 109.33353982 -185.4375 105.5 C-184.58285156 104.37827393 -184.58285156 104.37827393 -183.7109375 103.23388672 C-181.45860227 100.26983975 -179.21883915 97.30133804 -177.03125 94.2890625 C-170.03194703 84.78510699 -160.66683033 77.47546694 -151.53125 70.125 C-148.44923741 67.53763141 -145.65685549 64.74361294 -142.8515625 61.86328125 C-140.07687364 59.07103107 -137.20965219 56.29013021 -134 54 C-133.34 54 -132.68 54 -132 54 C-131.75121094 53.39542969 -131.50242187 52.79085937 -131.24609375 52.16796875 C-129.79216696 49.63840961 -128.5456907 48.8078029 -126.0625 47.3125 C-122.41735559 44.99286265 -119.07490081 42.51020316 -115.75 39.75 C-114.8115625 38.97785156 -113.873125 38.20570313 -112.90625 37.41015625 C-110.99850265 35.82805932 -109.10218088 34.23206202 -107.21875 32.62109375 C-97.87133083 24.95866988 -87.46273419 19.77317254 -76.69238281 14.37353516 C-73.68925055 12.84146931 -70.74824406 11.21853153 -67.80834961 9.56958008 C-49.51128926 -0.62015584 -20.46044301 -9.30305858 0 0 Z M-20 10 C-28.868509 11.43637201 -36.93977808 12.82595651 -45 17 C-41.47102331 18.17632556 -40.21276421 17.74268202 -36.67578125 16.78515625 C-35.13374023 16.37426758 -35.13374023 16.37426758 -33.56054688 15.95507812 C-32.48869141 15.66052734 -31.41683594 15.36597656 -30.3125 15.0625 C-29.22904297 14.77181641 -28.14558594 14.48113281 -27.02929688 14.18164062 C-24.35076227 13.4618582 -21.67456397 12.73437395 -19 12 C-19.33 11.34 -19.66 10.68 -20 10 Z M-30 18 C-30 18.33 -30 18.66 -30 19 C-28.54077307 18.88590407 -27.08259402 18.75834456 -25.625 18.625 C-24.81289063 18.55539062 -24.00078125 18.48578125 -23.1640625 18.4140625 C-20.79665809 18.17107412 -20.79665809 18.17107412 -19 16 C-23.08718695 15.75957724 -26.17679443 16.57741188 -30 18 Z M-33 39 C-33 39.33 -33 39.66 -33 40 C-24.20753786 39.52897524 -16.29384797 36.75783166 -8 34 C-8 33.34 -8 32.68 -8 32 C-16.80432542 31.19960678 -25.39290015 34.77383342 -33 39 Z M-144 165 C-144.99 165.495 -144.99 165.495 -146 166 C-145.67 166.99 -145.34 167.98 -145 169 C-144.34 168.67 -143.68 168.34 -143 168 C-143.33 167.01 -143.66 166.02 -144 165 Z M-22.9375 247.4375 C-28.75368953 252.90552039 -34.76156817 258.01594454 -41 263 C-42.11824481 263.92059219 -43.23537544 264.84253894 -44.3515625 265.765625 C-58.6210141 277.4890426 -73.9995528 287.47390832 -89.640625 297.25390625 C-95.17221548 300.72022443 -100.59872879 304.33446664 -106 308 C-103.45799145 308.96136286 -102.26186043 309.0884487 -99.65234375 308.20703125 C-78.43068541 297.30612186 -59.26687754 283.239847 -41 268 C-40.06293213 267.22172852 -40.06293213 267.22172852 -39.10693359 266.42773438 C-24.84089035 255.80637998 -24.84089035 255.80637998 -15 242 C-18.45459523 242 -20.55126463 245.15066254 -22.9375 247.4375 Z M-51.5078125 245.5 C-52.23460205 246.04922119 -52.9613916 246.59844238 -53.71020508 247.16430664 C-54.5070874 247.77008545 -55.30396973 248.37586426 -56.125 249 C-73.52984173 262.00465663 -91.68983233 273.68526327 -110.49902344 284.54394531 C-114.69234874 286.98527605 -118.84637881 289.49188164 -123 292 C-119.23985578 293.25338141 -118.48640939 292.58117607 -114.9921875 290.90234375 C-114.00476563 290.42990234 -113.01734375 289.95746094 -112 289.47070312 C-110.453125 288.71176758 -110.453125 288.71176758 -108.875 287.9375 C-107.86695313 287.45861328 -106.85890625 286.97972656 -105.8203125 286.48632812 C-99.50911999 283.43292087 -93.74346695 280.00529532 -88 276 C-86.49602515 275.01374145 -84.99080533 274.02937891 -83.484375 273.046875 C-78.9019592 269.99060635 -74.57042751 266.66304257 -70.25 263.25 C-68.68264055 262.01908687 -67.11492936 260.78862151 -65.546875 259.55859375 C-64.78181641 258.95772949 -64.01675781 258.35686523 -63.22851562 257.73779297 C-61.16981012 256.13241766 -59.09802541 254.54711552 -57.015625 252.97265625 C-56.1179541 252.29251465 -56.1179541 252.29251465 -55.20214844 251.59863281 C-53.60566144 250.39233713 -52.00606371 249.1901615 -50.40625 247.98828125 C-47.82533376 246.05008751 -47.82533376 246.05008751 -46 243 C-48.63857191 243 -49.42214247 243.90242031 -51.5078125 245.5 Z M-53.74609375 253.59765625 C-54.49528076 254.14832764 -55.24446777 254.69899902 -56.01635742 255.26635742 C-56.81533447 255.85908447 -57.61431152 256.45181152 -58.4375 257.0625 C-64.25413729 261.32269327 -70.07813779 265.4526008 -76.2109375 269.25 C-79.79020393 271.49581423 -83.3007591 273.8379364 -86.8125 276.1875 C-87.43535889 276.60410889 -88.05821777 277.02071777 -88.69995117 277.44995117 C-89.89577232 278.25042772 -91.09039168 279.05270309 -92.28369141 279.85693359 C-93.94854955 280.96573385 -95.63615477 282.04014069 -97.32421875 283.11328125 C-100.18842777 284.89225873 -100.18842777 284.89225873 -102 288 C-96.957722 286.56489011 -92.9902038 284.36437939 -88.625 281.5625 C-87.93164551 281.12220459 -87.23829102 280.68190918 -86.52392578 280.22827148 C-76.0959545 273.55818067 -65.8938311 266.60829426 -56.125 259 C-55.5357373 258.54310791 -54.94647461 258.08621582 -54.33935547 257.61547852 C-51.71824417 255.53812909 -49.87262537 253.80893805 -48 251 C-50.68344289 251 -51.59978197 252.00428737 -53.74609375 253.59765625 Z " fill="#2B9BFB" transform="translate(866,538)"/>
<path d="M0 0 C0.91072266 0.69706055 0.91072266 0.69706055 1.83984375 1.40820312 C5.34871622 4.14879306 8.38432468 6.81427783 10.875 10.5625 C11.37737233 15.8374095 10.86174922 19.59562696 8.875 24.5625 C11.185 24.8925 13.495 25.2225 15.875 25.5625 C14.65306448 33.16565436 11.79469839 39.64478849 8.62890625 46.59765625 C5.11629332 54.23345394 5.11629332 54.23345394 3.75 62.4375 C3.29912317 67.6328307 -0.38275488 70.62365679 -3.8984375 74.16796875 C-6.06715745 76.50029389 -7.59356857 78.78122292 -9.125 81.5625 C-6.65 81.0675 -6.65 81.0675 -4.125 80.5625 C-4.42545474 85.98070042 -7.49890931 88.28785307 -11.25 91.75 C-17.24464059 97.49691461 -23.44249489 103.51498468 -26.125 111.5625 C-24.17500871 111.36778889 -24.17500871 111.36778889 -22.125 110.5625 C-21.07478897 108.71278304 -21.07478897 108.71278304 -20.125 106.5625 C-18.83029025 105.19163085 -17.50349103 103.84909163 -16.125 102.5625 C-15.465 102.8925 -14.805 103.2225 -14.125 103.5625 C-21.76500428 120.18025249 -31.62348497 135.80126281 -41.64379883 151.0703125 C-43.60064857 154.36280009 -44.90779497 157.77503248 -46.2265625 161.359375 C-47.125 163.5625 -47.125 163.5625 -49.1875 166.625 C-50.89545392 169.21447852 -51.51910386 170.67982737 -52.3125 173.5625 C-53.85611034 178.5792336 -56.60837452 182.64808054 -59.50341797 186.9621582 C-62.86226977 192.01130157 -65.70852007 197.23682676 -68.38549805 202.67626953 C-70.20545556 206.26375579 -71.85185334 208.28286563 -75.125 210.5625 C-76.1687315 212.29868659 -76.1687315 212.29868659 -76.875 214.3125 C-79.02606414 219.56872932 -81.71644116 224.46962951 -84.48339844 229.42089844 C-86.60383553 233.25955092 -86.60383553 233.25955092 -87.125 237.5625 C-81.63865136 240.30567432 -73.39275126 238.22606398 -67.4921875 237.46875 C-65.61334041 237.2403981 -63.73443193 237.0125509 -61.85546875 236.78515625 C-58.95089336 236.42869225 -56.04695827 236.06848118 -53.14404297 235.69873047 C-42.45815173 234.34620248 -31.89355523 233.33205823 -21.11328125 233.2890625 C-19.75618546 233.27969666 -19.75618546 233.27969666 -18.37167358 233.2701416 C-10.76099133 233.33302866 -4.88958986 235.04334921 1.875 238.5625 C3.53169347 239.35856018 5.18932468 240.15267042 6.84765625 240.9453125 C8.60887142 241.81345981 10.36799315 242.68586694 12.125 243.5625 C12.97280029 243.97741699 13.82060059 244.39233398 14.6940918 244.81982422 C20.58067029 247.88819949 20.58067029 247.88819949 22.04296875 251.23828125 C21.80792277 254.49066171 20.25889211 255.46756451 17.875 257.5625 C17.875 258.2225 17.875 258.8825 17.875 259.5625 C18.81472656 259.43681641 18.81472656 259.43681641 19.7734375 259.30859375 C20.59070312 259.20675781 21.40796875 259.10492187 22.25 259 C23.06210938 258.89558594 23.87421875 258.79117187 24.7109375 258.68359375 C26.875 258.5625 26.875 258.5625 28.875 259.5625 C27.5248364 264.28807262 24.89240223 266.91371122 20.875 269.5625 C17.42118835 270.78598022 17.42118835 270.78598022 13.6237793 271.62646484 C12.5835677 271.86412599 12.5835677 271.86412599 11.52234173 272.10658836 C9.30982427 272.60807248 7.09293287 273.08560874 4.875 273.5625 C3.44231954 273.88359848 2.00999377 274.20628373 0.57803345 274.53057861 C-3.17319919 275.37533017 -6.9289837 276.19762474 -10.68663597 277.01329422 C-13.19816481 277.55921133 -15.70872625 278.1093982 -18.21907043 278.66073608 C-25.34656583 280.22600571 -32.47446955 281.78928481 -39.60571289 283.33740234 C-60.09018291 287.78764625 -80.43723549 292.47238254 -100.6023407 298.21987915 C-123.13261173 304.58783342 -147.20179597 308.74706928 -169.15380859 297.52539062 C-172.19858745 295.57089358 -174.73080721 293.26052436 -177.125 290.5625 C-177.785 289.9025 -178.445 289.2425 -179.125 288.5625 C-179.25 285.4375 -179.25 285.4375 -179.125 282.5625 C-180.259375 282.500625 -181.39375 282.43875 -182.5625 282.375 C-188.72153115 281.55742949 -193.81985191 279.13770728 -197.9921875 274.4765625 C-201.28032409 269.86687819 -202.84899871 266.31742052 -203.125 260.5625 C-202.53606851 257.18474016 -201.57532087 253.96006084 -200.5625 250.6875 C-200.28873535 249.77000977 -200.0149707 248.85251953 -199.73291016 247.90722656 C-194.45402355 230.46788589 -188.63804258 212.85381078 -177.875 197.9375 C-169.00561441 185.5552943 -162.01611035 171.83433035 -154.7890625 158.4609375 C-153.25170876 155.61781942 -151.69526584 152.79226882 -150.07421875 149.99609375 C-148.14870022 146.60424848 -146.35433366 143.1675095 -144.57324219 139.69873047 C-140.56056737 131.90494107 -136.39015608 124.59135369 -131.125 117.5625 C-127.40786073 112.30723414 -124.3107529 107.04232305 -121.51171875 101.25 C-120.00471467 98.32938365 -118.31730229 95.59123847 -116.5625 92.8125 C-114.01397996 88.76821306 -111.64534096 84.71099203 -109.43359375 80.47265625 C-103.22488685 68.58753756 -96.45613542 58.03581221 -87.89941406 47.71044922 C-86.08444923 45.51341281 -84.30093331 43.2938337 -82.5234375 41.06640625 C-70.81562013 26.44988491 -70.81562013 26.44988491 -63.6875 21.0625 C-62.90890625 20.46308594 -62.1303125 19.86367188 -61.328125 19.24609375 C-60.02991666 18.25402319 -58.72897533 17.2654815 -57.421875 16.28515625 C-53.76227214 13.4248877 -51.2418014 10.19163802 -48.546875 6.46875 C-46.62233158 3.88859288 -44.48185554 1.75492376 -42.125 -0.4375 C-41.47789062 -1.08976563 -40.83078125 -1.74203125 -40.1640625 -2.4140625 C-25.89790734 -16.17965081 -13.97633094 -10.92558343 0 0 Z M-30.125 120.5625 C-35.63475503 125.91920628 -39.71281083 131.30069574 -43.375 138 C-44.16468302 139.42876233 -44.95506136 140.85714055 -45.74609375 142.28515625 C-46.1416748 143.00074707 -46.53725586 143.71633789 -46.94482422 144.45361328 C-48.05660418 146.44028173 -49.19401013 148.40850417 -50.34765625 150.37109375 C-53.29112175 155.38719303 -56.14579093 160.26180018 -58.125 165.75 C-59.51002406 169.47937214 -61.24973668 172.23299394 -63.6875 175.375 C-67.55344183 180.44637387 -70.42959453 185.75666327 -73.3125 191.4375 C-77.18942496 199.06805549 -81.36572953 206.38908549 -85.9375 213.625 C-94.26483087 225.32661654 -94.26483087 225.32661654 -98.125 238.5625 C-95.46665931 238.20973609 -94.39307902 237.89482375 -92.68041992 235.77172852 C-92.24318604 235.00272217 -91.80595215 234.23371582 -91.35546875 233.44140625 C-90.86288574 232.59392822 -90.37030273 231.7464502 -89.86279297 230.87329102 C-89.35119629 229.96635498 -88.83959961 229.05941895 -88.3125 228.125 C-87.23870766 226.26907661 -86.16191936 224.41488314 -85.08203125 222.5625 C-84.56850098 221.68078125 -84.0549707 220.7990625 -83.52587891 219.890625 C-81.99389633 217.3446184 -80.31261677 214.97837356 -78.5 212.625 C-74.40240734 207.03193557 -71.79354094 200.66153216 -68.8972168 194.39648438 C-64.96361828 185.98760163 -60.51621822 178.23639711 -54.25 171.3125 C-51.90533648 168.27822957 -51.39059762 166.18441653 -50.6484375 162.515625 C-49.63574417 158.73691855 -47.17338896 155.81140052 -44.6953125 152.859375 C-42.60285815 149.79877013 -41.32626661 146.47851878 -39.9375 143.0625 C-36.79618288 135.57212941 -32.92179988 129.14096841 -28.125 122.5625 C-29.115 121.5725 -29.115 121.5725 -30.125 120.5625 Z M-116.125 157.5625 C-116.125 160.5625 -116.125 160.5625 -116.125 160.5625 Z M-124.125 171.5625 C-124.785 172.8825 -125.445 174.2025 -126.125 175.5625 C-125.465 175.5625 -124.805 175.5625 -124.125 175.5625 C-123.795 174.2425 -123.465 172.9225 -123.125 171.5625 C-123.455 171.5625 -123.785 171.5625 -124.125 171.5625 Z M-156.125 228.5625 C-155.125 230.5625 -155.125 230.5625 -155.125 230.5625 Z M-164.125 244.5625 C-164.455 245.2225 -164.785 245.8825 -165.125 246.5625 C-164.465 246.5625 -163.805 246.5625 -163.125 246.5625 C-163.455 245.9025 -163.785 245.2425 -164.125 244.5625 Z " fill="#2B9CFC" transform="translate(1540.125,552.4375)"/>
<path d="M0 0 C1.6796875 1.265625 1.6796875 1.265625 2.51171875 3.265625 C2.6796875 5.265625 2.6796875 5.265625 1.2421875 7.515625 C0.7265625 8.093125 0.2109375 8.670625 -0.3203125 9.265625 C2.3196875 9.265625 4.9596875 9.265625 7.6796875 9.265625 C7.6796875 10.585625 7.6796875 11.905625 7.6796875 13.265625 C8.7521875 13.3275 9.8246875 13.389375 10.9296875 13.453125 C14.6796875 14.265625 14.6796875 14.265625 16.8359375 16.234375 C19.31450517 20.30930828 19.57439474 23.8890008 19.9296875 28.578125 C20.00703125 29.41408203 20.084375 30.25003906 20.1640625 31.11132812 C20.3514974 33.1613973 20.51772474 35.21338634 20.6796875 37.265625 C23.6496875 38.255625 23.6496875 38.255625 26.6796875 39.265625 C30.32322683 52.04230292 20.49723488 68.30933759 14.6796875 79.265625 C13.6811674 80.93317871 12.6812751 82.59991192 11.6796875 84.265625 C10.78918285 86.05066373 9.89987365 87.83638724 9.02954102 89.63134766 C4.72991977 98.49332684 -0.09295609 106.92264034 -5.3203125 115.265625 C-5.70896484 115.88775879 -6.09761719 116.50989258 -6.49804688 117.15087891 C-9.9322614 122.62717388 -13.35683526 128.04453998 -17.30859375 133.1640625 C-20.26275473 137.0627733 -22.55239377 141.13028835 -24.8203125 145.453125 C-31.61368832 158.03729191 -39.71887416 169.78892181 -47.9921875 181.4375 C-50.73553623 185.3466672 -53.13988984 189.30536647 -55.3828125 193.515625 C-61.17820785 204.08596403 -67.79920636 214.13436204 -74.3203125 224.265625 C-81.00453811 234.67228639 -87.51724168 245.10595738 -93.48046875 255.9453125 C-94.39119141 257.58886719 -94.39119141 257.58886719 -95.3203125 259.265625 C-95.83464844 260.23757813 -96.34898437 261.20953125 -96.87890625 262.2109375 C-97.35457031 262.88898438 -97.83023438 263.56703125 -98.3203125 264.265625 C-99.3103125 264.265625 -100.3003125 264.265625 -101.3203125 264.265625 C-100.86721888 258.14382679 -98.06246941 253.51596259 -95.1328125 248.265625 C-94.59889893 247.29866699 -94.06498535 246.33170898 -93.51489258 245.33544922 C-88.10687354 235.668488 -82.15806291 226.37610188 -76.13671875 217.08398438 C-73.05108261 212.29627153 -70.02663415 207.47066006 -67.0078125 202.640625 C-66.39204346 201.65553955 -65.77627441 200.6704541 -65.1418457 199.65551758 C-59.52976017 190.64943931 -54.02666803 181.57863207 -48.52954102 172.50219727 C-39.98431779 158.39485174 -31.3764346 144.33634416 -22.35546875 130.52709961 C-18.47715054 124.56816604 -14.76723911 118.51262666 -11.11083984 112.4152832 C-8.37065075 107.87316162 -5.45484945 103.54612169 -2.3203125 99.265625 C-2.6503125 98.935625 -2.9803125 98.605625 -3.3203125 98.265625 C-7.5352252 104.17162729 -11.56554548 110.14112076 -15.3515625 116.33203125 C-17.02524091 118.82594491 -18.77529237 121.126884 -20.64453125 123.47265625 C-24.37733384 128.22228492 -27.52008737 133.22067765 -30.6328125 138.390625 C-34.54443969 144.80162957 -38.49777574 151.16246963 -42.6953125 157.390625 C-43.10515381 157.99962646 -43.51499512 158.60862793 -43.93725586 159.23608398 C-44.33178955 159.82204346 -44.72632324 160.40800293 -45.1328125 161.01171875 C-50.87231555 169.54922954 -56.16113659 178.33233049 -61.42529297 187.16674805 C-65.2804078 193.6055848 -69.26887604 199.94882122 -73.3203125 206.265625 C-81.80130732 219.51041266 -89.97453147 232.89504329 -97.5078125 246.703125 C-108.87608102 267.42577689 -108.87608102 267.42577689 -117.3203125 272.265625 C-120.1328125 272.578125 -120.1328125 272.578125 -122.3203125 272.265625 C-123.3203125 271.265625 -123.3203125 271.265625 -123.41796875 269.19921875 C-123.40636719 268.37550781 -123.39476562 267.55179688 -123.3828125 266.703125 C-123.37378906 265.87683594 -123.36476563 265.05054688 -123.35546875 264.19921875 C-123.34386719 263.56113281 -123.33226562 262.92304687 -123.3203125 262.265625 C-124.3103125 261.935625 -125.3003125 261.605625 -126.3203125 261.265625 C-128.20696745 262.44703973 -128.20696745 262.44703973 -130.0703125 264.140625 C-133.81450466 267.08249027 -136.42031948 268.35636561 -141.3203125 268.265625 C-145.45284979 266.72605228 -148.79448319 264.91404511 -151.3203125 261.265625 C-151.94368126 257.93924548 -152.19134779 254.64450037 -152.3203125 251.265625 C-154.021875 251.08 -154.021875 251.08 -155.7578125 250.890625 C-156.9334375 250.684375 -158.1090625 250.478125 -159.3203125 250.265625 C-159.8153125 249.275625 -159.8153125 249.275625 -160.3203125 248.265625 C-161.403125 248.4821875 -161.403125 248.4821875 -162.5078125 248.703125 C-165.11197917 249.22395833 -167.71614583 249.74479167 -170.3203125 250.265625 C-178.85145595 240.24914854 -178.85145595 240.24914854 -179.3828125 234.578125 C-178.89894495 228.98285662 -175.91189895 224.4766905 -173.08178711 219.76708984 C-170.06087369 214.72468041 -167.64091322 209.65246101 -165.4453125 204.203125 C-162.05736357 195.84474934 -158.26624719 187.73439924 -154.32128906 179.62524414 C-151.92034376 174.67256348 -149.62333162 169.71292202 -147.51806641 164.62768555 C-144.62505333 157.64067267 -141.04047658 151.71152664 -136.5625 145.59765625 C-134.08902958 142.08566564 -132.31763813 138.3372171 -130.5078125 134.453125 C-127.6678744 128.39673079 -124.26747501 123.26798461 -120.1328125 118.015625 C-115.9632039 112.70965975 -113.10169519 107.97092843 -110.77734375 101.58984375 C-107.63668343 94.42442302 -103.02980399 87.96990092 -98.74804688 81.44384766 C-97.5354907 79.59391158 -96.33796268 77.73586282 -95.1484375 75.87109375 C-91.17038722 69.73141698 -86.82725941 63.98284173 -82.25463867 58.28198242 C-79.66596733 55.04104744 -77.28104174 51.78269424 -75.0703125 48.265625 C-72.38904453 44.10927551 -69.20936738 41.27430043 -65.3203125 38.265625 C-61.06858871 34.95105611 -57.61318901 31.50171032 -54.2578125 27.265625 C-41.08199569 10.8126885 -22.96412163 -10.29707945 0 0 Z M5.9296875 81.515625 C4.41493663 83.21048284 4.41493663 83.21048284 4.9921875 85.453125 C5.2190625 86.05125 5.4459375 86.649375 5.6796875 87.265625 C7.38852755 85.64222695 9.05415467 83.97243447 10.6796875 82.265625 C10.6796875 81.605625 10.6796875 80.945625 10.6796875 80.265625 C7.72812402 79.9750059 7.72812402 79.9750059 5.9296875 81.515625 Z M-71.3203125 100.265625 C-76.28079617 107.27595924 -76.28079617 107.27595924 -79.3203125 115.265625 C-75.20447901 111.75954462 -72.41464232 107.21933663 -70.3203125 102.265625 C-70.6503125 101.605625 -70.9803125 100.945625 -71.3203125 100.265625 Z M-124.3203125 190.265625 C-126.44853134 193.08274146 -126.44853134 193.08274146 -128.3203125 196.265625 C-127.9903125 197.255625 -127.6603125 198.245625 -127.3203125 199.265625 C-125.19209366 196.44850854 -125.19209366 196.44850854 -123.3203125 193.265625 C-123.6503125 192.275625 -123.9803125 191.285625 -124.3203125 190.265625 Z " fill="#2B9CFC" transform="translate(1060.3203125,551.734375)"/>
<path d="M0 0 C0.99 0.33 1.98 0.66 3 1 C2.52083543 6.99444654 -0.11854785 11.50888189 -2.9375 16.6875 C-3.94836366 18.5713748 -4.95877102 20.45549451 -5.96875 22.33984375 C-6.73445313 23.76079346 -6.73445313 23.76079346 -7.515625 25.21044922 C-8.88942101 27.79219152 -10.21987469 30.39003039 -11.53125 33.00390625 C-15.63319718 41.13486237 -20.00602444 48.85577687 -25.25 56.3125 C-25.73331787 56.99989258 -26.21663574 57.68728516 -26.71459961 58.39550781 C-29.81488611 62.67359533 -33.17746235 66.35275624 -37 70 C-37.66 69.67 -38.32 69.34 -39 69 C-38.64808594 68.46221924 -38.29617188 67.92443848 -37.93359375 67.37036133 C-34.47920266 62.08674389 -31.04126272 56.79277477 -27.61523438 51.49072266 C-26.3112666 49.47997911 -24.99536049 47.47835327 -23.671875 45.48046875 C-19.15822284 38.48063826 -15.75803331 31.23353463 -12.44458008 23.61816406 C-8.84279462 15.41813828 -4.55163336 7.70441958 0 0 Z " fill="#358FE5" transform="translate(1306,781)"/>
<path d="M0 0 C0.495 1.485 0.495 1.485 1 3 C0.09990594 4.70017768 -0.81479535 6.39512311 -1.8203125 8.03515625 C-3.01392267 10.02318908 -4.04629225 12.04138024 -5.0625 14.125 C-6.14491422 16.33633843 -7.23036923 18.359376 -8.5625 20.4375 C-9.84498961 22.72367713 -10.43422813 24.44889141 -11.125 26.9375 C-12.71198364 31.96433298 -15.46958457 36.07264848 -18.38476562 40.40380859 C-21.32252623 44.80926682 -23.75998857 49.32956384 -26.125 54.0625 C-28.92101984 59.58539005 -31.43522365 63.10167898 -37 66 C-31.29451168 51.49253714 -24.67928944 36.41202828 -14.125 24.75 C-11.78033648 21.71572957 -11.26559762 19.62191653 -10.5234375 15.953125 C-9.46458878 12.00219695 -6.76909858 8.99697965 -4.3125 5.8125 C-2.80882535 3.92695252 -2.80882535 3.92695252 -2 1 C-1.34 0.67 -0.68 0.34 0 0 Z " fill="#3396F0" transform="translate(1499,699)"/>
<path d="M0 0 C0.66 0.33 1.32 0.66 2 1 C0.56241966 5.43456987 -1.8804597 8.45833906 -4.9375 11.875 C-9.1348921 16.68608266 -13.02251102 21.62936679 -16.75 26.8125 C-27.73522026 42.00022364 -27.73522026 42.00022364 -33 43 C-33.99 43.495 -33.99 43.495 -35 44 C-33.61133824 40.88582289 -31.98066491 38.7625903 -29.625 36.3125 C-25.69736059 31.99993767 -22.37783741 27.409098 -19.0625 22.625 C-6.44225615 4.45781117 -6.44225615 4.45781117 0 0 Z " fill="#378BD9" transform="translate(1259,636)"/>
<path d="M0 0 C0.82421875 1.62890625 0.82421875 1.62890625 1 4 C-0.65764652 6.1866172 -2.26436472 8.00798135 -4.1875 9.9375 C-5.30127845 11.09457369 -6.41454514 12.25214018 -7.52734375 13.41015625 C-8.10339355 14.00199707 -8.67944336 14.59383789 -9.27294922 15.20361328 C-11.475058 17.49413016 -13.60365873 19.84614039 -15.73461914 22.20263672 C-20.53547611 27.50082751 -25.4279964 32.49323238 -31 37 C-31.33 36.34 -31.66 35.68 -32 35 C-32.66 34.67 -33.32 34.34 -34 34 C-33.52691406 33.59910156 -33.05382812 33.19820312 -32.56640625 32.78515625 C-25.12980744 26.39229061 -18.28454796 19.57526826 -11.90625 12.12890625 C-8.12526991 7.90629529 -4.04300347 3.96979013 0 0 Z " fill="#2C8BE1" transform="translate(544,783)"/>
<path d="M0 0 C-4.9090144 4.41746618 -9.86159897 7.99330873 -15.5625 11.3125 C-16.29146484 11.75400391 -17.02042969 12.19550781 -17.77148438 12.65039062 C-21.85250286 15.04904506 -25.18669599 16.59699034 -30 17 C-25.95190747 12.58170418 -21.49082932 9.50065197 -16.4375 6.3125 C-15.68275391 5.82716797 -14.92800781 5.34183594 -14.15039062 4.84179688 C-12.11135369 3.53932835 -10.07649405 2.24191476 -8 1 C-7.34136963 0.59934326 -6.68273926 0.19868652 -6.00415039 -0.21411133 C-3.57794835 -1.16549936 -2.413352 -0.86191143 0 0 Z " fill="#3E93E7" transform="translate(267,826)"/>
<path d="M0 0 C0.99 0.33 1.98 0.66 3 1 C1.54473345 6.23570758 -0.83149395 10.28068608 -3.8125 14.75 C-4.45155273 15.75740234 -4.45155273 15.75740234 -5.10351562 16.78515625 C-7.62249304 20.58839296 -9.36629955 22.83533561 -14 24 C-12.30802758 18.92408275 -9.36831006 14.73685988 -6.4375 10.3125 C-5.43537449 8.78830148 -4.43403407 7.26358641 -3.43359375 5.73828125 C-2.99072021 5.06837158 -2.54784668 4.39846191 -2.09155273 3.70825195 C-0.95043193 1.98815958 -0.95043193 1.98815958 0 0 Z " fill="#3091E9" transform="translate(1150,783)"/>
<path d="M0 0 C0.99 0.33 1.98 0.66 3 1 C0.67334019 3.52706156 -1.66255116 6.045418 -4 8.5625 C-4.64839844 9.26697266 -5.29679688 9.97144531 -5.96484375 10.69726562 C-10.39328994 15.45455683 -15.02500939 19.81806391 -20 24 C-20.33 23.01 -20.66 22.02 -21 21 C-14.07 14.07 -7.14 7.14 0 0 Z " fill="#3C94E7" transform="translate(533,796)"/>
<path d="M0 0 C0.99 0.33 1.98 0.66 3 1 C1.77973218 2.75621671 0.54835931 4.50471995 -0.6875 6.25 C-1.37199219 7.22453125 -2.05648438 8.1990625 -2.76171875 9.203125 C-6.24272153 13.55285971 -9.73479977 16.19478849 -15 18 C-13.52640603 14.66741055 -11.62902004 12.25610816 -9.1875 9.5625 C-8.47980469 8.78132812 -7.77210937 8.00015625 -7.04296875 7.1953125 C-4.75073802 4.7321506 -2.41644128 2.34092749 0 0 Z " fill="#3992EC" transform="translate(1239,662)"/>
<path d="M0 0 C-18.53154461 8.34237919 -18.53154461 8.34237919 -26 6 C-18.75750504 2.31325192 -8.10438651 -2.88461215 0 0 Z " fill="#3691E7" transform="translate(216,853)"/>
<path d="M0 0 C0.33 0.99 0.66 1.98 1 3 C0.10126671 4.69760732 -0.81183782 6.39014052 -1.81640625 8.02734375 C-3.40418879 10.67364799 -4.726689 13.42704338 -6.0703125 16.203125 C-7 18 -7 18 -9 21 C-9.66 21 -10.32 21 -11 21 C-10.47630242 14.45378024 -8.24318733 10.90783543 -4.3125 5.8125 C-2.80882535 3.92695252 -2.80882535 3.92695252 -2 1 C-1.34 0.67 -0.68 0.34 0 0 Z " fill="#388ADE" transform="translate(1499,699)"/>
<path d="M0 0 C0 0.66 0 1.32 0 2 C-2.0372203 2.98838433 -4.07999607 3.96532252 -6.125 4.9375 C-7.83042969 5.75541016 -7.83042969 5.75541016 -9.5703125 6.58984375 C-12.78186661 7.9103119 -15.56709079 8.58784221 -19 9 C-15.35357665 4.44197081 -5.82100411 -2.91050206 0 0 Z " fill="#3393EC" transform="translate(1065,759)"/>
<path d="M0 0 C0.66 0.33 1.32 0.66 2 1 C-2.2964154 5.00998771 -7.33922609 7.4996648 -13 9 C-15.30859375 8.60546875 -15.30859375 8.60546875 -17 8 C-14.730384 6.85170023 -12.45939222 5.70628022 -10.1875 4.5625 C-9.54490234 4.23701172 -8.90230469 3.91152344 -8.24023438 3.57617188 C-5.51734534 2.20767324 -2.89550206 0.96516735 0 0 Z " fill="#2F93E3" transform="translate(234,843)"/>
<path d="M0 0 C-1.42722659 1.1998278 -2.86715776 2.3845576 -4.3125 3.5625 C-5.51326172 4.55443359 -5.51326172 4.55443359 -6.73828125 5.56640625 C-7.85783203 6.27603516 -7.85783203 6.27603516 -9 7 C-9.99 6.67 -10.98 6.34 -12 6 C-4.43243243 -2.21621622 -4.43243243 -2.21621622 0 0 Z " fill="#3F84CD" transform="translate(843,588)"/>
<path d="M0 0 C1.32 0.66 2.64 1.32 4 2 C0.80009492 4.74277578 -2.00499382 6.6302836 -6 8 C-4.55746343 4.63408134 -2.66735273 2.48952921 0 0 Z " fill="#4881CF" transform="translate(1230,672)"/>
<path d="M0 0 C0 0.66 0 1.32 0 2 C-8.42857143 5.42857143 -8.42857143 5.42857143 -13 5 C-8.77614544 1.55834073 -5.49939416 0 0 0 Z " fill="#438DD8" transform="translate(349,628)"/>
<path d="M0 0 C1 3 1 3 -0.4375 6.1875 C-1.2109375 7.5796875 -1.2109375 7.5796875 -2 9 C-2.66 9 -3.32 9 -4 9 C-4.8125 7.3125 -4.8125 7.3125 -5 5 C-2.5625 2.25 -2.5625 2.25 0 0 Z " fill="#3F97DF" transform="translate(1293,812)"/>
<path d="M0 0 C0.33 0.66 0.66 1.32 1 2 C1.66 2.33 2.32 2.66 3 3 C1.02 4.98 -0.96 6.96 -3 9 C-3.66 8.67 -4.32 8.34 -5 8 C-3.35 5.36 -1.7 2.72 0 0 Z " fill="#349AF1" transform="translate(1272,842)"/>
<path d="M0 0 C0.66 0.33 1.32 0.66 2 1 C-3.14285714 5.42857143 -3.14285714 5.42857143 -7 6 C-7 5.34 -7 4.68 -7 4 C-6.34 4 -5.68 4 -5 4 C-5 3.34 -5 2.68 -5 2 C-2.625 0.9375 -2.625 0.9375 0 0 Z " fill="#3E9BF0" transform="translate(234,843)"/>
<path d="M0 0 C0.66 0.33 1.32 0.66 2 1 C0.5901639 5.2295083 -2.16421847 6.08210924 -6 8 C-4.55746343 4.63408134 -2.66735273 2.48952921 0 0 Z M-8 8 C-6 9 -6 9 -6 9 Z " fill="#3486D7" transform="translate(1524,655)"/>
<path d="M0 0 C0.99 0.33 1.98 0.66 3 1 C0.59563974 4.60654039 -0.94679607 4.85452932 -5 6 C-3.63016497 2.83884224 -3.0109362 2.0072908 0 0 Z " fill="#288EE4" transform="translate(1242,658)"/>
<path d="M0 0 C0.66 0.33 1.32 0.66 2 1 C-2.455 3.97 -2.455 3.97 -7 7 C-6 3 -6 3 -3.0625 1.1875 C-2.051875 0.795625 -1.04125 0.40375 0 0 Z " fill="#258BE1" transform="translate(780,812)"/>
<path d="M0 0 C-3.00617269 3.00617269 -5.82381598 2.59585316 -10 3 C-9 1 -9 1 -7.25 0.375 C-4.79549443 -0.03408426 -2.4840589 -0.06900164 0 0 Z " fill="#2B9CFD" transform="translate(189,860)"/>
<path d="M0 0 C0.66 0 1.32 0 2 0 C1.375 1.875 1.375 1.875 0 4 C-3.125 5.25 -3.125 5.25 -6 6 C-4 4 -2 2 0 0 Z " fill="#5181D0" transform="translate(819,600)"/>
<path d="M0 0 C0.99 0.33 1.98 0.66 3 1 C1.35 2.65 -0.3 4.3 -2 6 C-2.66 5.67 -3.32 5.34 -4 5 C-2.68 3.35 -1.36 1.7 0 0 Z " fill="#3C93ED" transform="translate(768,645)"/>
<path d="M0 0 C1.98 0.495 1.98 0.495 4 1 C2.35 1.33 0.7 1.66 -1 2 C-0.67 1.34 -0.34 0.68 0 0 Z " fill="#869AB6" transform="translate(326,635)"/>
<path d="M0 0 C0.66 0.33 1.32 0.66 2 1 C0.02 1.99 0.02 1.99 -2 3 C-1.34 2.01 -0.68 1.02 0 0 Z " fill="#ABD6E7" transform="translate(551,572)"/>
<path d="M0 0 C0.33 0.66 0.66 1.32 1 2 C0.01 2.33 -0.98 2.66 -2 3 C-2 2.34 -2 1.68 -2 1 C-1.34 0.67 -0.68 0.34 0 0 Z " fill="#725351" transform="translate(846,584)"/>
<path d="M0 0 C0.33 0.66 0.66 1.32 1 2 C0.34 1.67 -0.32 1.34 -1 1 C-0.67 0.67 -0.34 0.34 0 0 Z " fill="#89C8FF" transform="translate(803,614)"/>
<path d="" fill="#A6DDFF" transform="translate(0,0)"/>
<path d="M0 0 C2 1 2 1 2 1 Z " fill="#37A3FF" transform="translate(518,602)"/>
<path d="M0 0 C2 1 2 1 2 1 Z " fill="#269CFF" transform="translate(850,583)"/>
<path d="" fill="#B7E7FF" transform="translate(0,0)"/>
<path d="" fill="#A3D9FF" transform="translate(0,0)"/>
<path d="" fill="#C8E9FF" transform="translate(0,0)"/>
</svg>
