<svg xmlns="http://www.w3.org/2000/svg" width="1899" height="839" viewBox="0 0 1899 839" version="1.1"><path d="M 234.184 28.750 C 233.558 30.813, 231.454 40.375, 229.506 50 C 227.559 59.625, 224.617 73.800, 222.968 81.500 C 221.319 89.200, 219.280 99.100, 218.437 103.500 C 217.593 107.900, 216.493 113.075, 215.991 115 C 215.489 116.925, 213.693 125.250, 212 133.500 C 210.307 141.750, 208.517 150.075, 208.022 152 C 206.640 157.381, 200.228 188.701, 196.966 206 C 195.359 214.525, 192.857 226.675, 191.407 233 C 189.956 239.325, 188.200 247.425, 187.504 251 C 186.808 254.575, 185.237 262.675, 184.012 269 C 182.787 275.325, 181.440 281.400, 181.019 282.500 C 180.599 283.600, 179.258 289.450, 178.041 295.500 C 176.823 301.550, 174.735 311.675, 173.400 318 C 172.066 324.325, 170.558 331.833, 170.050 334.685 C 169.542 337.536, 168.424 342.711, 167.566 346.185 C 166.707 349.658, 165.374 355.650, 164.603 359.500 C 163.833 363.350, 162.257 371.224, 161.101 376.998 C 159.945 382.772, 159 388.288, 159 389.255 C 159 390.919, 162.735 391, 228.250 390.757 L 297.500 390.500 299.827 379.500 C 301.107 373.450, 302.970 364.225, 303.967 359 C 304.963 353.775, 306.991 343.875, 308.474 337 C 309.957 330.125, 312.263 319.325, 313.600 313 C 317.296 295.512, 323.582 266.261, 324.721 261.250 L 325.233 259 383.537 259 L 441.841 259 442.496 255.750 C 442.856 253.963, 443.767 249.800, 444.521 246.500 C 445.274 243.200, 447.297 233.750, 449.016 225.500 C 450.735 217.250, 452.989 206.675, 454.023 202 C 455.728 194.298, 457.366 186.197, 458.725 178.750 L 459.227 176 434.363 176.007 C 410.187 176.014, 344.889 174.143, 344.114 173.421 C 343.741 173.073, 345.045 165.301, 347.036 156 C 348.384 149.705, 355 115.303, 355 114.588 C 355 114.264, 390.325 114, 433.500 114 L 512 114 512 116.390 C 512 117.704, 511.048 123.217, 509.883 128.640 C 508.719 134.063, 507.139 141.425, 506.371 145 C 505.603 148.575, 504.573 153.525, 504.082 156 C 502.374 164.615, 500.038 175.574, 497.474 187 C 496.055 193.325, 494.229 202.100, 493.416 206.500 C 492.603 210.900, 491.278 217.200, 490.473 220.500 C 489.667 223.800, 488.072 231, 486.928 236.500 C 485.784 242, 483.745 251.675, 482.397 258 C 481.049 264.325, 479.320 272.650, 478.554 276.500 C 477.789 280.350, 475.999 288.900, 474.578 295.500 C 473.156 302.100, 471.117 311.775, 470.046 317 C 468.976 322.225, 466.934 331.900, 465.510 338.500 C 464.085 345.100, 462.482 353.200, 461.948 356.500 C 461.413 359.800, 459.892 367.450, 458.567 373.500 C 457.242 379.550, 455.909 385.962, 455.604 387.750 L 455.050 391 626.966 391 C 745.544 391, 799.083 390.675, 799.528 389.954 C 799.884 389.379, 801.025 384.991, 802.064 380.204 C 803.103 375.417, 805.056 366.394, 806.406 360.154 C 807.755 353.914, 809.104 348.563, 809.403 348.264 C 809.702 347.965, 810.810 348.346, 811.866 349.110 C 813.896 350.580, 826.104 358.776, 832 362.627 C 843.318 370.020, 870.300 380.422, 891.162 385.435 C 913.474 390.796, 917.926 391, 1012.588 391 L 1100.073 391 1106.417 377.750 C 1109.907 370.463, 1116.924 355.950, 1122.010 345.500 C 1135.980 316.801, 1144.922 298.189, 1148.059 291.287 L 1150.883 285.074 1212.192 284.787 C 1245.911 284.629, 1273.874 284.784, 1274.330 285.130 C 1274.787 285.477, 1275.781 291.552, 1276.539 298.630 C 1277.298 305.709, 1278.363 314.650, 1278.906 318.500 C 1279.449 322.350, 1280.403 330.450, 1281.026 336.500 C 1281.649 342.550, 1282.591 350.650, 1283.119 354.500 C 1283.647 358.350, 1284.705 367.680, 1285.470 375.233 C 1286.235 382.786, 1287.143 389.423, 1287.489 389.983 C 1287.910 390.663, 1327.337 391, 1406.584 391 L 1525.050 391 1525.893 388.750 C 1526.357 387.512, 1528.333 378.625, 1530.284 369 C 1535.019 345.642, 1534.711 347.096, 1536.004 342 C 1537.252 337.085, 1541.884 315.318, 1545.047 299.500 C 1546.147 294, 1547.269 288.786, 1547.539 287.913 C 1547.977 286.500, 1554.214 286.252, 1604.766 285.641 C 1635.969 285.265, 1664.200 284.531, 1667.500 284.013 C 1704.870 278.136, 1734.459 263.277, 1760.521 237.300 C 1772.832 225.028, 1777.432 218.756, 1787.506 200.500 C 1792.899 190.727, 1798.589 175.590, 1801.415 163.500 C 1802.314 159.650, 1803.602 154.475, 1804.275 152 C 1805.083 149.034, 1805.500 139.319, 1805.500 123.500 C 1805.500 99.652, 1805.482 99.449, 1802.650 91.500 C 1791.150 59.219, 1766.902 37.097, 1732.873 27.843 L 1724.500 25.566 1594.575 25.257 C 1523.117 25.088, 1464.274 25.326, 1463.813 25.787 C 1463.352 26.248, 1462.313 29.972, 1461.504 34.062 C 1459.966 41.832, 1453.827 70.799, 1451.344 82 C 1450.552 85.575, 1448.845 93.675, 1447.551 100 C 1446.256 106.325, 1444.022 116.900, 1442.585 123.500 C 1441.148 130.100, 1439.310 138.650, 1438.500 142.500 C 1436.432 152.338, 1432.328 171.447, 1429.372 185 C 1427.993 191.325, 1426.434 198.750, 1425.908 201.500 C 1424.593 208.370, 1421.164 224.247, 1419.429 231.500 C 1417.821 238.219, 1414.667 253.693, 1411.989 268 C 1407.270 293.212, 1405.900 297.512, 1404.579 291.250 C 1403.975 288.388, 1400.550 264.020, 1398.921 251 C 1398.405 246.875, 1397.299 239.675, 1396.463 235 C 1395.627 230.325, 1394.303 221.550, 1393.520 215.500 C 1392.195 205.256, 1390.779 195.329, 1384.389 151.500 C 1383.026 142.150, 1381.304 130, 1380.562 124.500 C 1379.820 119, 1378.683 111.350, 1378.036 107.500 C 1377.388 103.650, 1376.246 96, 1375.497 90.500 C 1371.677 62.454, 1368.750 42.327, 1366.442 28.250 L 1365.909 25 1270.011 25 L 1174.113 25 1164.689 41.750 C 1159.506 50.963, 1150.178 67.725, 1143.960 79 C 1137.743 90.275, 1130.258 103.678, 1127.328 108.785 C 1124.397 113.892, 1122 118.289, 1122 118.555 C 1122 118.822, 1120.862 120.843, 1119.470 123.048 C 1116.355 127.982, 1101.247 154.962, 1094.019 168.500 C 1091.082 174, 1087.920 179.625, 1086.991 181 C 1086.063 182.375, 1082.922 188, 1080.012 193.500 C 1077.103 199, 1074.175 204.175, 1073.507 205 C 1072.839 205.825, 1071.628 207.850, 1070.816 209.500 C 1068.195 214.826, 1060.730 228.427, 1059.015 231 C 1056.382 234.951, 1048.768 248.522, 1042.528 260.386 C 1039.378 266.374, 1034.305 275.599, 1031.252 280.886 C 1028.200 286.174, 1025.207 291.400, 1024.601 292.500 C 1021.591 297.967, 1021.489 298.001, 1008.095 297.988 C 986.880 297.968, 962.084 295.117, 951.220 291.449 C 932.095 284.990, 915.149 267.132, 909.989 248 C 908.093 240.969, 906.392 225.674, 907.146 222.432 C 907.521 220.819, 908.332 215.540, 908.950 210.700 C 912.506 182.813, 930.113 154.773, 954.044 138.886 C 958.695 135.799, 965.200 131.914, 968.500 130.254 C 976.732 126.112, 995.032 120.256, 1003.500 119.054 C 1013.512 117.633, 1043.691 116, 1059.952 116 C 1067.588 116, 1074.543 115.729, 1075.407 115.397 C 1076.271 115.066, 1081.323 106.853, 1086.634 97.147 C 1103.366 66.569, 1118.132 39.748, 1122.136 32.662 C 1124.261 28.901, 1126 25.639, 1126 25.412 C 1126 24.665, 1033.072 25.113, 1004.500 25.997 C 976.589 26.861, 968.645 27.772, 948.500 32.419 C 913.326 40.533, 879.837 56.978, 849.770 80.901 C 824.945 100.653, 800.636 133.052, 786.672 165 C 782.762 173.945, 778.996 184.353, 778.956 186.326 C 778.932 187.522, 778.260 190.300, 777.462 192.500 C 776.665 194.700, 774.793 203.025, 773.304 211 C 770.959 223.553, 770.592 228.119, 770.566 245 C 770.536 264.283, 770.767 266.432, 775.125 287.500 C 775.694 290.250, 776.798 294.197, 777.579 296.270 C 778.361 298.344, 779 300.931, 779 302.020 C 779 303.977, 778.051 304, 696 304 L 613 304 613 301.948 C 613 300.820, 613.931 295.082, 615.069 289.198 C 618.089 273.585, 619.800 264.096, 620.515 259 C 621.804 249.813, 615.267 250.699, 675.547 251.533 L 728.894 252.271 729.410 249.886 C 730.094 246.723, 735.358 219.561, 738.013 205.500 C 738.636 202.200, 739.757 196.575, 740.504 193 C 743.726 177.586, 745.042 169.878, 744.580 169.129 C 744.307 168.688, 721.303 168.033, 693.459 167.672 C 665.615 167.311, 642.480 166.797, 642.047 166.529 C 641.615 166.262, 641.684 164.121, 642.202 161.772 C 642.719 159.422, 643.725 154.575, 644.438 151 C 646.790 139.199, 652.184 114.506, 652.478 114.201 C 652.636 114.036, 686.304 113.923, 727.295 113.949 L 801.825 113.996 802.493 109.748 C 802.860 107.412, 803.559 104.150, 804.047 102.500 C 804.534 100.850, 805.648 96.125, 806.522 92 C 807.396 87.875, 808.534 82.700, 809.051 80.500 C 809.568 78.300, 811.618 69.075, 813.606 60 C 815.594 50.925, 818.071 39.698, 819.110 35.051 C 820.150 30.404, 821 26.241, 821 25.801 C 821 25.360, 689.222 25, 528.160 25 L 235.320 25 234.184 28.750 M 1239.248 110.252 C 1200.182 187.410, 1192 203.904, 1192 205.502 C 1192 206.659, 1225.664 208, 1254.708 208 L 1266.091 208 1265.544 204.750 C 1265.244 202.963, 1264.324 195.650, 1263.501 188.500 C 1262.678 181.350, 1261.551 172.575, 1260.998 169 C 1260.444 165.425, 1259.072 155.169, 1257.949 146.209 C 1256.825 137.250, 1255.722 129.375, 1255.496 128.709 C 1255.271 128.044, 1254.607 122.100, 1254.020 115.500 C 1252.817 101.964, 1250.973 89.999, 1250.090 90.002 C 1249.765 90.003, 1244.887 99.116, 1239.248 110.252 M 1584.673 110.750 C 1584.428 111.162, 1583.694 114.200, 1583.043 117.500 C 1582.391 120.800, 1581.232 126.425, 1580.467 130 C 1579.702 133.575, 1578.370 140.325, 1577.507 145 C 1576.643 149.675, 1575.535 155.075, 1575.043 157 C 1574.552 158.925, 1573.184 165.900, 1572.003 172.500 C 1570.822 179.100, 1569.160 187.799, 1568.309 191.831 C 1567.253 196.840, 1567.088 199.488, 1567.788 200.188 C 1569.539 201.939, 1629.284 200.597, 1636 198.656 C 1661.534 191.275, 1679.529 168.600, 1679.374 144 C 1679.306 133.241, 1677.071 128.094, 1669.441 121.120 C 1659.590 112.117, 1648.488 110.122, 1607.809 110.044 C 1595.329 110.020, 1584.918 110.338, 1584.673 110.750 M 1468 424.030 C 1459.054 425.549, 1441.844 433.211, 1429 441.395 C 1425.425 443.673, 1421.355 446.039, 1419.955 446.653 C 1410.207 450.932, 1363.367 494.655, 1359.734 502.867 C 1358.669 505.277, 1352.635 512.891, 1346.275 519.853 C 1331.769 535.732, 1329.648 538.436, 1323.029 549.500 C 1320.067 554.450, 1314.574 562.547, 1310.823 567.492 C 1307.071 572.438, 1301.639 580.889, 1298.751 586.271 C 1295.863 591.653, 1291.250 599.456, 1288.500 603.612 C 1285.750 607.767, 1281.243 614.842, 1278.485 619.333 C 1269.916 633.287, 1263.888 640.711, 1259 643.333 C 1256.525 644.661, 1249.100 647.419, 1242.500 649.464 C 1235.900 651.508, 1228.356 654.490, 1225.735 656.090 C 1223.114 657.691, 1220.741 659, 1220.462 659 C 1218.933 659, 1203.651 668.660, 1202.436 670.395 C 1201.646 671.522, 1201 674.370, 1201 676.723 C 1201 682.753, 1201.256 682.713, 1221.525 673.495 C 1236.335 666.760, 1245 664.502, 1245 667.378 C 1245 669.281, 1243.444 670.309, 1236.500 672.989 C 1233.200 674.263, 1228.124 676.361, 1225.220 677.653 C 1222.317 678.944, 1219.617 680.014, 1219.220 680.031 C 1218.824 680.048, 1216.700 681.207, 1214.500 682.607 C 1209.051 686.074, 1213.180 684.824, 1223.792 679.795 C 1233.204 675.334, 1237.235 674.598, 1237.782 677.239 C 1238.021 678.394, 1237.195 679.359, 1235.321 680.114 C 1229.402 682.496, 1228.266 682.992, 1219.866 686.860 C 1209.535 691.616, 1206.560 694.304, 1208.205 697.394 C 1210.099 700.951, 1212.267 701.935, 1218.281 701.968 C 1224.242 702.001, 1226.394 703.551, 1224.242 706.263 C 1223.702 706.943, 1223.024 710.425, 1222.736 714 C 1222.388 718.311, 1221.133 722.857, 1219.010 727.500 C 1214.984 736.302, 1214.058 744.252, 1216.499 749.064 C 1220.086 756.139, 1222.959 757.967, 1231.987 758.920 C 1237.392 759.491, 1237.483 759.555, 1238.065 763.164 C 1238.827 767.879, 1241.291 771.591, 1245.304 774.068 C 1250.477 777.262, 1252.839 777.495, 1256.040 775.129 C 1259.935 772.249, 1262.097 772.448, 1265.500 776 C 1268.999 779.652, 1271.003 779.750, 1275.785 776.500 C 1277.809 775.125, 1280.456 774, 1281.667 774 C 1285.809 774, 1288.924 772.153, 1289.616 769.285 C 1291.171 762.847, 1317.558 718.728, 1336.017 691.707 C 1341.711 683.371, 1356.318 673.471, 1359.760 675.615 C 1361.057 676.423, 1364.933 676.099, 1375 674.342 C 1399.878 669.999, 1408.856 668.731, 1410.433 669.336 C 1412.494 670.127, 1412.580 680.605, 1410.564 685.216 C 1409.774 687.022, 1407.998 692.168, 1406.616 696.650 C 1405.234 701.133, 1402.706 707.074, 1400.996 709.852 C 1399.287 712.630, 1395.924 719.822, 1393.522 725.835 C 1391.121 731.848, 1388.221 738.820, 1387.078 741.329 C 1384.484 747.024, 1384.463 750.027, 1386.983 754.967 C 1389.545 759.988, 1391.998 760.724, 1397.176 758.025 C 1403.569 754.693, 1404.825 755.930, 1402.180 762.949 C 1401.818 763.908, 1402.675 763.655, 1404.721 762.199 C 1410.371 758.176, 1412.165 759.963, 1409.012 766.474 C 1407.358 769.892, 1407.113 771.342, 1407.930 772.869 C 1409.811 776.385, 1414.084 779.002, 1417.885 778.967 C 1421.531 778.933, 1422.781 778.198, 1434.179 769.386 C 1439.695 765.121, 1442.983 763.753, 1444.888 764.931 C 1446.117 765.690, 1443.553 769.587, 1437.575 776.049 C 1433.417 780.543, 1432.968 783, 1436.304 783 C 1439.914 783, 1447.112 777.866, 1452.540 771.421 C 1455.268 768.182, 1458.314 764.625, 1459.310 763.516 C 1463.238 759.141, 1479.716 729.835, 1496.069 698.139 C 1501.096 688.395, 1503.171 685.838, 1504.760 687.427 C 1505.953 688.620, 1501.931 698.210, 1495.500 709.500 C 1489.579 719.897, 1486.464 726.137, 1480.744 739.061 C 1478.423 744.307, 1467.148 762.430, 1461.549 769.914 C 1459.084 773.209, 1458.780 774.872, 1460.880 773.574 C 1461.438 773.230, 1463.339 770.822, 1465.105 768.224 C 1478.884 747.954, 1477.607 750.205, 1498.621 709.116 C 1503.229 700.105, 1507 692.059, 1507 691.235 C 1507 690.411, 1509.094 685.634, 1511.654 680.619 C 1514.213 675.603, 1518.869 665.200, 1521.999 657.500 C 1525.130 649.800, 1530.674 636.187, 1534.319 627.249 C 1544.346 602.660, 1544.336 602.715, 1544.283 573 C 1544.234 546.133, 1543.049 535.402, 1539.161 526.648 C 1536.607 520.895, 1523.221 501.194, 1519.536 497.763 C 1517.866 496.208, 1513.922 493.598, 1510.770 491.964 C 1504.234 488.573, 1502.142 485.960, 1501.765 480.712 C 1501.619 478.685, 1500.938 476.810, 1500.250 476.545 C 1497.866 475.625, 1499.030 473.407, 1505 467.500 C 1508.300 464.234, 1511 460.986, 1511 460.281 C 1511 459.453, 1509.585 459, 1507 459 C 1502.117 459, 1501.926 457.776, 1505.972 452.428 C 1509.531 447.725, 1509.554 447.554, 1506.969 444.969 C 1504.127 442.127, 1499.919 441.532, 1493.022 442.995 C 1489.764 443.687, 1486.333 443.958, 1485.396 443.599 C 1483.830 442.997, 1483.846 442.829, 1485.597 441.499 C 1487.312 440.196, 1486.870 440.075, 1481.106 440.277 C 1472.159 440.589, 1472.282 438.830, 1481.440 435.490 C 1490.286 432.263, 1491.746 430.985, 1489.210 428.690 C 1484.890 424.780, 1475.602 422.740, 1468 424.030 M 969.500 429.003 C 958.078 431.096, 947.547 434.223, 941.005 437.463 C 902.802 456.382, 897.277 459.750, 880 474.640 C 876.425 477.722, 870.904 481.948, 867.732 484.033 C 864.560 486.117, 861.185 488.704, 860.232 489.782 C 859.279 490.860, 854.900 494.793, 850.500 498.522 C 846.100 502.252, 839.325 508.272, 835.444 511.902 C 831.564 515.531, 825.457 521.046, 821.873 524.157 C 818.289 527.268, 811.809 534.468, 807.472 540.157 C 803.135 545.846, 795.336 555.630, 790.141 561.901 C 784.946 568.172, 780.013 574.697, 779.179 576.401 C 778.345 578.105, 773.976 585.125, 769.471 592 C 764.966 598.875, 760.128 606.776, 758.720 609.559 C 757.312 612.341, 754.394 617.291, 752.235 620.559 C 750.077 623.826, 746.844 630.775, 745.051 636 C 743.258 641.225, 741.408 646.400, 740.938 647.500 C 738.346 653.576, 734.782 668.152, 732.993 680 C 731.872 687.425, 730.729 694.127, 730.453 694.894 C 729.732 696.901, 731.891 716.274, 733.752 724.500 C 735.854 733.788, 740.705 743.091, 747.910 751.650 C 754.724 759.745, 779.695 780.577, 788.500 785.511 C 799.302 791.564, 814.880 795.662, 835.227 797.802 C 845.070 798.837, 861.306 796.955, 871.184 793.634 C 891.791 786.707, 898.262 783.360, 908.934 774.110 C 915.824 768.138, 919.027 766, 921.081 766 C 925.119 766, 929 764.290, 929 762.511 C 929 760.461, 933.280 756.554, 946.500 746.530 C 963.393 733.723, 972.391 725.991, 985.871 712.699 C 996.648 702.073, 1003 694.547, 1003 692.406 C 1003 692.058, 1001.630 691.974, 999.956 692.220 C 996.874 692.672, 995.119 691.663, 996.984 690.510 C 997.543 690.165, 998 687.684, 998 684.998 C 998 681.084, 997.558 679.804, 995.777 678.557 C 992.712 676.410, 990.738 676.592, 984.867 679.567 C 982.081 680.979, 979.588 681.921, 979.328 681.661 C 979.067 681.401, 979.335 679.458, 979.922 677.344 C 981.789 670.620, 981.515 669.991, 976.750 670.070 C 971.389 670.159, 970.006 670.739, 965.630 674.735 C 951.471 687.662, 934.449 700.825, 918.396 711.260 C 903.597 720.880, 877.115 737.389, 872 740.184 C 857.341 748.194, 833.756 755.998, 824.202 755.999 C 819.770 756, 818.508 755.572, 816.475 753.378 C 815.138 751.936, 813.711 749.124, 813.303 747.128 C 812.048 740.993, 812.397 713.968, 813.815 707.500 C 816.193 696.656, 822.163 674.597, 824.099 669.500 C 825.144 666.750, 825.999 662.814, 825.999 660.752 C 826 657.852, 826.782 656.176, 829.456 653.341 C 833.619 648.927, 834.832 644.689, 832.578 642.435 C 831.710 641.567, 831 640.641, 831 640.377 C 831 638.431, 838.519 625.970, 839.972 625.509 C 842.049 624.850, 847 620.168, 847 618.864 C 847 618.389, 846.325 618, 845.500 618 C 844.675 618, 844 617.380, 844 616.622 C 844 614.348, 846.779 612.572, 848.327 613.857 C 849.349 614.705, 850.210 614.216, 852.068 611.729 C 856.912 605.246, 859.299 601.440, 860.272 598.649 C 860.819 597.079, 863.232 593.984, 865.634 591.770 C 870.584 587.207, 871.193 585, 867.500 585 C 866.125 585, 865 584.650, 865 584.223 C 865 581.274, 873.955 574.236, 876.056 575.534 C 877.535 576.449, 881.294 572.767, 886.557 565.250 C 890.336 559.852, 890.665 559, 888.967 559 C 884.664 559, 887.033 555.828, 904.903 537.658 C 912.931 529.496, 924.861 518.471, 931.414 513.158 C 937.967 507.846, 944.507 502.531, 945.948 501.346 C 949.747 498.224, 956.969 494.636, 957.793 495.462 C 958.182 495.851, 957.211 497.280, 955.635 498.636 C 950.210 503.305, 953.806 502.100, 964.834 495.555 C 974.663 489.720, 978.376 487, 976.512 487 C 976.179 487, 972.530 488.853, 968.404 491.117 C 955.411 498.248, 958.315 493.331, 972 485.029 C 982.257 478.806, 999.253 472.982, 1000.634 475.217 C 1000.976 475.771, 1000.712 476.560, 1000.047 476.971 C 999.382 477.382, 1002.574 477.669, 1007.141 477.609 C 1014.287 477.515, 1015.493 477.743, 1015.794 479.243 C 1016.083 480.680, 1013.405 486.661, 1006.997 498.892 C 1006.534 499.777, 1004.552 503.784, 1002.594 507.797 C 1000.635 511.811, 997.016 517.661, 994.552 520.797 C 982.058 536.696, 975.994 545.906, 976.032 548.928 C 976.049 550.343, 976.733 552.386, 977.552 553.469 C 978.924 555.284, 979.707 557.676, 981.452 565.383 L 982.105 568.267 990.552 567.581 C 997.204 567.041, 999 567.175, 999 568.207 C 999 568.929, 998.047 570.114, 996.882 570.842 C 995.631 571.623, 995.132 572.532, 995.662 573.062 C 996.737 574.137, 1002.946 572.567, 1008.210 569.888 C 1010.251 568.850, 1013.851 567.993, 1016.210 567.985 C 1018.985 567.975, 1020.022 567.667, 1019.147 567.112 C 1016.650 565.530, 1019.618 562.462, 1026.457 559.556 C 1032.689 556.907, 1033.324 556.314, 1038.686 548.131 C 1041.796 543.384, 1046.058 537.531, 1048.158 535.124 C 1055.954 526.184, 1060.627 511.507, 1059.658 499 C 1058.776 487.620, 1055.205 478.805, 1045.392 463.787 C 1036.364 449.970, 1026.336 440.920, 1011.957 433.615 C 998.360 426.708, 988.102 425.593, 969.500 429.003 M 614.500 434.090 C 602.384 438.339, 586.593 445.704, 581.667 449.404 C 579.925 450.711, 574 454.142, 568.500 457.027 C 555.845 463.665, 549.460 467.979, 534.500 479.999 C 527.900 485.302, 520.925 490.727, 519 492.056 C 512.838 496.309, 500.944 507.109, 486.235 521.807 C 481.615 526.423, 466.719 544.789, 465.020 547.962 C 464.456 549.016, 459.997 554.450, 455.112 560.037 C 450.226 565.624, 444.983 572.739, 443.461 575.848 C 441.939 578.956, 438.874 583.963, 436.650 586.973 C 429.059 597.249, 423.344 606.494, 419.324 615 C 414.723 624.739, 413.647 628.194, 411.543 640 C 410.710 644.675, 409.347 652.262, 408.514 656.860 C 406.603 667.411, 406.613 671.722, 408.572 682.140 C 410.954 694.813, 416.897 706.420, 427.444 719 C 437.466 730.954, 455.123 748.818, 462.427 754.392 C 474.762 763.808, 497.821 772.156, 518.524 774.702 C 530.855 776.218, 532.933 776.223, 544.745 774.756 C 559.207 772.961, 567.273 770.720, 580.928 764.702 C 594.905 758.542, 607.650 748.574, 628.372 727.594 C 645.717 710.034, 649.775 705.441, 648.805 704.472 C 648.401 704.068, 642.929 709.484, 616.500 736.441 C 608.950 744.142, 590.645 756.979, 589.231 755.564 C 588.522 754.855, 588.444 754.931, 598 747.046 C 602.125 743.643, 611.800 734.697, 619.500 727.168 C 627.200 719.638, 636.517 710.859, 640.204 707.657 C 646.020 702.608, 647.915 701.466, 651.131 701.077 C 653.799 700.753, 668.660 681.597, 673.163 672.677 C 674.802 669.430, 677.948 664.912, 680.155 662.637 C 682.361 660.362, 685.023 656.843, 686.069 654.818 C 687.115 652.793, 688.393 650.875, 688.909 650.556 C 689.424 650.238, 690.142 648.628, 690.504 646.980 C 690.866 645.332, 691.967 643.553, 692.949 643.027 C 693.932 642.501, 695.008 640.708, 695.342 639.042 C 695.675 637.375, 697.759 634.047, 699.974 631.644 C 702.738 628.646, 704 626.371, 704 624.388 C 704 622.218, 705.074 620.585, 708.317 617.819 C 710.956 615.569, 713.139 612.608, 713.935 610.198 C 714.650 608.031, 717.166 603.676, 719.526 600.521 C 721.886 597.366, 724.325 592.766, 724.946 590.299 C 725.567 587.832, 727.803 583.493, 729.914 580.657 C 734.937 573.909, 735.536 572.677, 740.117 559.668 C 744.499 547.224, 744.542 547, 742.559 547 C 739.687 547, 739.883 544.828, 743.025 541.825 C 750.306 534.867, 755.195 515.917, 752.916 503.486 C 749.839 486.699, 724.557 460.074, 710.372 458.681 C 704.383 458.093, 701.202 456.599, 694.263 451.114 C 684.227 443.180, 672.515 440.076, 666.231 443.682 C 663.474 445.265, 662.951 445.258, 657.400 443.565 C 646.449 440.226, 643.620 440.525, 641.647 445.232 C 641.260 446.157, 640.819 446.031, 640.018 444.767 C 639.214 443.499, 638.460 443.285, 637.210 443.971 C 635.323 445.005, 623.732 447.022, 623.107 446.424 C 621.501 444.886, 631.317 439.763, 639.988 437.613 C 649.640 435.220, 644.197 429.913, 632.300 430.116 C 627.189 430.204, 622.767 431.191, 614.500 434.090 M 1731.500 435.039 C 1723.411 436.746, 1713.126 444.813, 1704.137 456.500 C 1699.165 462.965, 1696.100 465.836, 1689.512 470.200 C 1684.928 473.236, 1677.452 481.052, 1672.130 488.373 C 1670.277 490.922, 1665.855 496.494, 1662.304 500.754 C 1652.346 512.701, 1647.951 519.299, 1639.602 534.836 C 1635.365 542.721, 1629.896 551.923, 1627.449 555.286 C 1625.002 558.649, 1623 562.003, 1623 562.740 C 1623 564.547, 1619.196 572.021, 1617.014 574.500 C 1613.210 578.822, 1606.710 589.293, 1601.408 599.643 C 1598.349 605.614, 1594.755 611.932, 1593.423 613.683 C 1592.090 615.434, 1590.997 617.234, 1590.994 617.683 C 1590.990 618.132, 1588.253 623.450, 1584.911 629.500 C 1581.570 635.550, 1576.996 643.875, 1574.748 648 C 1572.500 652.125, 1567.318 660.437, 1563.232 666.471 C 1559.146 672.505, 1554.892 679.480, 1553.779 681.971 C 1552.666 684.462, 1550.485 689.233, 1548.933 692.573 C 1546.382 698.061, 1541.612 711.993, 1536.049 730.209 C 1533.253 739.365, 1533.474 741.634, 1537.781 747.983 C 1541.920 754.085, 1549.516 758.933, 1556.500 759.929 C 1560.137 760.448, 1560.528 760.793, 1560.812 763.735 C 1560.999 765.666, 1562.288 768.134, 1564.011 769.857 C 1568.399 774.246, 1576.055 779, 1578.733 779 C 1580.048 779, 1585.258 780.216, 1590.312 781.702 C 1606.245 786.388, 1616.995 785.307, 1653.126 775.389 C 1675.493 769.249, 1681.821 767.716, 1696 764.999 C 1707.543 762.788, 1720.385 759.932, 1737 755.881 C 1743.875 754.205, 1752.650 752.222, 1756.500 751.475 C 1780.212 746.870, 1783.300 745.814, 1788.087 740.676 C 1791.573 736.934, 1790.615 735.779, 1784.644 736.525 C 1777.982 737.358, 1777.014 735.862, 1780.785 730.563 C 1782.802 727.727, 1783.171 726.483, 1782.379 725.187 C 1781.165 723.200, 1764.482 714.534, 1753.910 710.398 C 1747.284 707.807, 1745.337 707.506, 1735.500 707.552 C 1729.450 707.581, 1713.250 708.818, 1699.500 710.301 C 1665.263 713.994, 1661 713.854, 1661 709.035 C 1661 707.250, 1663.420 702.443, 1669.171 692.802 C 1671.369 689.118, 1673.011 685.297, 1672.821 684.310 C 1672.407 682.158, 1664.773 693.251, 1659.172 704.145 C 1655.423 711.437, 1651.566 714.639, 1650.350 711.470 C 1649.472 709.183, 1653.440 700.390, 1659.518 691.153 C 1662.533 686.571, 1665 682.644, 1665 682.428 C 1665 682.212, 1666.868 678.990, 1669.151 675.268 C 1671.434 671.545, 1675.994 663.325, 1679.285 657 C 1682.576 650.675, 1686.978 643.197, 1689.067 640.382 C 1691.157 637.567, 1693.823 633.067, 1694.992 630.382 C 1700.566 617.582, 1715.056 592.344, 1720.882 585.288 C 1727.890 576.801, 1730.199 579.801, 1724.097 589.464 C 1718.016 599.093, 1712.614 609.955, 1713.498 610.778 C 1713.925 611.175, 1714.453 611.003, 1714.672 610.395 C 1714.891 609.787, 1716.793 606.637, 1718.899 603.395 C 1721.005 600.153, 1724.668 593.900, 1727.039 589.500 C 1729.409 585.100, 1732.334 579.919, 1733.538 577.986 C 1736.952 572.506, 1741.182 563.849, 1740.688 563.354 C 1740.442 563.109, 1738.799 564.729, 1737.037 566.954 C 1733.918 570.892, 1730.804 572.109, 1729.451 569.920 C 1728.424 568.260, 1737.088 556.418, 1745.993 547.311 C 1750.397 542.807, 1754 538.656, 1754 538.086 C 1754 537.468, 1752.789 537.292, 1751 537.650 C 1745.732 538.704, 1747.378 535.462, 1758.188 523.494 C 1761.126 520.242, 1762.018 518.299, 1762.571 513.955 C 1762.954 510.955, 1763.594 508.050, 1763.995 507.500 C 1764.396 506.950, 1765.036 505.199, 1765.416 503.610 C 1765.797 502.020, 1768.155 496.398, 1770.657 491.115 C 1773.158 485.833, 1775.443 480.046, 1775.733 478.255 C 1776.205 475.348, 1776.007 474.998, 1773.881 474.985 C 1769.267 474.955, 1768.419 473.622, 1769.778 468.540 C 1771.795 460.998, 1771.373 458.419, 1767.403 454.025 C 1765.425 451.835, 1762.163 449.045, 1760.153 447.824 C 1758.144 446.603, 1754.475 443.947, 1752 441.922 C 1749.525 439.896, 1746.375 437.653, 1745 436.935 C 1741.622 435.173, 1735.162 434.266, 1731.500 435.039 M 331 441.578 C 322.475 442.310, 312.800 443.376, 309.500 443.946 C 306.200 444.516, 299.675 445.466, 295 446.056 C 287.845 446.959, 258.538 453.803, 238 459.366 C 231.461 461.138, 207.831 469.430, 203.349 471.526 C 201.616 472.337, 199.930 473, 199.603 473 C 199.276 473, 195.519 474.631, 191.254 476.625 C 186.989 478.618, 179.675 481.768, 175 483.624 C 159.837 489.643, 146.544 500.056, 142.185 509.331 C 138.536 517.092, 137.951 521.671, 139.608 529.500 C 142.541 543.364, 142.882 545.585, 142.940 551.205 C 143.063 562.986, 149.739 574.979, 163.163 587.536 C 170.657 594.546, 177.332 599.113, 189 605.214 C 193.675 607.658, 199.311 610.801, 201.525 612.199 C 208.477 616.589, 256.435 640, 258.476 640 C 259.890 640, 272.698 646.239, 279.500 650.241 C 292.138 657.676, 293.981 660.157, 291.085 665.833 C 288.833 670.247, 276.513 682.106, 267.490 688.545 C 260.606 693.457, 245.207 701.958, 243.147 701.983 C 242.403 701.992, 237.903 703.837, 233.147 706.083 C 217.144 713.639, 208.924 715.958, 185.325 719.573 C 169.432 722.007, 152.084 720.645, 140.180 716.028 C 135.605 714.253, 131.618 712.167, 131.321 711.393 C 130.135 708.302, 132.236 702.699, 136.190 698.410 C 138.425 695.985, 139.785 694, 139.211 694 C 138.636 694, 137.990 694.530, 137.774 695.177 C 137.313 696.562, 135 695.390, 135 693.771 C 135 693.159, 137.791 689.954, 141.202 686.647 C 147.674 680.373, 147.754 678.822, 141.471 681.448 C 137.083 683.281, 133.396 683.449, 132.414 681.860 C 131.999 681.190, 134.034 678.575, 137.355 675.509 C 143.686 669.663, 144.328 667.237, 140.545 663.455 C 137.572 660.481, 135.103 660.397, 126.839 662.987 C 116.727 666.157, 110.814 665.436, 116.250 661.696 C 118.427 660.198, 118.357 660.153, 114.108 660.324 C 107.576 660.586, 107.821 658.493, 114.674 655.485 C 122.777 651.927, 123.500 651.469, 123.500 649.891 C 123.500 647.621, 115.963 644.608, 109.186 644.168 C 103.503 643.800, 102.155 644.119, 95.686 647.361 C 84.051 653.195, 77.355 658.697, 74.412 664.843 C 69.199 675.730, 72.512 692.516, 84.672 716.828 C 88.889 725.259, 93.903 734.259, 95.814 736.828 C 116.018 763.992, 157.692 787.389, 193.974 791.938 C 210.261 793.980, 219.520 793.115, 234.500 788.152 C 237.800 787.059, 244.100 785.186, 248.500 783.991 C 271.510 777.739, 285.071 772.042, 311 757.737 C 344.252 739.391, 350.161 735.329, 355.006 727.490 C 357.399 723.618, 361.218 711.161, 360.411 709.857 C 360.120 709.385, 359.234 709, 358.441 709 C 356.554 709, 356.571 704.949, 358.468 702.441 C 360.464 699.803, 360.345 695.309, 357.968 683.500 C 355.613 671.799, 353.981 667.148, 348.718 657.141 C 336.965 634.796, 321.716 615.517, 305.441 602.426 C 292.040 591.648, 281.627 585.430, 253.500 571.409 C 239.750 564.555, 227.735 558.037, 226.800 556.925 C 223.496 552.993, 223.650 552.889, 252.934 539.290 C 260.650 535.707, 281.321 527.642, 289 525.218 C 301.022 521.423, 315.480 517.168, 318 516.684 C 319.375 516.419, 327.025 514.830, 335 513.153 C 354.304 509.092, 365.086 507.702, 368.173 508.876 C 370.978 509.942, 372.556 514.194, 373.600 523.500 C 374.683 533.147, 374.933 533.373, 383.639 532.584 C 387.726 532.213, 391.730 531.657, 392.535 531.348 C 393.503 530.977, 394 531.427, 394 532.674 C 394 533.988, 392.732 535.008, 389.823 536.031 C 385.412 537.582, 383.519 540, 386.716 540 C 388.752 540, 400.479 536.324, 416.706 530.600 C 427.862 526.665, 431 526.204, 431 528.500 C 431 533.263, 441.259 524.794, 445.397 516.615 C 447.527 512.406, 448.076 510.209, 447.611 507.759 C 447.270 505.966, 446.577 501.575, 446.071 498 C 444.838 489.298, 444.189 487.421, 437.695 473.769 C 427.194 451.692, 417.498 445.097, 390.197 441.463 C 377.163 439.728, 351.973 439.777, 331 441.578 M 977.500 442.480 C 965.611 444.627, 956.579 447.912, 958.176 449.509 C 958.640 449.973, 962.948 449.029, 982.422 444.195 C 984.970 443.563, 987.556 440.820, 985.333 441.108 C 984.875 441.167, 981.350 441.784, 977.500 442.480 M 1199.063 445.109 C 1196.622 446.192, 1192.122 449.152, 1189.063 451.688 C 1181.514 457.945, 1166.759 473.077, 1160.744 480.731 C 1158.035 484.179, 1155.457 487, 1155.017 487 C 1153.208 487, 1143.590 496.717, 1139.772 502.402 C 1137.520 505.756, 1132.662 512.325, 1128.978 517 C 1125.293 521.675, 1119.913 529.325, 1117.022 534 C 1114.131 538.675, 1110.296 544.750, 1108.499 547.500 C 1106.703 550.250, 1103.028 557, 1100.334 562.500 C 1097.640 568, 1093.147 575.425, 1090.349 579 C 1087.551 582.575, 1083.810 588.425, 1082.035 592 C 1076.066 604.021, 1074.634 606.480, 1070.676 611.500 C 1067.178 615.937, 1059 631.052, 1059 633.081 C 1059 634.480, 1050.011 653.538, 1044.889 663 C 1044.442 663.825, 1042.233 669.225, 1039.980 675 C 1037.726 680.775, 1033.659 689.383, 1030.941 694.129 C 1024.405 705.543, 1024.347 708.534, 1030.498 716.890 C 1035.229 723.317, 1036.404 723.918, 1039.559 721.532 C 1042.106 719.606, 1045.681 719.607, 1046.760 721.536 C 1047.233 722.380, 1048.942 723.424, 1050.560 723.855 C 1053.873 724.739, 1055.956 728.048, 1056.001 732.500 C 1056.039 736.301, 1056.622 737.153, 1061.390 740.373 C 1067.710 744.642, 1073.233 743.850, 1079.678 737.754 C 1082.225 735.344, 1083.393 734.882, 1085.561 735.426 C 1088.147 736.075, 1088.241 736.319, 1087.689 740.977 C 1087 746.797, 1088.378 748.515, 1092.931 747.515 C 1096.659 746.696, 1103.808 737.911, 1110.032 726.500 C 1116.952 713.812, 1134.325 684.952, 1141.033 675.001 C 1143.072 671.975, 1145.870 667.475, 1147.251 665 C 1154.201 652.542, 1161.058 641.538, 1177.500 616.458 C 1184.100 606.391, 1191.443 595.082, 1193.818 591.327 C 1196.193 587.572, 1199.667 582.475, 1201.539 580 C 1203.411 577.525, 1206.517 572.800, 1208.442 569.500 C 1213.217 561.315, 1220.707 552, 1222.515 552 C 1225.160 552, 1224.108 554.910, 1218.614 562.782 C 1215.652 567.027, 1209.834 576.181, 1205.685 583.125 C 1201.537 590.068, 1195.936 599.068, 1193.239 603.125 C 1185.274 615.104, 1172.851 635.225, 1168.928 642.500 C 1167.742 644.700, 1164.274 650.325, 1161.221 655 C 1153.909 666.198, 1151.999 669.252, 1147.465 677 C 1145.372 680.575, 1142.221 685.750, 1140.461 688.500 C 1125.444 711.968, 1112 735.212, 1112 737.706 C 1112 740.795, 1114.546 738.073, 1118.333 730.935 C 1123.353 721.472, 1127.470 714.585, 1140.767 693.400 C 1146.670 683.995, 1154.650 671.022, 1158.500 664.571 C 1162.350 658.120, 1166.939 650.740, 1168.697 648.171 C 1182.068 628.632, 1188.047 619.495, 1191.917 612.685 C 1192.913 610.933, 1195.363 606.724, 1197.363 603.332 C 1199.364 599.939, 1201.007 596.789, 1201.016 596.332 C 1201.024 595.874, 1202.805 593.475, 1204.973 591 C 1207.141 588.525, 1211.013 582.900, 1213.577 578.500 C 1216.141 574.100, 1220.964 566, 1224.295 560.500 C 1232.334 547.226, 1234.648 542.995, 1235.510 540 C 1236.191 537.636, 1236.036 537.685, 1232.647 540.915 C 1229.738 543.688, 1228.950 544.034, 1228.460 542.755 C 1226.958 538.843, 1232.607 533.220, 1237.064 534.188 C 1239.390 534.693, 1249.173 513.861, 1251.952 502.484 C 1254.615 491.582, 1254.352 490.361, 1248.967 488.621 L 1245.500 487.500 1244.957 478 C 1244.239 465.443, 1243.346 463.560, 1237.047 461.323 C 1234.271 460.337, 1232 458.961, 1232 458.265 C 1232 457.431, 1230.456 457, 1227.469 457 C 1222.079 457, 1220.241 454.580, 1223.825 452.200 C 1225.021 451.406, 1226 449.911, 1226 448.878 C 1226 447.845, 1225.881 447, 1225.736 447 C 1225.591 447, 1223.009 446.100, 1220 445 C 1213.084 442.472, 1204.913 442.515, 1199.063 445.109 M 977.333 448.806 C 973.069 450.539, 970.915 452, 972.623 452 C 974.754 452, 985.565 448.832, 986.450 447.948 C 988.026 446.375, 981.893 446.952, 977.333 448.806 M 357.500 457.626 C 355.850 457.806, 348.650 458.452, 341.500 459.062 C 318.534 461.022, 267.169 471.577, 263.550 475.080 C 262.159 476.427, 263.074 476.312, 279.579 473.060 C 301.313 468.778, 322.488 465.230, 330.500 464.528 C 377.730 460.387, 384.042 459.741, 384.500 459 C 385.415 457.520, 367.059 456.586, 357.500 457.626 M 654.750 465.515 C 651.587 467.998, 649 470.469, 649 471.007 C 649 471.545, 645.670 474.449, 641.599 477.459 C 633.622 483.358, 630 487.268, 630 489.980 C 630 491.911, 626.984 495, 625.099 495 C 622.056 495, 614.645 500.784, 604.050 511.429 C 592.627 522.906, 590.639 526.181, 597.583 522.083 C 599.601 520.893, 601.431 520.098, 601.651 520.317 C 602.284 520.950, 585.250 539.682, 583.279 540.521 C 582.300 540.937, 580.690 541.367, 579.699 541.475 C 578.709 541.584, 577.134 542.478, 576.199 543.461 C 574.583 545.161, 574.640 545.215, 577.373 544.574 L 580.247 543.900 575.417 550.700 C 572.761 554.440, 565.843 564.059, 560.044 572.076 C 554.245 580.093, 548.375 588.609, 547 591.001 C 543.840 596.497, 540.043 600.277, 535.533 602.417 C 531.756 604.210, 530.931 606.868, 533.492 608.994 C 534.787 610.068, 534.571 610.753, 531.865 614.171 C 530.149 616.337, 527.304 622.248, 525.542 627.305 C 523.780 632.362, 520.726 640.325, 518.754 645 C 516.782 649.675, 514.851 654.625, 514.462 656 C 514.073 657.375, 513.419 658.950, 513.008 659.500 C 512.597 660.050, 511.683 662.300, 510.976 664.500 C 510.270 666.700, 507.571 673, 504.978 678.500 C 498.478 692.288, 497.732 695.028, 498.162 703.533 C 498.683 713.850, 500.745 716.522, 508.125 716.442 C 511.242 716.409, 515.390 715.538, 518 714.369 C 520.475 713.261, 524.525 711.503, 527 710.463 C 540.392 704.834, 562.371 688.341, 570.412 677.887 C 573.114 674.374, 579.477 667.450, 584.553 662.500 C 589.630 657.550, 595.069 651.475, 596.641 649 C 598.212 646.525, 601.372 642.168, 603.662 639.318 C 605.953 636.467, 609.536 631.067, 611.626 627.318 C 617.653 616.501, 624.297 605.916, 628.457 600.500 C 632.340 595.444, 635.938 588.597, 635.978 586.186 C 635.998 585.007, 637.912 580.473, 642.810 570 C 643.710 568.075, 646.193 563.350, 648.328 559.500 C 651.994 552.889, 657.989 539.396, 657.997 537.739 C 657.998 537.321, 658.866 535.071, 659.924 532.739 C 667.917 515.123, 674.792 490.606, 675.694 476.500 C 676.159 469.242, 673.816 464.657, 668.510 462.440 C 663.112 460.184, 660.915 460.676, 654.750 465.515 M 346.500 466.451 C 329.026 468.413, 295.518 474.578, 290 476.846 L 287.500 477.873 290.500 477.877 C 292.150 477.879, 295.750 477.464, 298.500 476.955 C 306.901 475.401, 338.646 470.983, 354.283 469.193 C 362.414 468.262, 369.164 467.050, 369.283 466.500 C 369.598 465.046, 359.217 465.024, 346.500 466.451 M 984.500 467.454 C 974.851 471.088, 971 472.960, 971 474.013 C 971 475.316, 971.333 475.279, 979.500 473.083 C 992.182 469.673, 998.339 467.483, 998.756 466.233 C 999.426 464.221, 991.216 464.925, 984.500 467.454 M 366 489.034 C 363.525 489.472, 356.415 490.332, 350.200 490.944 C 339.368 492.010, 324.187 494.743, 306 498.900 C 288.678 502.859, 260.783 512.184, 256.444 515.466 C 254.548 516.900, 254.556 516.937, 256.764 516.968 C 258.009 516.986, 259.809 516.566, 260.764 516.036 C 263.591 514.465, 286.339 508.349, 308.500 503.202 C 318.681 500.837, 346.954 496.401, 357.500 495.514 C 369.864 494.475, 385.433 492.879, 387.750 492.414 C 390.338 491.894, 390.757 489.504, 388.418 488.607 C 386.253 487.776, 371.514 488.057, 366 489.034 M 356.500 503.177 C 308.358 511.857, 283.782 518.478, 258.349 529.620 C 256.616 530.379, 254.942 531, 254.629 531 C 254.315 531, 251.458 532.186, 248.280 533.635 C 245.101 535.084, 239.575 537.593, 236 539.210 C 229.041 542.359, 223.018 546.061, 223.007 547.196 C 222.997 548.222, 231.953 544.901, 245 539.041 C 275.046 525.545, 305.534 516.060, 343 508.553 C 349.337 507.283, 369.883 504, 371.493 504 C 371.772 504, 372 503.550, 372 503 C 372 501.810, 363.546 501.907, 356.500 503.177 M 197.500 504.434 C 193.959 506.033, 190.069 508.943, 191.500 508.921 C 193.172 508.895, 203.610 503.095, 202 503.086 C 201.175 503.082, 199.150 503.688, 197.500 504.434 M 1457.500 530 C 1456.484 531.123, 1454.420 532, 1452.795 532 C 1446.838 532, 1441.472 536.706, 1427.708 554 C 1423.549 559.225, 1415.801 568.675, 1410.489 575 C 1405.178 581.325, 1398.760 589.425, 1396.226 593 C 1393.693 596.575, 1389.013 602.990, 1385.827 607.256 C 1379.252 616.061, 1377.666 620, 1380.695 620 C 1383.219 620, 1387.526 615.297, 1393.977 605.500 C 1399.284 597.439, 1404.359 590.821, 1408.989 585.923 C 1412.646 582.055, 1417.349 575.895, 1428.018 561 C 1435.478 550.584, 1443.896 541, 1445.585 541 C 1448.501 541, 1447.074 543.325, 1436.991 555 C 1431.120 561.797, 1424.168 570.883, 1419.970 577.243 C 1418.612 579.302, 1417.166 580.989, 1416.757 580.993 C 1415.205 581.007, 1391 615.410, 1391 617.602 C 1391 620.150, 1394.386 621.158, 1405.865 622.030 C 1412.475 622.531, 1419.963 623.466, 1422.506 624.106 C 1429.709 625.920, 1432.124 623.774, 1437.258 611 C 1437.811 609.625, 1439.069 606.925, 1440.053 605 C 1443.327 598.601, 1445.849 590.599, 1447.462 581.500 C 1448.339 576.550, 1449.457 571.600, 1449.946 570.500 C 1450.435 569.400, 1451.283 567.150, 1451.830 565.500 C 1452.378 563.850, 1454.258 558.675, 1456.008 554 C 1462.738 536.024, 1464.175 530.916, 1462.928 529.413 C 1461.309 527.463, 1459.632 527.644, 1457.500 530 M 1144.467 557.765 C 1143.539 558.426, 1139.439 564.880, 1136.248 570.704 C 1135.584 571.916, 1135.401 573.130, 1135.842 573.402 C 1136.744 573.960, 1144.368 562.718, 1145.440 559.250 C 1146.188 556.826, 1146.061 556.632, 1144.467 557.765 M 1705.764 621.732 C 1701.627 627.886, 1701.005 634.402, 1705.097 628.719 C 1706.914 626.196, 1709.429 619.096, 1708.748 618.415 C 1708.500 618.167, 1707.157 619.659, 1705.764 621.732 M 1695.327 641.645 C 1688.085 651.603, 1676 673.787, 1676 677.125 C 1676 680.433, 1680.640 675.187, 1683.784 668.323 C 1686.023 663.432, 1690.745 655.365, 1693.655 651.458 C 1696.626 647.469, 1701.263 637.289, 1700.776 635.827 C 1700.565 635.196, 1698.114 637.814, 1695.327 641.645 M 1085.764 658.260 C 1083.744 659.836, 1080.009 666.068, 1080.004 667.872 C 1079.998 670.037, 1082.489 667.548, 1085.543 662.337 C 1088.323 657.593, 1088.398 656.206, 1085.764 658.260 M 1511.208 665.709 C 1508.866 669.913, 1506.687 674.398, 1506.366 675.676 C 1505.318 679.853, 1507.774 678.137, 1511.270 672.250 C 1515.772 664.668, 1517.522 660.122, 1516.377 658.977 C 1515.829 658.429, 1513.771 661.109, 1511.208 665.709 M 1388 659.647 C 1386.625 659.854, 1380.550 660.716, 1374.500 661.563 C 1360.505 663.524, 1354.931 665.608, 1359.251 667.266 C 1361.569 668.156, 1394.762 661.638, 1396.436 659.964 C 1397.399 659.001, 1393.327 658.848, 1388 659.647 M 1328.779 690.750 C 1326.642 693.193, 1310.470 717.849, 1304.675 727.500 C 1302.033 731.900, 1298.484 737.750, 1296.787 740.500 C 1293.237 746.254, 1287.584 757.449, 1286.562 760.750 C 1286.053 762.393, 1286.270 763, 1287.365 763 C 1288.219 763, 1290.443 759.901, 1292.533 755.801 C 1294.550 751.842, 1297.242 747.230, 1298.514 745.551 C 1299.786 743.873, 1302.829 739.125, 1305.276 735 C 1307.723 730.875, 1314.737 719.681, 1320.863 710.125 C 1330.953 694.383, 1333.576 689, 1331.155 689 C 1330.690 689, 1329.621 689.788, 1328.779 690.750 M 985.364 703.235 C 961.610 724.869, 914.886 759.446, 901 765.665 C 897.149 767.390, 890 772.881, 890 774.115 C 890 778.167, 918.745 761.697, 941.500 744.607 C 948.100 739.650, 954.047 735.123, 954.715 734.547 C 955.384 733.971, 956.524 733.050, 957.249 732.500 C 959.826 730.546, 975.599 716.453, 981.846 710.523 C 992.953 699.981, 996.103 693.454, 985.364 703.235 M 940.867 710.687 C 933.515 716.015, 920.510 724.903, 911.968 730.437 C 891.937 743.414, 892.747 742.902, 891 743.682 C 889.664 744.278, 880.865 749.438, 875.500 752.772 C 874.400 753.455, 872.487 754.533, 871.250 755.168 C 867.470 757.105, 868.746 758.001, 873.099 756.465 C 879.803 754.100, 899.130 744.215, 904.363 740.475 C 907.038 738.564, 909.695 737, 910.268 737 C 912.304 737, 908.054 740.549, 902.604 743.401 C 897.095 746.283, 892.183 750.516, 893.185 751.519 C 894.649 752.982, 925.025 733.799, 939.500 722.269 C 953.021 711.500, 954.519 710.188, 953.946 709.613 C 953.363 709.030, 942.675 716.155, 931.877 724.325 C 925.067 729.478, 917.987 733.537, 918.020 732.270 C 918.032 731.847, 921.933 728.575, 926.689 725 C 931.446 721.425, 935.828 718.014, 936.428 717.419 C 937.028 716.824, 940.738 714.041, 944.673 711.233 C 953.245 705.117, 956 702.817, 956 701.778 C 956 700.040, 953.651 701.423, 940.867 710.687 M 568.155 708.245 C 566.810 709.590, 557.992 715.179, 545.965 722.309 C 541.821 724.766, 537.828 727.502, 537.093 728.388 C 534.586 731.408, 540.286 730.243, 548.634 726.029 C 556.298 722.161, 573 709.743, 573 707.914 C 573 706.569, 569.598 706.802, 568.155 708.245 M 567.070 719.454 C 562.582 722.440, 556.680 726.256, 553.955 727.933 C 551.230 729.610, 549 731.683, 549 732.541 C 549 733.740, 550.797 733.160, 556.750 730.043 C 561.013 727.811, 565.919 724.729, 567.653 723.195 C 569.388 721.661, 572.283 719.267, 574.087 717.875 C 576.037 716.372, 576.934 715.077, 576.299 714.685 C 575.710 714.321, 571.557 716.467, 567.070 719.454 M 605.372 722.710 C 602.692 724.733, 600.275 726.680, 600 727.037 C 599.108 728.196, 580.695 741.477, 573.397 746.226 C 565.853 751.136, 563 753.563, 563 755.071 C 563 756.982, 567.164 755.878, 574.715 751.966 C 584.196 747.053, 587.452 744.478, 601.368 730.882 C 612.306 720.196, 614.420 715.882, 605.372 722.710 M 257.500 722.188 C 255.850 722.755, 250.675 724.719, 246 726.553 C 241.325 728.386, 229.918 732.170, 220.651 734.961 C 211.383 737.752, 202.833 740.587, 201.651 741.261 C 199.556 742.454, 199.575 742.495, 202.384 742.822 C 210.524 743.772, 234.206 736.701, 251.703 728.098 C 263.770 722.165, 266.921 718.952, 257.500 722.188 M 240.500 738.908 C 220.747 745.624, 220 745.923, 220 747.107 C 220 748.199, 219.442 748.213, 226.566 746.937 C 237.220 745.029, 252.820 739.008, 258.500 734.612 C 261.903 731.978, 258.490 732.792, 240.500 738.908 M 328.877 754.852 C 323.590 757.941, 312.097 765.180, 310.083 766.688 C 309.854 766.860, 309.895 767.229, 310.175 767.508 C 311.464 768.798, 336 754.028, 336 751.963 C 336 750.644, 336.254 750.541, 328.877 754.852 M 271.500 759.441 C 264.900 761.810, 254.775 765.203, 249 766.979 C 227.976 773.448, 225.478 774.283, 224.250 775.256 C 217.079 780.931, 240.336 777.537, 261 769.892 C 265.675 768.163, 271.135 766.150, 273.134 765.419 C 280.054 762.888, 289 757.508, 289 755.878 C 289 754.070, 283.136 755.263, 271.500 759.441 M 293.500 774.926 C 290.200 776.533, 288.305 777.881, 289.290 777.923 C 291.333 778.011, 298.549 774.539, 299.491 773.014 C 300.361 771.607, 300.242 771.645, 293.500 774.926 M 267.500 783.453 C 262.944 784.622, 254.712 787.867, 256.066 787.961 C 258.119 788.103, 268.358 785.662, 272.514 784.040 C 278.369 781.754, 275.452 781.413, 267.500 783.453" stroke="none" fill="#f9fafa" fill-rule="evenodd"/></svg>